<?xml version="1.0" encoding="utf-8"?>
<!-- Generator: Adobe Illustrator 22.0.1, SVG Export Plug-In . SVG Version: 6.00 Build 0)  -->
<svg version="1.1" id="Layer_1" xmlns="http://www.w3.org/2000/svg" xmlns:xlink="http://www.w3.org/1999/xlink" x="0px" y="0px"
	 viewBox="0 0 22.3 51.2" style="enable-background:new 0 0 22.3 51.2;" xml:space="preserve">
<g>
	<path d="M10.7,39.1c0.2,0.3,0.3,0.6,0.3,1c0,0.5-0.2,1-0.6,1.4c-0.2,0.2-0.2,0.5,0,0.7s0.5,0.2,0.7,0c0.6-0.6,0.9-1.3,0.9-2.1
		c0-0.5-0.1-1-0.4-1.5l0.3-0.2c0.2-0.2,0.2-0.5,0-0.7s-0.5-0.2-0.7,0l-0.2,0.2c-0.3,0.3-0.7,0.4-1.2,0.4l-0.2,0l-0.2,0
		c-0.3-0.1-0.6-0.2-0.9-0.5c-0.1-0.1-0.2-0.2-0.3-0.4c-0.2-0.3-0.3-0.6-0.3-1c0-0.5,0.2-1,0.5-1.3l0,0c0.2-0.2,0.2-0.5,0-0.7l0,0
		l0,0c-0.2-0.2-0.5-0.2-0.7,0l0,0c-0.4,0.4-0.8,0.5-1.3,0.5c-0.5,0-1-0.2-1.4-0.6s-0.6-0.9-0.6-1.4c0-0.5,0.2-1,0.6-1.4
		c0.2-0.2,0.2-0.5,0-0.7s-0.5-0.2-0.7,0c-0.6,0.6-0.9,1.3-0.9,2.1c0,0.7,0.3,1.5,0.9,2.1c0.6,0.6,1.3,0.9,2.1,0.9
		c0.2,0,0.4,0,0.5-0.1c0,0.2-0.1,0.4-0.1,0.5c0,0.5,0.1,1,0.4,1.5c0.1,0.2,0.3,0.4,0.4,0.6l0.2,0.2c0.5,0.5,1.2,0.7,1.9,0.7
		C10.1,39.2,10.4,39.2,10.7,39.1z"/>
	<path d="M21.8,3.5c-0.9-2.1-3-3.5-5.3-3.5c-1.3,0-2.5,0.4-3.5,1.1l0,0c0,0-3.3,2.5-6.5,7.4C6.2,8.9,5.9,9.3,5.7,9.8l0,0.1
		c-1.4,2.3-2.7,5-3.8,8.2c-0.2,0.5-0.3,0.9-0.4,1.4c-0.5,1.6-0.8,3.4-1.1,5.3c-0.1,0.5-0.1,0.9-0.2,1.4c0,0.5-0.1,1-0.1,1.5
		c0,0.1,0,0.2,0,0.3C0,28.7,0,29.5,0,30.3c0,0.7,0,1.5,0.1,2.3l0,0l0,0.1c0,0.4,0,0.7,0.1,1.1l0,0c0.4,2.6,1.5,6.9,4.3,10.7
		c0.9,1.2,2,2.4,3.3,3.4C8,47.9,8.1,48,8.3,48.2C8.2,48.1,8.1,48,8,47.9c0.1,0.1,0.2,0.2,0.4,0.3l0,0l0.1,0.1l0,0l0,0l0.1,0l0.1,0
		l-0.1,0c0.1,0.1,0.2,0.1,0.3,0.2l-0.1,0l-0.1-0.1c0.1,0.1,0.2,0.2,0.3,0.2c2.5,1.6,5.8,2.7,9.8,2.7c1,0,1.9-0.4,2.5-1
		c0.2-0.2,0.4-0.4,0.5-0.7v0c0,0,0.5-0.8,0.5-1.5s0-35.5,0-35.5s0.1-5.6,0.1-6.6C22.4,4.4,21.8,3.5,21.8,3.5z M8.9,6.9
		c-0.1,0.3-0.2,0.7-0.2,1c0,0.2,0,0.4,0.1,0.6c-0.2,0-0.4-0.1-0.6-0.1c-0.1,0-0.3,0-0.4,0C8.1,7.9,8.5,7.4,8.9,6.9z M5.4,12.3
		c0.1,0.4,0.4,0.8,0.7,1.1c0.2,0.2,0.5,0.2,0.7,0s0.2-0.5,0-0.7c-0.4-0.4-0.6-0.9-0.6-1.4c0-0.3,0.1-0.7,0.3-1l0-0.1
		c0.1-0.1,0.1-0.2,0.2-0.3c0.4-0.4,0.9-0.6,1.4-0.6c0.5,0,1,0.2,1.4,0.6l0.2,0.1c0.5,0.4,1.2,0.7,1.9,0.7c0.3,0,0.5-0.2,0.5-0.5
		s-0.2-0.5-0.5-0.5c-1.1,0-1.9-0.9-1.9-1.9c0-1.1,0.9-1.9,1.9-1.9c0.3,0,0.5-0.2,0.5-0.5S11.9,5,11.6,5C11,5,10.5,5.2,10,5.5
		c0.6-0.7,1.1-1.3,1.6-1.8c0.6-0.6,1.1-1.1,1.4-1.4c0.2-0.1,0.3-0.3,0.4-0.3L13.5,2l0,0c0.5-0.3,1-0.6,1.6-0.8
		c-0.4,0.5-0.7,1.1-0.7,1.8v0c-0.4-0.2-0.9-0.4-1.4-0.4c-0.3,0-0.5,0.2-0.5,0.5s0.2,0.5,0.5,0.5c1,0,1.8,0.8,1.8,1.8
		c0,1-0.8,1.8-1.8,1.8l-0.2,0c-0.4,0.1-0.9,0.3-1.2,0.6c-0.2,0.2-0.2,0.5,0,0.7s0.5,0.2,0.7,0c0.3-0.3,0.6-0.4,1-0.4s0.7,0.1,1,0.4
		s0.4,0.6,0.4,1s-0.1,0.7-0.4,1c-0.2,0.2-0.2,0.5,0,0.7c0.2,0.2,0.5,0.2,0.7,0c0.3-0.3,0.5-0.7,0.6-1.1c0.5,0.4,1.1,0.6,1.7,0.6
		c0.3,0,0.5-0.2,0.5-0.5s-0.2-0.5-0.5-0.5c-1.1,0-1.9-0.9-1.9-1.9c0-1.1,0.9-1.9,1.9-1.9c0.3,0,0.5-0.2,0.5-0.5s-0.2-0.5-0.5-0.5
		c-1.1,0-1.9-0.9-1.9-1.9c0-1.1,0.9-1.9,1.9-1.9l0,0c0.9,0.2,1.8,0.7,2.4,1.3c0.9,0.9,1.4,2.1,1.4,3.4V12l0,0.1v0
		c0,1.2-1,2.2-2.2,2.2h0l-0.2,0.1c-0.2,0.1-0.3,0.3-0.3,0.5c0,0.3,0.2,0.5,0.5,0.5v0c1.2,0,2.2,1,2.2,2.2c0,1.2-1,2.2-2.2,2.2h0
		c-0.3,0-0.5,0.2-0.5,0.5c0,0.3,0.2,0.5,0.5,0.5v0h0l0,0c0.9,0,1.7-0.4,2.3-1v0.9v4.3v0.4c-0.4-1-1.4-1.7-2.6-1.7
		c-0.3,0-0.5,0.2-0.5,0.5s0.2,0.5,0.5,0.5c1,0,1.8,0.8,1.8,1.8c0,1-0.8,1.8-1.8,1.8c-0.3,0-0.5,0.2-0.5,0.5s0.2,0.5,0.5,0.5
		c1.2,0,2.2-0.7,2.6-1.7v1.3v0.6v0.1c-0.1,1.1-1,2.1-2.2,2.1c-1.2,0-2.2-1-2.2-2.2l0,0l0,0c0-1.6-1.3-2.9-2.9-2.9
		c-0.1,0-0.2,0-0.3,0c0.1-0.3,0.1-0.5,0.1-0.8c0-0.6-0.2-1.1-0.5-1.6c0.2-0.2,0.4-0.5,0.5-0.8c0.2-0.4,0.2-0.8,0.2-1.2
		c0-0.2,0-0.3,0-0.5l0-0.1c0-0.1,0-0.2,0-0.3c0-0.4,0.2-0.9,0.4-1.2c0,1,0.5,1.8,1.2,2.3c-0.7,0.5-1.2,1.2-1.2,2.1
		c0,1.4,1.1,2.5,2.5,2.5c0.3,0,0.5-0.2,0.5-0.5S17.3,26,17,26c-0.8,0-1.5-0.7-1.5-1.5c0-0.8,0.7-1.5,1.5-1.5l0.2-0.1l0.1,0
		c0.2,0,0.4-0.2,0.5-0.4l0-0.1c0-0.3-0.2-0.5-0.5-0.5c-1.1,0-1.9-0.9-1.9-1.9c0-1,0.8-1.9,1.9-1.9l0,0c0.3,0,0.5-0.2,0.5-0.5v0l0,0
		c0-0.3-0.2-0.5-0.5-0.5l0,0c-1,0-1.9-0.9-1.9-1.9c0-1.1,0.9-1.9,1.9-1.9h0c1.6,0,2.9-1.3,2.9-2.9c0-1-0.5-1.9-1.3-2.4
		c0.8-0.5,1.3-1.4,1.3-2.4c0-1.6-1.3-2.9-2.9-2.9c-0.3,0-0.5,0.2-0.5,0.5s0.2,0.5,0.5,0.5c1.1,0,1.9,0.9,1.9,1.9
		c0,1.1-0.9,1.9-1.9,1.9c-0.3,0-0.5,0.2-0.5,0.5c0,0.3,0.2,0.5,0.5,0.5l0,0h0c1.1,0,1.9,0.9,1.9,1.9c0,1.1-0.9,1.9-1.9,1.9h0
		c-0.9,0-1.6,0.4-2.2,1c-0.1-0.3-0.3-0.6-0.6-0.8c-0.6-0.6-1.3-0.9-2.1-0.9c-0.6,0-1.3,0.2-1.8,0.6c-0.1-0.4-0.4-0.8-0.7-1.1
		c-0.2-0.2-0.5-0.2-0.7,0s-0.2,0.5,0,0.7c0.4,0.4,0.6,0.9,0.6,1.4c0,0.5-0.2,1-0.6,1.4s-0.9,0.6-1.4,0.6c-0.5,0-1-0.2-1.4-0.6
		l-0.1,0C6.3,14.4,6.2,14.2,6,14c-0.2-0.2-0.5-0.2-0.7,0s-0.2,0.5,0,0.7c0.3,0.3,0.5,0.7,0.5,1.2c0,0.4-0.2,0.8-0.5,1.2
		c-0.2,0.2-0.2,0.5,0,0.7s0.5,0.2,0.7,0c0.1-0.1,0.2-0.2,0.3-0.3l0.1-0.1c0.4-0.4,0.9-0.6,1.4-0.6s1,0.2,1.4,0.6
		c0.4,0.4,0.6,0.9,0.6,1.4s-0.2,1-0.6,1.4c-0.2,0.2-0.2,0.5,0,0.7l0,0l0,0c0.2,0.2,0.5,0.2,0.7,0c0.4-0.4,0.9-0.6,1.4-0.6
		s1,0.2,1.4,0.6c0.3,0.3,0.4,0.6,0.5,1l0,0.1c0,0.1,0,0.2,0,0.3c0,0.4-0.2,0.9-0.5,1.2c-0.5-0.4-1.1-0.6-1.7-0.6
		c-0.4,0-0.9,0.1-1.3,0.3c-0.1-0.5-0.4-1-0.8-1.4c-0.6-0.6-1.3-0.9-2.1-0.9c-0.3,0-0.5,0.1-0.8,0.1l0-0.2c0-0.3-0.1-0.7-0.2-1l0.2,0
		c0.7,0,1.4-0.3,2-0.8c0.2-0.2,0.2-0.5,0-0.7s-0.5-0.2-0.7,0c-0.4,0.4-0.8,0.5-1.3,0.5s-0.9-0.2-1.3-0.5c-0.1-0.1-0.3-0.2-0.4-0.1
		c-0.4-0.2-0.8-0.3-1.3-0.3l0,0C3.7,15.8,4.5,14,5.4,12.3z M9.8,16.6C9.6,16.3,9.3,16.2,9,16c0.4-0.1,0.8-0.4,1.1-0.7
		c0.6-0.6,0.9-1.4,0.9-2.2l0,0l0.2-0.1c0.4-0.4,0.9-0.6,1.4-0.6s1,0.2,1.4,0.6c0.4,0.4,0.6,0.9,0.6,1.4c0,0.3-0.1,0.7-0.3,1
		c-0.5-0.4-1.1-0.6-1.7-0.5c-0.7,0-1.5,0.3-2.1,0.9c-0.2,0.2-0.2,0.5,0,0.7s0.5,0.2,0.7,0c0.4-0.4,0.9-0.6,1.4-0.6s1,0.2,1.4,0.6
		s0.6,0.9,0.6,1.4c0,0.5-0.2,1-0.5,1.3l0,0c-0.3,0.3-0.5,0.6-0.6,0.9l0,0c-0.6-0.6-1.3-0.9-2.1-0.9c-0.2,0-0.4,0-0.6,0.1
		c0-0.2,0.1-0.4,0.1-0.6C10.7,17.9,10.4,17.2,9.8,16.6z M15.4,17.2c0.1,0.1,0.2,0.2,0.3,0.3c-0.1,0.1-0.2,0.2-0.3,0.2v0
		C15.4,17.6,15.4,17.4,15.4,17.2z M1.3,25.1c0.3-0.6,1-1.1,1.7-1.1C4.1,24,5,24.8,5,25.9c0,0.3,0.2,0.5,0.5,0.5S6,26.2,6,25.9
		C6,24.3,4.7,23,3.1,23c-0.5,0-1,0.2-1.5,0.4c0.3-1.6,0.7-3.1,1.1-4.5c0.1,0,0.2,0,0.4,0c0.5,0,1,0.2,1.4,0.6
		C4.8,19.7,5,20.2,5,20.7c0,0.3-0.1,0.6-0.2,0.8l-0.1,0.1c-0.1,0.1-0.1,0.2-0.1,0.3l-0.2,0.2c-0.2,0.2-0.2,0.5,0,0.7s0.5,0.2,0.7,0
		c0.2-0.2,0.3-0.4,0.4-0.6c0.4-0.3,0.8-0.4,1.2-0.4c0.5,0,1,0.2,1.4,0.6c0.4,0.4,0.6,0.9,0.6,1.4c0,0.5-0.2,1-0.6,1.4
		c-0.2,0.2-0.2,0.5,0,0.7s0.5,0.2,0.7,0c0.4-0.4,0.7-1,0.8-1.5c0.4-0.3,0.8-0.5,1.3-0.5c0.5,0,1,0.2,1.4,0.6
		c0.4,0.4,0.6,0.9,0.6,1.4s-0.2,1-0.6,1.4l-0.1,0.1c-0.7,0.5-1.1,1.3-1.1,2.3c0,1.1-0.9,1.9-1.9,1.9c-0.9,0-1.7-0.6-1.9-1.5
		c1.3-0.3,2.4-1.4,2.4-2.9c0-0.3-0.2-0.5-0.5-0.5s-0.5,0.2-0.5,0.5c0,1.1-0.9,1.9-1.9,1.9c-1.1,0-1.9-0.9-1.9-1.9
		c0-0.3-0.2-0.5-0.5-0.5s-0.5,0.2-0.5,0.5c0,0.6,0.2,1.1,0.5,1.6c-0.4,0.1-0.8,0.2-1.1,0.4c-0.4-0.8-1.1-1.4-2.1-1.6
		C1.2,26.6,1.2,25.8,1.3,25.1z M7.8,31.9l-0.1,0l0-0.1L7.8,31.9z M1,30.3c0-0.7,0-1.3,0-1.9c0.8,0.2,1.4,1,1.4,1.8
		c0,0.9-0.6,1.6-1.4,1.8C1,31.4,1,30.9,1,30.3z M7.2,42.5c0,0.6,0.2,1.2,0.5,1.6c-0.4,0.5-0.6,1.1-0.6,1.7l0,0.1
		c-0.7-0.7-1.3-1.4-1.9-2.1c-1-1.3-1.8-2.7-2.4-4.1c0.4-0.3,0.8-0.5,1.3-0.5c0.5,0,1,0.2,1.4,0.6c0.4,0.4,0.6,0.9,0.6,1.4
		c0,0.5-0.2,1-0.6,1.4c-0.2,0.2-0.2,0.5,0,0.7s0.5,0.2,0.7,0c0.6-0.6,0.9-1.3,0.9-2.1c0-0.7-0.3-1.5-0.9-2.1
		c-0.6-0.6-1.3-0.9-2.1-0.9c-0.6,0-1.2,0.2-1.7,0.6c-0.2-0.5-0.3-0.9-0.5-1.4c0.4,0.2,0.8,0.3,1.2,0.3c0.7,0,1.5-0.3,2.1-0.9
		c0.2-0.2,0.2-0.5,0-0.7s-0.5-0.2-0.7,0c-0.4,0.4-0.9,0.6-1.4,0.6c-0.5,0-1-0.2-1.4-0.6c-0.1-0.1-0.3-0.3-0.4-0.5
		c-0.1-0.3-0.1-0.6-0.2-0.9c-0.1-0.4-0.1-0.7-0.2-1c0-0.2,0-0.4,0-0.6c0.3,0,0.5-0.1,0.7-0.3L2,32.7c0.9-0.5,1.4-1.4,1.4-2.5l0-0.2
		c0.4-0.4,0.8-0.5,1.3-0.5c0.5,0,1,0.2,1.4,0.6s0.6,0.9,0.6,1.4c0,0.5-0.2,1-0.5,1.3l0,0c-0.2,0.2-0.2,0.5,0,0.7l0,0l0,0
		c0.2,0.2,0.5,0.2,0.7,0l0,0c0.4-0.4,0.8-0.5,1.3-0.5c0.5,0,1,0.2,1.4,0.6c0.4,0.4,0.6,0.9,0.6,1.4c0,0.3-0.1,0.5-0.2,0.8
		c-0.1,0.2-0.2,0.4-0.4,0.6l-0.1,0.1c-0.1,0.2-0.1,0.4,0.1,0.6c0.2,0.2,0.5,0.2,0.7,0c0.4,0.2,0.9,0.4,1.4,0.4
		c0.6,0,1.2-0.2,1.7-0.6c0,0.4,0.2,0.8,0.4,1.2c-0.4,0.5-0.6,1.1-0.6,1.8c0,0.6,0.2,1.2,0.5,1.6c-0.4,0.5-0.6,1.1-0.6,1.7
		c0,0.3,0.1,0.6,0.2,0.9c-0.3-0.1-0.7-0.2-1-0.2c-0.7,0-1.4,0.3-1.9,0.8l-0.1,0c-0.5,0-1-0.2-1.4-0.6c-0.4-0.4-0.6-0.9-0.6-1.4
		c0-0.5,0.2-1,0.6-1.4c0.2-0.2,0.2-0.5,0-0.7s-0.5-0.2-0.7,0C7.5,41,7.2,41.7,7.2,42.5z M11,48.6c0.1-0.1,0.3-0.1,0.4-0.2
		c0.1,0.2,0.1,0.3,0.2,0.5C11.4,48.8,11.2,48.7,11,48.6z M14.2,49.4c-1.1,0-1.9-0.9-1.9-1.9c0-0.3-0.2-0.5-0.5-0.5
		c-0.2,0-0.3,0.1-0.4,0.2c-0.4,0.3-0.8,0.5-1.3,0.5c-0.4,0-0.7-0.1-1-0.3l-0.1,0c-0.1-0.1-0.2-0.1-0.3-0.2c-0.4-0.4-0.6-0.9-0.6-1.4
		c0-0.3,0.1-0.7,0.3-1c0.5,0.4,1.1,0.6,1.7,0.6c0.7,0,1.4-0.3,1.9-0.8l0.1,0c0.5,0,1,0.2,1.4,0.6c0.4,0.4,0.6,0.9,0.6,1.4
		s-0.2,1-0.6,1.4c-0.2,0.2-0.2,0.5,0,0.7s0.5,0.2,0.7,0c0.6-0.6,0.9-1.3,0.9-2.1c0-0.3-0.1-0.6-0.2-0.9c0.3,0.1,0.7,0.2,1,0.2
		c0.7,0,1.4-0.3,1.9-0.7c0.5,0.4,1,0.6,1.6,0.7c0,0.2,0.1,0.3,0.1,0.5c0,0.5-0.2,1-0.6,1.4c-0.4,0.4-0.9,0.6-1.4,0.6
		c-0.2,0-0.4,0-0.6-0.1c0-0.2,0.1-0.4,0.1-0.6c0-0.3-0.2-0.5-0.5-0.5s-0.5,0.2-0.5,0.5l0,0.1c0,0.4-0.1,0.7-0.3,1
		C15.4,49.1,14.8,49.4,14.2,49.4z M17.3,41c-0.4,0.3-0.8,0.5-1.3,0.5c-0.5,0-1-0.2-1.4-0.6c-0.4-0.4-0.6-0.9-0.6-1.4
		c0-0.3,0.1-0.7,0.3-1c0.5,0.5,1.2,0.7,1.9,0.7c0.2,0,0.5,0,0.7-0.1c0,0.1,0,0.3,0,0.4C16.9,40.1,17.1,40.5,17.3,41z M14.3,41.9
		c0.5,0.4,1.1,0.6,1.7,0.6c0.3,0,0.6-0.1,0.9-0.2c0,0.2-0.1,0.4-0.1,0.6c0,0.5,0.1,1,0.4,1.4c-0.4,0.3-0.8,0.5-1.3,0.5
		c-0.5,0-1-0.2-1.4-0.6c-0.4-0.4-0.6-0.9-0.6-1.4C14,42.6,14.1,42.2,14.3,41.9z M21.3,44.2v1.2v2.3c0,0.7-0.3,1.3-0.7,1.8
		c-0.4,0.5-1.1,0.7-1.8,0.7c-1.1,0-2.1-0.1-3-0.2c0.4-0.2,0.7-0.6,1-1c0.3,0.1,0.6,0.2,0.9,0.2c0.7,0,1.5-0.3,2.1-0.9
		s0.9-1.3,0.9-2.1c0-0.2,0-0.4-0.1-0.5c-0.1-0.3-0.2-0.6-0.4-0.9c-0.1,0-0.2,0-0.3,0c-0.3,0-0.7-0.1-1-0.3c-0.1-0.1-0.3-0.2-0.4-0.3
		c-0.4-0.4-0.6-0.9-0.6-1.4c0-0.3,0.1-0.7,0.3-1c0.5,0.4,1.1,0.6,1.7,0.6c0.5,0,1-0.1,1.4-0.4L21.3,44.2L21.3,44.2z M21.3,40.9
		L21.3,40.9L21.3,40.9c-0.4,0.4-0.9,0.6-1.4,0.6s-1-0.2-1.4-0.6c-0.4-0.4-0.6-0.9-0.6-1.4c0-0.5,0.2-1,0.6-1.4
		c0.2-0.2,0.2-0.5,0-0.7s-0.5-0.2-0.7,0l-0.2,0.2l0,0c-0.4,0.4-0.9,0.6-1.4,0.6s-1-0.2-1.4-0.6c-0.4-0.4-0.6-0.9-0.6-1.4
		c0-0.4,0.1-0.7,0.3-1.1c0.6,0.4,1.3,0.6,2,0.6c0.1,0,0.3-0.1,0.4-0.2l0.1-0.1c0.4-0.4,1-0.7,1.6-0.7s1.1,0.2,1.6,0.7
		c0.4,0.4,0.7,1,0.7,1.6c0,0.6-0.2,1.1-0.7,1.6c-0.2,0.2-0.2,0.5,0,0.7s0.5,0.2,0.7,0l0.2-0.3h0V40.9z M21.3,35.2L21,35
		c-0.6-0.6-1.5-0.9-2.3-0.9c-0.8,0-1.6,0.3-2.2,0.9c-1-0.1-1.8-0.6-2.2-1.5c0-0.1-0.1-0.2-0.1-0.3c0-0.1-0.1-0.2-0.1-0.3
		c0.7-0.2,1.2-0.9,1.2-1.7c0-0.3-0.2-0.5-0.5-0.5s-0.5,0.2-0.5,0.5c0,0.4-0.4,0.8-0.8,0.8c-0.4,0-0.8-0.4-0.8-0.8
		c0-0.3-0.2-0.5-0.5-0.5s-0.5,0.2-0.5,0.5c0,0.7,0.4,1.3,1,1.6L13,33c0.2,0.2,0.3,0.4,0.4,0.6c0,0.1,0.1,0.2,0.1,0.4
		c0,0.1,0.1,0.3,0.1,0.4c0,0.5-0.2,1-0.6,1.4s-0.9,0.6-1.4,0.6c-0.3,0-0.6-0.1-0.8-0.2c0.2-0.4,0.3-0.8,0.3-1.3
		c0-0.7-0.3-1.5-0.9-2.1c-0.2-0.2-0.4-0.4-0.7-0.5c1.4-0.2,2.5-1.4,2.5-2.9c0-1.1,0.9-1.9,1.9-1.9c1.1,0,1.9,0.9,1.9,1.9l0,0l0,0
		c0,1.7,1.4,3.2,3.2,3.2c0.8,0,1.6-0.3,2.2-0.9h0L21.3,35.2L21.3,35.2z M21.3,15.3L21.3,15.3c-0.2-0.2-0.4-0.3-0.6-0.5
		c0.2-0.1,0.4-0.3,0.5-0.4l0.1-0.1V15.3z"/>
</g>
</svg>
