<svg xmlns="http://www.w3.org/2000/svg" xmlns:xlink="http://www.w3.org/1999/xlink" version="1.1" x="0px" y="0px" viewBox="0 0 100 125" enable-background="new 0 0 100 100" xml:space="preserve"><g><path d="M39.491,63.449c0.184,0.304,0.281,0.645,0.281,0.99c0,0.491-0.186,0.979-0.561,1.354c-0.195,0.195-0.195,0.512,0,0.707   s0.512,0.195,0.707,0c0.568-0.567,0.854-1.316,0.854-2.061c0.001-0.508-0.144-1.014-0.408-1.467l0.262-0.214   c0.195-0.195,0.195-0.512,0-0.707s-0.512-0.195-0.707,0l-0.2,0.163c-0.341,0.261-0.744,0.397-1.155,0.398l-0.229-0.022   l-0.246-0.045c-0.321-0.083-0.627-0.242-0.879-0.494c-0.112-0.112-0.202-0.236-0.28-0.365c-0.184-0.304-0.28-0.645-0.281-0.989   c0.001-0.481,0.182-0.957,0.54-1.329l0.026-0.021c0.195-0.195,0.195-0.512,0-0.707l-0.003-0.002l-0.002-0.003   c-0.195-0.195-0.512-0.195-0.707,0l-0.021,0.026c-0.372,0.358-0.848,0.539-1.329,0.54c-0.492-0.001-0.979-0.187-1.354-0.562   s-0.561-0.862-0.562-1.354c0.001-0.492,0.187-0.98,0.562-1.355c0.195-0.195,0.195-0.512,0-0.707s-0.512-0.195-0.707,0   c-0.568,0.568-0.854,1.317-0.854,2.062c0,0.744,0.286,1.493,0.854,2.062c0.567,0.568,1.317,0.854,2.062,0.854   c0.184,0,0.367-0.018,0.549-0.053c-0.034,0.182-0.053,0.366-0.053,0.55c0,0.508,0.144,1.013,0.408,1.466   c0.124,0.212,0.266,0.415,0.446,0.596l0.198,0.162c0.54,0.452,1.2,0.692,1.863,0.691C38.877,63.612,39.189,63.551,39.491,63.449z"/><path d="M50.582,27.878c-0.904-2.056-2.955-3.493-5.346-3.493c-1.295,0-2.496,0.423-3.465,1.139l-0.009,0.007   c-0.03,0.024-3.256,2.525-6.483,7.413c-0.254,0.384-0.507,0.789-0.759,1.203l-0.033,0.056c-1.395,2.296-2.735,5.043-3.764,8.231   c-0.151,0.47-0.296,0.949-0.433,1.438c-0.461,1.647-0.835,3.401-1.089,5.263c-0.062,0.455-0.114,0.918-0.162,1.386   c-0.049,0.48-0.088,0.968-0.12,1.462c-0.006,0.091-0.012,0.182-0.018,0.273c-0.046,0.788-0.077,1.587-0.077,2.408   c0,0.745,0.027,1.51,0.068,2.282l-0.01,0.049l0.018,0.091c0.021,0.351,0.035,0.698,0.063,1.054l0.003,0.027   c0.359,2.611,1.498,6.933,4.305,10.651c0.919,1.22,2.022,2.371,3.335,3.366c0.17,0.129,0.354,0.246,0.53,0.369   c-0.112-0.084-0.224-0.169-0.325-0.271c0.113,0.114,0.239,0.208,0.366,0.3l-0.041-0.029l0.09,0.075l0.037,0.024l0.011,0.006   l0.052,0.034l0.058,0.032l-0.052-0.036c0.093,0.059,0.189,0.104,0.287,0.151l-0.101-0.038l-0.135-0.077   c0.108,0.073,0.21,0.153,0.321,0.225c2.544,1.617,5.775,2.67,9.831,2.666c1.015,0.001,1.911-0.395,2.541-1.04   c0.199-0.203,0.36-0.437,0.504-0.683v-0.018c0,0,0.499-0.766,0.499-1.484s0-35.485,0-35.485s0.094-5.645,0.094-6.608   C51.174,28.75,50.582,27.878,50.582,27.878z M37.679,31.319c-0.118,0.317-0.191,0.657-0.191,1.015c0,0.208,0.029,0.406,0.072,0.601   c-0.203-0.046-0.408-0.086-0.615-0.086c-0.137,0-0.271,0.02-0.407,0.039C36.923,32.329,37.304,31.81,37.679,31.319z M34.203,36.732   c0.141,0.399,0.36,0.777,0.679,1.095c0.195,0.195,0.512,0.195,0.707,0s0.195-0.512,0-0.707c-0.375-0.375-0.561-0.863-0.561-1.355   c0-0.347,0.098-0.69,0.284-0.995l0.047-0.079c0.067-0.099,0.143-0.193,0.229-0.281c0.376-0.375,0.864-0.561,1.356-0.562   c0.492,0,0.979,0.186,1.354,0.561l0.205,0.118c0.511,0.444,1.169,0.723,1.899,0.723c0.276,0,0.5-0.224,0.5-0.5s-0.224-0.5-0.5-0.5   c-1.058-0.002-1.914-0.858-1.916-1.916c0.002-1.059,0.858-1.915,1.916-1.917c0.276,0,0.5-0.224,0.5-0.5s-0.224-0.5-0.5-0.5   c-0.577,0-1.112,0.173-1.564,0.463c0.576-0.682,1.121-1.284,1.595-1.768c0.588-0.6,1.077-1.051,1.417-1.35   c0.17-0.15,0.303-0.262,0.392-0.335l0.101-0.082l0.024-0.019c0.467-0.344,1.002-0.594,1.575-0.753   c-0.411,0.503-0.668,1.137-0.668,1.837v0.001c-0.407-0.232-0.872-0.376-1.374-0.376c-0.276,0-0.5,0.224-0.5,0.5s0.224,0.5,0.5,0.5   c0.988,0.002,1.789,0.802,1.791,1.791c-0.002,0.989-0.803,1.79-1.791,1.792l-0.205,0.046c-0.446,0.088-0.872,0.305-1.217,0.649   c-0.195,0.195-0.195,0.512,0,0.707s0.512,0.195,0.707,0c0.27-0.269,0.619-0.402,0.973-0.402c0.354,0,0.704,0.133,0.974,0.403   s0.402,0.618,0.402,0.972s-0.134,0.704-0.402,0.974c-0.195,0.195-0.195,0.512,0.001,0.707c0.195,0.195,0.512,0.195,0.707-0.001   c0.312-0.313,0.512-0.697,0.613-1.1c0.486,0.363,1.083,0.586,1.737,0.586c0.276,0,0.5-0.224,0.5-0.5s-0.224-0.5-0.5-0.5   c-1.058-0.002-1.914-0.858-1.916-1.916c0.002-1.059,0.858-1.915,1.916-1.917c0.276,0,0.5-0.224,0.5-0.5s-0.224-0.5-0.5-0.5   c-1.058-0.002-1.914-0.858-1.916-1.916c0.002-1.059,0.858-1.915,1.916-1.917l0.032-0.006c0.94,0.195,1.779,0.661,2.435,1.315   c0.877,0.877,1.417,2.084,1.418,3.422v6.131l-0.025,0.126v0.001c-0.003,1.229-0.999,2.224-2.227,2.227h-0.015l-0.206,0.054   c-0.185,0.075-0.314,0.256-0.312,0.467c0.004,0.274,0.228,0.493,0.501,0.493v0.001c1.206,0.002,2.183,0.979,2.185,2.185   c-0.002,1.204-0.979,2.182-2.183,2.184h-0.008c-0.276,0.003-0.497,0.23-0.494,0.506c0.004,0.275,0.229,0.494,0.502,0.493v0.001   h0.005v0c0.895-0.001,1.699-0.375,2.277-0.971v0.904v4.28v0.429c-0.421-1.009-1.415-1.718-2.576-1.719c-0.276,0-0.5,0.224-0.5,0.5   s0.224,0.5,0.5,0.5c0.988,0.002,1.789,0.803,1.791,1.792c-0.002,0.988-0.803,1.789-1.791,1.791c-0.276,0-0.5,0.224-0.5,0.5   s0.224,0.5,0.5,0.5c1.161-0.001,2.155-0.71,2.576-1.719v1.347v0.592v0.11c-0.061,1.143-0.998,2.054-2.156,2.056   c-1.196-0.002-2.164-0.97-2.166-2.166l-0.009-0.047l0.009-0.048c0-1.61-1.306-2.916-2.916-2.916c-0.115,0-0.225,0.021-0.337,0.034   c0.078-0.267,0.13-0.54,0.13-0.814c0.001-0.556-0.159-1.114-0.477-1.598c0.228-0.247,0.408-0.521,0.534-0.815   c0.159-0.368,0.243-0.759,0.243-1.152c0-0.171-0.02-0.342-0.049-0.511l-0.013-0.073c-0.019-0.106-0.031-0.214-0.031-0.322   c0.001-0.431,0.152-0.854,0.44-1.206c0.011,0.968,0.499,1.81,1.233,2.33c-0.703,0.45-1.172,1.232-1.173,2.129   c0.001,1.398,1.134,2.531,2.532,2.532c0.276,0,0.5-0.224,0.5-0.5s-0.224-0.5-0.5-0.5c-0.846-0.001-1.53-0.687-1.532-1.532   c0.002-0.846,0.687-1.53,1.532-1.532l0.216-0.054l0.104,0.011c0.247,0,0.443-0.182,0.483-0.417l0.017-0.082   c0-0.276-0.224-0.5-0.499-0.5c-1.059,0-1.917-0.858-1.917-1.917c0.002-1.045,0.84-1.891,1.881-1.913l0.035,0.003   c0.276,0,0.5-0.224,0.5-0.5v-0.001l0.001-0.006c0-0.276-0.224-0.5-0.5-0.5l-0.036,0.004c-1.041-0.02-1.879-0.867-1.881-1.913   c0.002-1.058,0.858-1.915,1.917-1.917l0.002,0c1.608-0.002,2.912-1.306,2.913-2.917c-0.001-1.006-0.51-1.892-1.284-2.417   c0.773-0.524,1.282-1.411,1.283-2.417c-0.001-1.61-1.306-2.916-2.916-2.916c-0.276,0-0.5,0.224-0.5,0.5s0.224,0.5,0.5,0.5   c1.058,0.002,1.914,0.858,1.916,1.916c-0.002,1.059-0.858,1.915-1.916,1.917c-0.276,0-0.5,0.224-0.5,0.5s0.224,0.5,0.5,0.5l0,0   h0.001c1.058,0.002,1.914,0.858,1.916,1.916c-0.002,1.059-0.858,1.915-1.916,1.917l-0.002,0c-0.857,0.001-1.621,0.379-2.154,0.969   c-0.14-0.299-0.322-0.583-0.568-0.829c-0.568-0.568-1.317-0.854-2.062-0.854c-0.632,0-1.26,0.218-1.785,0.628   c-0.148-0.395-0.375-0.767-0.692-1.084c-0.195-0.195-0.512-0.195-0.707,0s-0.195,0.512,0,0.707c0.401,0.401,0.6,0.923,0.601,1.449   c-0.001,0.526-0.199,1.048-0.601,1.449s-0.922,0.6-1.448,0.6c-0.526,0-1.048-0.199-1.448-0.6l-0.073-0.049   c-0.116-0.206-0.25-0.404-0.425-0.578c-0.195-0.195-0.512-0.195-0.707,0s-0.195,0.512,0,0.707c0.32,0.32,0.478,0.735,0.479,1.155   c-0.001,0.42-0.158,0.835-0.479,1.155c-0.195,0.195-0.195,0.512,0,0.707s0.512,0.195,0.707,0c0.102-0.101,0.185-0.213,0.266-0.325   l0.148-0.099c0.376-0.375,0.863-0.561,1.355-0.561c0.492,0,0.979,0.186,1.354,0.561c0.376,0.375,0.562,0.864,0.562,1.356   s-0.186,0.979-0.561,1.354c-0.195,0.195-0.195,0.512,0,0.707l0.002,0.001l0.001,0.002c0.195,0.195,0.512,0.195,0.707,0   c0.375-0.375,0.862-0.561,1.354-0.561c0.492,0,0.979,0.186,1.355,0.561c0.274,0.274,0.444,0.609,0.518,0.961L41.9,46.14   c0.019,0.106,0.031,0.213,0.031,0.321c-0.001,0.447-0.162,0.886-0.471,1.244c-0.518-0.389-1.131-0.596-1.746-0.596   c-0.443,0-0.883,0.113-1.29,0.315c-0.118-0.519-0.371-1.014-0.774-1.417c-0.568-0.568-1.317-0.854-2.062-0.854   c-0.271,0-0.54,0.051-0.804,0.126l0.018-0.177c0-0.329-0.065-0.657-0.177-0.972l0.197,0.019c0.713,0,1.431-0.273,1.974-0.817   c0.195-0.195,0.195-0.512,0-0.707s-0.512-0.195-0.707,0c-0.351,0.351-0.807,0.524-1.267,0.524c-0.46,0-0.915-0.174-1.267-0.524   c-0.11-0.111-0.26-0.152-0.405-0.136c-0.4-0.194-0.831-0.303-1.266-0.302l-0.03,0.003C32.536,40.183,33.342,38.365,34.203,36.732z    M38.656,40.978c-0.243-0.244-0.524-0.425-0.82-0.564c0.397-0.148,0.772-0.375,1.091-0.694c0.595-0.594,0.894-1.377,0.894-2.156   l-0.002-0.016l0.231-0.123c0.375-0.375,0.862-0.561,1.354-0.561c0.492,0,0.979,0.186,1.355,0.561   c0.375,0.375,0.561,0.863,0.562,1.356c-0.001,0.347-0.098,0.688-0.283,0.993c-0.505-0.361-1.098-0.551-1.69-0.55   c-0.745,0-1.494,0.286-2.062,0.854c-0.195,0.195-0.195,0.512,0,0.707s0.512,0.195,0.707,0c0.375-0.375,0.863-0.561,1.355-0.561   c0.492,0,0.979,0.186,1.354,0.561c0.375,0.375,0.562,0.863,0.562,1.355c0,0.487-0.184,0.968-0.55,1.342l-0.021,0.014   c-0.269,0.269-0.47,0.58-0.611,0.91l-0.005-0.006c-0.568-0.568-1.317-0.854-2.062-0.854c-0.187,0-0.373,0.018-0.557,0.054   c0.035-0.184,0.053-0.371,0.053-0.557C39.511,42.296,39.225,41.546,38.656,40.978z M44.214,41.624   c0.107,0.1,0.219,0.198,0.341,0.281c-0.105,0.071-0.198,0.157-0.292,0.241v-0.007C44.263,41.966,44.245,41.794,44.214,41.624z    M30.167,49.444c0.311-0.639,0.959-1.082,1.717-1.083c1.059,0.002,1.915,0.858,1.917,1.916c0,0.276,0.224,0.5,0.5,0.5   s0.5-0.224,0.5-0.5c-0.001-1.61-1.306-2.916-2.917-2.916c-0.533,0-1.026,0.154-1.457,0.404c0.284-1.603,0.657-3.117,1.097-4.543   c0.119-0.023,0.239-0.035,0.36-0.035c0.492,0,0.979,0.186,1.354,0.561c0.376,0.375,0.562,0.863,0.562,1.355   c-0.001,0.293-0.075,0.582-0.208,0.85l-0.067,0.055c-0.072,0.072-0.109,0.163-0.128,0.256l-0.158,0.193   c-0.195,0.195-0.195,0.512,0,0.707s0.512,0.195,0.707,0c0.174-0.173,0.312-0.368,0.433-0.57c0.353-0.289,0.776-0.44,1.208-0.441   c0.492,0,0.979,0.186,1.355,0.561c0.375,0.375,0.561,0.864,0.562,1.356c-0.001,0.492-0.187,0.979-0.562,1.354   c-0.195,0.195-0.195,0.512,0,0.707s0.512,0.195,0.707,0c0.436-0.435,0.702-0.976,0.805-1.539c0.361-0.318,0.807-0.483,1.26-0.483   c0.492,0,0.979,0.186,1.354,0.561c0.376,0.375,0.562,0.864,0.562,1.356s-0.186,0.979-0.561,1.354l-0.055,0.082   c-0.662,0.534-1.094,1.343-1.095,2.26c-0.002,1.059-0.858,1.915-1.916,1.917c-0.905-0.002-1.658-0.631-1.859-1.475   c1.344-0.26,2.36-1.439,2.36-2.86c0-0.276-0.224-0.5-0.5-0.5s-0.5,0.223-0.5,0.5c-0.002,1.059-0.858,1.915-1.916,1.917   c-1.059-0.002-1.915-0.858-1.917-1.917c0-0.276-0.224-0.5-0.5-0.5s-0.5,0.223-0.5,0.5c0,0.572,0.172,1.103,0.456,1.553   c-0.399,0.064-0.789,0.205-1.14,0.436c-0.397-0.804-1.145-1.401-2.051-1.576C29.995,50.943,30.07,50.184,30.167,49.444z    M36.599,56.265l-0.142,0.013l0.008-0.086L36.599,56.265z M29.825,54.663c0-0.655,0.02-1.297,0.049-1.93   c0.818,0.219,1.424,0.957,1.426,1.844c-0.002,0.892-0.612,1.633-1.436,1.848C29.838,55.83,29.825,55.241,29.825,54.663z    M36.014,66.859c0,0.575,0.175,1.15,0.514,1.645c-0.373,0.511-0.571,1.112-0.57,1.715l0.01,0.107   c-0.703-0.662-1.336-1.371-1.897-2.111c-0.995-1.314-1.772-2.722-2.375-4.099c0.37-0.35,0.838-0.526,1.312-0.526   c0.492,0,0.979,0.186,1.354,0.561c0.376,0.376,0.562,0.863,0.562,1.355c-0.001,0.491-0.187,0.979-0.562,1.354   c-0.195,0.195-0.195,0.512,0,0.707s0.512,0.195,0.707,0c0.568-0.567,0.854-1.316,0.854-2.061c0-0.745-0.286-1.494-0.855-2.062   c-0.567-0.568-1.316-0.854-2.062-0.854c-0.597-0.001-1.192,0.192-1.7,0.559c-0.182-0.474-0.343-0.936-0.486-1.39   c0.389,0.185,0.801,0.304,1.221,0.303c0.744,0.001,1.494-0.285,2.062-0.854c0.195-0.195,0.195-0.512,0-0.707s-0.512-0.195-0.707,0   c-0.375,0.375-0.862,0.561-1.354,0.562c-0.492-0.001-0.979-0.187-1.355-0.562c-0.149-0.149-0.26-0.32-0.35-0.499   c-0.075-0.315-0.141-0.618-0.197-0.908c-0.071-0.372-0.135-0.729-0.179-1.05c-0.016-0.204-0.022-0.402-0.036-0.604   c0.263-0.05,0.505-0.146,0.736-0.263l0.208-0.103c0.853-0.509,1.43-1.432,1.431-2.497l-0.023-0.233   c0.369-0.352,0.84-0.53,1.316-0.53c0.493,0,0.98,0.186,1.355,0.561s0.562,0.863,0.562,1.355c0,0.48-0.181,0.955-0.538,1.326   l-0.028,0.023c-0.195,0.195-0.195,0.512,0,0.707l0.004,0.003l0.002,0.002c0.195,0.195,0.512,0.195,0.707,0l0.022-0.028   c0.371-0.357,0.846-0.537,1.326-0.537c0.493,0,0.98,0.187,1.355,0.561c0.375,0.376,0.562,0.863,0.562,1.355   c0,0.267-0.06,0.53-0.169,0.777c-0.093,0.208-0.22,0.405-0.392,0.577l-0.091,0.136c-0.091,0.187-0.064,0.416,0.091,0.571   c0.179,0.179,0.454,0.186,0.65,0.037c0.439,0.244,0.923,0.379,1.41,0.378c0.614,0.001,1.227-0.206,1.743-0.594   c0.037,0.406,0.157,0.804,0.364,1.17c-0.397,0.521-0.608,1.14-0.608,1.761c0,0.575,0.175,1.15,0.514,1.645   c-0.373,0.511-0.571,1.112-0.57,1.715c0,0.299,0.059,0.596,0.15,0.884c-0.325-0.12-0.666-0.187-1.008-0.187   c-0.693-0.001-1.385,0.258-1.937,0.751l-0.139,0.014c-0.492,0-0.979-0.186-1.355-0.562c-0.375-0.375-0.561-0.863-0.562-1.355   c0.001-0.492,0.187-0.979,0.562-1.355c0.195-0.195,0.195-0.512,0-0.707s-0.512-0.195-0.707,0   C36.3,65.365,36.014,66.115,36.014,66.859z M39.808,72.971c0.147-0.05,0.289-0.113,0.428-0.188c0.054,0.165,0.119,0.322,0.2,0.473   C40.222,73.164,40.013,73.069,39.808,72.971z M42.999,73.809c-1.058-0.002-1.914-0.858-1.916-1.917c0-0.276-0.224-0.5-0.5-0.5   c-0.175,0-0.32,0.095-0.41,0.229c-0.367,0.341-0.829,0.515-1.299,0.516c-0.354-0.001-0.703-0.101-1.013-0.294L37.793,71.8   c-0.096-0.065-0.188-0.139-0.274-0.225c-0.376-0.376-0.562-0.863-0.562-1.356c0-0.347,0.098-0.688,0.283-0.993   c0.505,0.361,1.097,0.552,1.69,0.551c0.693,0.001,1.385-0.259,1.937-0.751l0.139-0.014c0.493,0,0.98,0.187,1.355,0.561   c0.375,0.376,0.562,0.863,0.562,1.355s-0.186,0.979-0.561,1.354c-0.195,0.195-0.195,0.512,0,0.707s0.512,0.195,0.707,0   c0.568-0.567,0.854-1.317,0.854-2.062c0-0.299-0.059-0.595-0.15-0.883c0.326,0.12,0.666,0.187,1.007,0.187   c0.685,0.001,1.365-0.252,1.913-0.731c0.454,0.397,1,0.631,1.565,0.698c0.041,0.159,0.07,0.321,0.07,0.486   c-0.001,0.492-0.187,0.979-0.562,1.355c-0.375,0.375-0.862,0.561-1.354,0.561c-0.192,0-0.381-0.037-0.565-0.094   c0.043-0.198,0.068-0.403,0.068-0.615c0-0.276-0.224-0.5-0.5-0.5s-0.5,0.224-0.5,0.5l-0.005,0.05   c-0.011,0.371-0.123,0.717-0.315,1.006C44.252,73.465,43.667,73.808,42.999,73.809z M46.125,65.366   c-0.366,0.334-0.823,0.506-1.287,0.506c-0.492,0-0.979-0.186-1.355-0.562c-0.375-0.375-0.561-0.863-0.562-1.355   c0.001-0.337,0.095-0.67,0.271-0.969c0.54,0.453,1.201,0.695,1.865,0.694c0.245,0,0.487-0.042,0.727-0.104   c-0.017,0.126-0.036,0.252-0.036,0.378C45.746,64.442,45.881,64.927,46.125,65.366z M43.147,66.321   c0.505,0.361,1.097,0.552,1.69,0.551c0.311,0,0.62-0.062,0.919-0.161c-0.042,0.199-0.067,0.401-0.067,0.604   c0,0.487,0.135,0.972,0.379,1.411c-0.366,0.334-0.823,0.506-1.288,0.507c-0.492-0.001-0.979-0.187-1.354-0.562   c-0.376-0.375-0.562-0.863-0.562-1.356C42.864,66.968,42.961,66.626,43.147,66.321z M50.076,68.595v1.228v2.255   c-0.001,0.713-0.268,1.343-0.713,1.799c-0.446,0.454-1.069,0.738-1.826,0.739c-1.082-0.001-2.091-0.086-3.045-0.229   c0.396-0.238,0.729-0.562,0.975-0.954c0.307,0.105,0.626,0.169,0.946,0.169c0.744,0.001,1.493-0.285,2.062-0.854   s0.854-1.317,0.854-2.062c0-0.181-0.019-0.361-0.052-0.54c-0.062-0.329-0.189-0.646-0.364-0.941   c-0.102,0.016-0.204,0.029-0.307,0.029c-0.343-0.001-0.68-0.097-0.981-0.277c-0.132-0.079-0.26-0.17-0.374-0.284   c-0.375-0.375-0.561-0.863-0.562-1.356c0.001-0.347,0.098-0.688,0.283-0.993c0.506,0.361,1.098,0.552,1.69,0.551   c0.488,0.001,0.974-0.135,1.413-0.38V68.595z M50.081,65.24l-0.039,0.055l-0.023,0.016c-0.376,0.376-0.863,0.562-1.355,0.562   s-0.979-0.186-1.354-0.562c-0.375-0.375-0.562-0.863-0.562-1.355s0.187-0.979,0.562-1.355c0.195-0.195,0.195-0.512,0-0.707   s-0.512-0.195-0.707,0l-0.181,0.221l-0.009,0.006c-0.376,0.376-0.863,0.562-1.355,0.562s-0.979-0.186-1.354-0.562   c-0.375-0.375-0.562-0.863-0.562-1.355c0-0.373,0.108-0.742,0.323-1.063c0.573,0.405,1.269,0.649,2.023,0.649   c0.141,0,0.267-0.059,0.357-0.151l0.149-0.1c0.438-0.438,1.008-0.655,1.582-0.655s1.145,0.218,1.582,0.655   c0.438,0.438,0.655,1.008,0.655,1.582s-0.218,1.144-0.655,1.581c-0.195,0.195-0.195,0.512,0,0.707s0.512,0.195,0.707,0l0.211-0.258   h0.005V65.24z M50.081,59.574l-0.216-0.183c-0.63-0.632-1.462-0.949-2.289-0.948c-0.799-0.001-1.599,0.303-2.221,0.893   c-0.969-0.053-1.792-0.646-2.166-1.489c-0.033-0.11-0.063-0.222-0.109-0.327c-0.026-0.092-0.051-0.184-0.066-0.279   c0.719-0.23,1.242-0.896,1.242-1.691c0-0.276-0.224-0.5-0.5-0.5s-0.5,0.224-0.5,0.5c-0.001,0.433-0.352,0.783-0.784,0.784   c-0.433-0.001-0.783-0.352-0.784-0.784c0-0.276-0.224-0.5-0.5-0.5s-0.5,0.224-0.5,0.5c0.001,0.689,0.396,1.28,0.968,1.578   l0.121,0.221c0.165,0.165,0.287,0.355,0.379,0.555c0.039,0.12,0.072,0.24,0.123,0.354c0.035,0.146,0.059,0.296,0.059,0.446   c0,0.491-0.186,0.979-0.561,1.354s-0.862,0.561-1.354,0.561c-0.28,0-0.557-0.067-0.813-0.188c0.201-0.406,0.314-0.846,0.313-1.288   c0.001-0.745-0.286-1.494-0.854-2.062c-0.199-0.199-0.425-0.351-0.66-0.48c1.418-0.197,2.514-1.402,2.514-2.876   c0.002-1.058,0.858-1.914,1.917-1.916c1.058,0.002,1.914,0.858,1.916,1.916l0.01,0.048l-0.01,0.047   c0.001,1.749,1.417,3.166,3.166,3.166c0.835,0,1.59-0.33,2.156-0.858h0.005V59.574z M50.081,39.703l-0.013-0.013   c-0.171-0.176-0.362-0.33-0.57-0.462c0.19-0.116,0.366-0.251,0.528-0.402l0.055-0.055V39.703z"/></g><text x="0" y="115" fill="#000000" font-size="5px" font-weight="bold" font-family="'Helvetica Neue', Helvetica, Arial-Unicode, Arial, Sans-serif">Created by Phil Smith</text><text x="0" y="120" fill="#000000" font-size="5px" font-weight="bold" font-family="'Helvetica Neue', Helvetica, Arial-Unicode, Arial, Sans-serif">from the Noun Project</text></svg>