<?xml version="1.0" encoding="utf-8"?>
<!-- Generator: Adobe Illustrator 22.0.1, SVG Export Plug-In . SVG Version: 6.00 Build 0)  -->
<svg version="1.1" id="Layer_1" xmlns="http://www.w3.org/2000/svg" xmlns:xlink="http://www.w3.org/1999/xlink" x="0px" y="0px"
	 viewBox="0 0 22.3 51.2" style="enable-background:new 0 0 22.3 51.2;" xml:space="preserve">
<g>
	<path d="M11.7,39.1c-0.2,0.3-0.3,0.6-0.3,1c0,0.5,0.2,1,0.6,1.4c0.2,0.2,0.2,0.5,0,0.7s-0.5,0.2-0.7,0c-0.6-0.6-0.9-1.3-0.9-2.1
		c0-0.5,0.1-1,0.4-1.5l-0.3-0.2c-0.2-0.2-0.2-0.5,0-0.7s0.5-0.2,0.7,0l0.2,0.2c0.3,0.3,0.7,0.4,1.2,0.4l0.2,0l0.2,0
		c0.3-0.1,0.6-0.2,0.9-0.5c0.1-0.1,0.2-0.2,0.3-0.4c0.2-0.3,0.3-0.6,0.3-1c0-0.5-0.2-1-0.5-1.3l0,0c-0.2-0.2-0.2-0.5,0-0.7l0,0l0,0
		c0.2-0.2,0.5-0.2,0.7,0l0,0c0.4,0.4,0.8,0.5,1.3,0.5c0.5,0,1-0.2,1.4-0.6s0.6-0.9,0.6-1.4c0-0.5-0.2-1-0.6-1.4
		c-0.2-0.2-0.2-0.5,0-0.7s0.5-0.2,0.7,0c0.6,0.6,0.9,1.3,0.9,2.1c0,0.7-0.3,1.5-0.9,2.1s-1.3,0.9-2.1,0.9c-0.2,0-0.4,0-0.5-0.1
		c0,0.2,0.1,0.4,0.1,0.6c0,0.5-0.1,1-0.4,1.5c-0.1,0.2-0.3,0.4-0.4,0.6l-0.2,0.2c-0.5,0.5-1.2,0.7-1.9,0.7
		C12.3,39.2,12,39.2,11.7,39.1z"/>
	<path d="M0,5.9c0,1,0.1,6.6,0.1,6.6s0,34.8,0,35.5s0.5,1.5,0.5,1.5v0c0.1,0.2,0.3,0.5,0.5,0.7c0.6,0.6,1.5,1,2.5,1
		c4.1,0,7.3-1,9.8-2.7c0.1-0.1,0.2-0.2,0.3-0.2l-0.1,0.1l-0.1,0c0.1,0,0.2-0.1,0.3-0.2l-0.1,0l0.1,0l0.1,0l0,0l0,0l0.1-0.1l0,0
		c0.1-0.1,0.3-0.2,0.4-0.3c-0.1,0.1-0.2,0.2-0.3,0.3c0.2-0.1,0.4-0.2,0.5-0.4c1.3-1,2.4-2.1,3.3-3.4c2.8-3.7,3.9-8,4.3-10.7l0,0
		c0-0.4,0-0.7,0.1-1.1l0-0.1l0,0c0-0.8,0.1-1.5,0.1-2.3c0-0.8,0-1.6-0.1-2.4c0-0.1,0-0.2,0-0.3c0-0.5-0.1-1-0.1-1.5
		c0-0.5-0.1-0.9-0.2-1.4c-0.3-1.9-0.6-3.6-1.1-5.3c-0.1-0.5-0.3-1-0.4-1.4c-1-3.2-2.4-5.9-3.8-8.2l0-0.1c-0.3-0.4-0.5-0.8-0.8-1.2
		c-3.2-4.9-6.5-7.4-6.5-7.4l0,0C8.4,0.4,7.2,0,5.9,0C3.5,0,1.5,1.4,0.6,3.5C0.6,3.5,0,4.4,0,5.9z M14.6,8.5c-0.1,0-0.3,0-0.4,0
		c-0.2,0-0.4,0-0.6,0.1c0-0.2,0.1-0.4,0.1-0.6c0-0.4-0.1-0.7-0.2-1C13.9,7.4,14.3,7.9,14.6,8.5z M19.3,17.8L19.3,17.8
		c-0.5,0-0.9,0.1-1.3,0.3c-0.1,0-0.3,0-0.4,0.1c-0.4,0.4-0.8,0.5-1.3,0.5c-0.5,0-0.9-0.2-1.3-0.5c-0.2-0.2-0.5-0.2-0.7,0
		s-0.2,0.5,0,0.7c0.5,0.5,1.3,0.8,2,0.8l0.2,0c-0.1,0.3-0.2,0.6-0.2,1l0,0.2c-0.3-0.1-0.5-0.1-0.8-0.1c-0.7,0-1.5,0.3-2.1,0.9
		c-0.4,0.4-0.7,0.9-0.8,1.4c-0.4-0.2-0.8-0.3-1.3-0.3c-0.6,0-1.2,0.2-1.7,0.6c-0.3-0.4-0.5-0.8-0.5-1.2c0-0.1,0-0.2,0-0.3l0-0.1
		c0.1-0.4,0.2-0.7,0.5-1c0.4-0.4,0.9-0.6,1.4-0.6s1,0.2,1.4,0.6c0.2,0.2,0.5,0.2,0.7,0v0l0,0c0.2-0.2,0.2-0.5,0-0.7
		c-0.4-0.4-0.6-0.9-0.6-1.4s0.2-1,0.6-1.4c0.4-0.4,0.9-0.6,1.4-0.6c0.5,0,1,0.2,1.4,0.6l0.1,0.1c0.1,0.1,0.2,0.2,0.3,0.3
		c0.2,0.2,0.5,0.2,0.7,0s0.2-0.5,0-0.7c-0.3-0.3-0.5-0.7-0.5-1.2c0-0.4,0.2-0.8,0.5-1.2c0.2-0.2,0.2-0.5,0-0.7s-0.5-0.2-0.7,0
		c-0.2,0.2-0.3,0.4-0.4,0.6l-0.1,0c-0.4,0.4-0.9,0.6-1.4,0.6c-0.5,0-1-0.2-1.4-0.6c-0.4-0.4-0.6-0.9-0.6-1.4s0.2-1,0.6-1.4
		c0.2-0.2,0.2-0.5,0-0.7s-0.5-0.2-0.7,0c-0.3,0.3-0.5,0.7-0.7,1.1c-0.5-0.4-1.2-0.6-1.8-0.6c-0.7,0-1.5,0.3-2.1,0.9
		c-0.2,0.2-0.4,0.5-0.6,0.8c-0.5-0.6-1.3-1-2.2-1h0c-1.1,0-1.9-0.9-1.9-1.9c0-1.1,0.9-1.9,1.9-1.9l0,0l0,0c0.3,0,0.5-0.2,0.5-0.5
		S5.3,7.4,5,7.4c-1.1,0-1.9-0.9-1.9-1.9c0-1.1,0.9-1.9,1.9-1.9c0.3,0,0.5-0.2,0.5-0.5S5.3,2.5,5,2.5c-1.6,0-2.9,1.3-2.9,2.9
		c0,1,0.5,1.9,1.3,2.4c-0.8,0.5-1.3,1.4-1.3,2.4c0,1.6,1.3,2.9,2.9,2.9h0c1.1,0,1.9,0.9,1.9,1.9c0,1-0.8,1.9-1.9,1.9l0,0
		c-0.3,0-0.5,0.2-0.5,0.5l0,0v0C4.5,17.8,4.7,18,5,18l0,0c1,0,1.9,0.9,1.9,1.9C6.9,21,6,21.9,5,21.9c-0.3,0-0.5,0.2-0.5,0.5l0,0.1
		c0,0.2,0.2,0.4,0.5,0.4l0.1,0l0.2,0.1c0.8,0,1.5,0.7,1.5,1.5c0,0.8-0.7,1.5-1.5,1.5c-0.3,0-0.5,0.2-0.5,0.5S5,27,5.3,27
		c1.4,0,2.5-1.1,2.5-2.5c0-0.9-0.5-1.7-1.2-2.1c0.7-0.5,1.2-1.4,1.2-2.3c0.3,0.4,0.4,0.8,0.4,1.2c0,0.1,0,0.2,0,0.3l0,0.1
		c0,0.2,0,0.3,0,0.5c0,0.4,0.1,0.8,0.2,1.2C8.6,23.5,8.8,23.8,9,24c-0.3,0.5-0.5,1-0.5,1.6c0,0.3,0.1,0.5,0.1,0.8
		c-0.1,0-0.2,0-0.3,0c-1.6,0-2.9,1.3-2.9,2.9l0,0l0,0c0,1.2-1,2.2-2.2,2.2c-1.2,0-2.1-0.9-2.2-2.1v-0.1v-0.6v-1.3
		c0.4,1,1.4,1.7,2.6,1.7c0.3,0,0.5-0.2,0.5-0.5s-0.2-0.5-0.5-0.5c-1,0-1.8-0.8-1.8-1.8c0-1,0.8-1.8,1.8-1.8c0.3,0,0.5-0.2,0.5-0.5
		s-0.2-0.5-0.5-0.5c-1.2,0-2.2,0.7-2.6,1.7v-0.4v-4.3v-0.9c0.6,0.6,1.4,1,2.3,1l0,0h0v0c0.3,0,0.5-0.2,0.5-0.5
		c0-0.3-0.2-0.5-0.5-0.5h0c-1.2,0-2.2-1-2.2-2.2c0-1.2,1-2.2,2.2-2.2v0c0.3,0,0.5-0.2,0.5-0.5c0-0.2-0.1-0.4-0.3-0.5l-0.2-0.1h0
		c-1.2,0-2.2-1-2.2-2.2v0l0-0.1V5.8c0-1.3,0.5-2.5,1.4-3.4C3.2,1.8,4,1.3,4.9,1.1l0,0C6,1.1,6.9,2,6.9,3C6.9,4.1,6,4.9,5,4.9
		c-0.3,0-0.5,0.2-0.5,0.5S4.7,5.9,5,5.9c1.1,0,1.9,0.9,1.9,1.9C6.9,8.9,6,9.8,5,9.8c-0.3,0-0.5,0.2-0.5,0.5s0.2,0.5,0.5,0.5
		c0.7,0,1.2-0.2,1.7-0.6C6.8,10.6,7,11,7.3,11.3c0.2,0.2,0.5,0.2,0.7,0c0.2-0.2,0.2-0.5,0-0.7c-0.3-0.3-0.4-0.6-0.4-1s0.1-0.7,0.4-1
		s0.6-0.4,1-0.4c0.4,0,0.7,0.1,1,0.4c0.2,0.2,0.5,0.2,0.7,0s0.2-0.5,0-0.7c-0.3-0.3-0.8-0.6-1.2-0.6l-0.2,0c-1,0-1.8-0.8-1.8-1.8
		c0-1,0.8-1.8,1.8-1.8c0.3,0,0.5-0.2,0.5-0.5S9.5,2.6,9.3,2.6c-0.5,0-1,0.1-1.4,0.4v0c0-0.7-0.3-1.3-0.7-1.8
		c0.6,0.2,1.1,0.4,1.6,0.8l0,0L8.9,2C9,2.1,9.2,2.2,9.3,2.4c0.3,0.3,0.8,0.8,1.4,1.4c0.5,0.5,1,1.1,1.6,1.8c-0.5-0.3-1-0.5-1.6-0.5
		c-0.3,0-0.5,0.2-0.5,0.5S10.5,6,10.8,6c1.1,0,1.9,0.9,1.9,1.9c0,1.1-0.9,1.9-1.9,1.9c-0.3,0-0.5,0.2-0.5,0.5s0.2,0.5,0.5,0.5
		c0.7,0,1.4-0.3,1.9-0.7l0.2-0.1c0.4-0.4,0.9-0.6,1.4-0.6s1,0.2,1.4,0.6c0.1,0.1,0.2,0.2,0.2,0.3l0,0.1c0.2,0.3,0.3,0.6,0.3,1
		c0,0.5-0.2,1-0.6,1.4c-0.2,0.2-0.2,0.5,0,0.7s0.5,0.2,0.7,0c0.3-0.3,0.5-0.7,0.7-1.1C17.8,14,18.6,15.8,19.3,17.8z M11.7,18.7
		c0,0.2,0,0.4,0.1,0.6c-0.2,0-0.4-0.1-0.6-0.1c-0.7,0-1.5,0.3-2.1,0.9l0,0c-0.1-0.3-0.3-0.6-0.6-0.9l0,0c-0.4-0.4-0.5-0.9-0.5-1.3
		c0-0.5,0.2-1,0.6-1.4s0.9-0.6,1.4-0.6s1,0.2,1.4,0.6c0.2,0.2,0.5,0.2,0.7,0s0.2-0.5,0-0.7c-0.6-0.6-1.3-0.9-2.1-0.9
		c-0.6,0-1.2,0.2-1.7,0.5c-0.2-0.3-0.3-0.6-0.3-1c0-0.5,0.2-1,0.6-1.4c0.4-0.4,0.9-0.6,1.4-0.6s1,0.2,1.4,0.6l0.2,0.1l0,0
		c0,0.8,0.3,1.6,0.9,2.2c0.3,0.3,0.7,0.5,1.1,0.7c-0.3,0.1-0.6,0.3-0.8,0.6C11.9,17.2,11.7,17.9,11.7,18.7z M6.9,17.8L6.9,17.8
		c-0.1-0.1-0.2-0.2-0.3-0.2c0.1-0.1,0.2-0.2,0.3-0.3C6.9,17.4,6.9,17.6,6.9,17.8z M21.2,27.3c-0.9,0.2-1.7,0.8-2.1,1.6
		c-0.3-0.2-0.7-0.4-1.1-0.4c0.3-0.5,0.5-1,0.5-1.6c0-0.3-0.2-0.5-0.5-0.5c-0.3,0-0.5,0.2-0.5,0.5c0,1.1-0.9,1.9-1.9,1.9
		c-1.1,0-1.9-0.9-1.9-1.9c0-0.3-0.2-0.5-0.5-0.5c-0.3,0-0.5,0.2-0.5,0.5c0,1.4,1,2.6,2.4,2.9c-0.2,0.8-1,1.5-1.9,1.5
		c-1.1,0-1.9-0.9-1.9-1.9c0-0.9-0.4-1.7-1.1-2.3L10.1,27c-0.4-0.4-0.6-0.9-0.6-1.4s0.2-1,0.6-1.4c0.4-0.4,0.9-0.6,1.4-0.6
		c0.5,0,0.9,0.2,1.3,0.5c0.1,0.6,0.4,1.1,0.8,1.5c0.2,0.2,0.5,0.2,0.7,0s0.2-0.5,0-0.7c-0.4-0.4-0.6-0.9-0.6-1.4
		c0-0.5,0.2-1,0.6-1.4c0.4-0.4,0.9-0.6,1.4-0.6c0.4,0,0.9,0.2,1.2,0.4c0.1,0.2,0.3,0.4,0.4,0.6c0.2,0.2,0.5,0.2,0.7,0s0.2-0.5,0-0.7
		l-0.2-0.2c0-0.1-0.1-0.2-0.1-0.3l-0.1-0.1c-0.1-0.3-0.2-0.6-0.2-0.8c0-0.5,0.2-1,0.6-1.4c0.4-0.4,0.9-0.6,1.4-0.6
		c0.1,0,0.2,0,0.4,0c0.4,1.4,0.8,2.9,1.1,4.5c-0.4-0.2-0.9-0.4-1.5-0.4c-1.6,0-2.9,1.3-2.9,2.9c0,0.3,0.2,0.5,0.5,0.5
		c0.3,0,0.5-0.2,0.5-0.5c0-1.1,0.9-1.9,1.9-1.9c0.8,0,1.4,0.4,1.7,1.1C21.1,25.8,21.2,26.6,21.2,27.3z M14.7,31.8L14.7,31.8
		l-0.1,0.1L14.7,31.8z M21.3,32c-0.8-0.2-1.4-1-1.4-1.8c0-0.9,0.6-1.6,1.4-1.8c0,0.6,0,1.3,0,1.9C21.3,30.9,21.3,31.4,21.3,32z
		 M14.3,40.4c-0.2-0.2-0.5-0.2-0.7,0s-0.2,0.5,0,0.7c0.4,0.4,0.6,0.9,0.6,1.4s-0.2,1-0.6,1.4c-0.4,0.4-0.9,0.6-1.4,0.6l-0.1,0
		c-0.6-0.5-1.2-0.8-1.9-0.8c-0.3,0-0.7,0.1-1,0.2c0.1-0.3,0.2-0.6,0.2-0.9c0-0.6-0.2-1.2-0.6-1.7c0.3-0.5,0.5-1.1,0.5-1.6
		c0-0.6-0.2-1.2-0.6-1.8C8.9,37.4,9,37,9,36.6c0.5,0.4,1.1,0.6,1.7,0.6c0.5,0,1-0.1,1.4-0.4c0.2,0.1,0.5,0.1,0.7,0
		c0.2-0.2,0.2-0.4,0.1-0.6l-0.1-0.1c-0.2-0.2-0.3-0.4-0.4-0.6c-0.1-0.2-0.2-0.5-0.2-0.8c0-0.5,0.2-1,0.6-1.4
		c0.4-0.4,0.9-0.6,1.4-0.6c0.5,0,1,0.2,1.3,0.5l0,0c0.2,0.2,0.5,0.2,0.7,0l0,0l0,0c0.2-0.2,0.2-0.5,0-0.7l0,0
		c-0.4-0.4-0.5-0.8-0.5-1.3c0-0.5,0.2-1,0.6-1.4s0.9-0.6,1.4-0.6c0.5,0,0.9,0.2,1.3,0.5l0,0.2c0,1.1,0.6,2,1.4,2.5l0.2,0.1
		c0.2,0.1,0.5,0.2,0.7,0.3c0,0.2,0,0.4,0,0.6c0,0.3-0.1,0.7-0.2,1c-0.1,0.3-0.1,0.6-0.2,0.9c-0.1,0.2-0.2,0.3-0.3,0.5
		c-0.4,0.4-0.9,0.6-1.4,0.6c-0.5,0-1-0.2-1.4-0.6c-0.2-0.2-0.5-0.2-0.7,0s-0.2,0.5,0,0.7c0.6,0.6,1.3,0.9,2.1,0.9
		c0.4,0,0.8-0.1,1.2-0.3c-0.1,0.5-0.3,0.9-0.5,1.4c-0.5-0.4-1.1-0.6-1.7-0.6c-0.7,0-1.5,0.3-2.1,0.9c-0.6,0.6-0.9,1.3-0.9,2.1
		c0,0.7,0.3,1.5,0.9,2.1c0.2,0.2,0.5,0.2,0.7,0s0.2-0.5,0-0.7c-0.4-0.4-0.6-0.9-0.6-1.4c0-0.5,0.2-1,0.6-1.4
		c0.4-0.4,0.9-0.6,1.4-0.6c0.5,0,0.9,0.2,1.3,0.5c-0.6,1.4-1.4,2.8-2.4,4.1c-0.6,0.7-1.2,1.4-1.9,2.1l0-0.1c0-0.6-0.2-1.2-0.6-1.7
		c0.3-0.5,0.5-1.1,0.5-1.6C15.2,41.7,14.9,41,14.3,40.4z M10.7,48.9c0.1-0.2,0.1-0.3,0.2-0.5c0.1,0.1,0.3,0.1,0.4,0.2
		C11.2,48.7,11,48.8,10.7,48.9z M6.6,48.6c-0.2-0.3-0.3-0.6-0.3-1l0-0.1C6.3,47.2,6,47,5.8,47c-0.3,0-0.5,0.2-0.5,0.5
		c0,0.2,0,0.4,0.1,0.6c-0.2,0.1-0.4,0.1-0.6,0.1c-0.5,0-1-0.2-1.4-0.6c-0.4-0.4-0.6-0.9-0.6-1.4c0-0.2,0-0.3,0.1-0.5
		c0.6-0.1,1.1-0.3,1.6-0.7c0.5,0.5,1.2,0.7,1.9,0.7c0.3,0,0.7-0.1,1-0.2c-0.1,0.3-0.2,0.6-0.2,0.9c0,0.7,0.3,1.5,0.9,2.1
		c0.2,0.2,0.5,0.2,0.7,0s0.2-0.5,0-0.7c-0.4-0.4-0.6-0.9-0.6-1.4s0.2-1,0.6-1.4c0.4-0.4,0.9-0.6,1.4-0.6l0.1,0
		c0.6,0.5,1.2,0.8,1.9,0.8c0.6,0,1.2-0.2,1.7-0.6c0.2,0.3,0.3,0.6,0.3,1c0,0.5-0.2,1-0.6,1.4c-0.1,0.1-0.2,0.2-0.3,0.2l-0.1,0
		c-0.3,0.2-0.7,0.3-1,0.3c-0.5,0-0.9-0.2-1.3-0.5c-0.1-0.1-0.2-0.2-0.4-0.2c-0.3,0-0.5,0.2-0.5,0.5c0,1.1-0.9,1.9-1.9,1.9
		C7.5,49.4,6.9,49.1,6.6,48.6z M5.4,39.6c0-0.1,0-0.3,0-0.4c0.2,0.1,0.5,0.1,0.7,0.1c0.7,0,1.3-0.2,1.9-0.7c0.2,0.3,0.3,0.6,0.3,1
		c0,0.5-0.2,1-0.6,1.4c-0.4,0.4-0.9,0.6-1.4,0.6c-0.5,0-0.9-0.2-1.3-0.5C5.3,40.5,5.4,40.1,5.4,39.6z M8.3,42.9c0,0.5-0.2,1-0.6,1.4
		s-0.9,0.6-1.4,0.6c-0.5,0-0.9-0.2-1.3-0.5c0.2-0.4,0.4-0.9,0.4-1.4c0-0.2,0-0.4-0.1-0.6c0.3,0.1,0.6,0.2,0.9,0.2
		c0.6,0,1.2-0.2,1.7-0.6C8.2,42.2,8.3,42.6,8.3,42.9z M1.1,42.1c0.4,0.2,0.9,0.4,1.4,0.4c0.6,0,1.2-0.2,1.7-0.6
		c0.2,0.3,0.3,0.6,0.3,1c0,0.5-0.2,1-0.6,1.4c-0.1,0.1-0.2,0.2-0.4,0.3c-0.3,0.2-0.6,0.3-1,0.3c-0.1,0-0.2,0-0.3,0
		c-0.2,0.3-0.3,0.6-0.4,0.9c0,0.2-0.1,0.4-0.1,0.5c0,0.7,0.3,1.5,0.9,2.1s1.3,0.9,2.1,0.9c0.3,0,0.6-0.1,0.9-0.2
		c0.2,0.4,0.6,0.7,1,1c-1,0.1-2,0.2-3,0.2c-0.8,0-1.4-0.3-1.8-0.7c-0.4-0.5-0.7-1.1-0.7-1.8v-2.3v-1.2C1.1,44.2,1.1,42.1,1.1,42.1z
		 M1.1,39.3L1.1,39.3l0.2,0.3c0.2,0.2,0.5,0.2,0.7,0c0.2-0.2,0.2-0.5,0-0.7c-0.4-0.4-0.7-1-0.7-1.6c0-0.6,0.2-1.1,0.7-1.6
		c0.4-0.4,1-0.7,1.6-0.7s1.1,0.2,1.6,0.7l0.1,0.1C5.4,35.9,5.5,36,5.7,36c0.8,0,1.5-0.2,2-0.6C7.9,35.6,8,36,8,36.4
		c0,0.5-0.2,1-0.6,1.4c-0.4,0.4-0.9,0.6-1.4,0.6s-1-0.2-1.4-0.6l0,0l-0.2-0.2c-0.2-0.2-0.5-0.2-0.7,0s-0.2,0.5,0,0.7
		c0.4,0.4,0.6,0.9,0.6,1.4s-0.2,1-0.6,1.4c-0.4,0.4-0.9,0.6-1.4,0.6s-1-0.2-1.4-0.6l0,0l0-0.1V39.3z M1.1,31.7L1.1,31.7
		c0.6,0.5,1.3,0.9,2.2,0.9c1.7,0,3.2-1.4,3.2-3.2l0,0l0,0c0-1.1,0.9-1.9,1.9-1.9c1.1,0,1.9,0.9,1.9,1.9c0,1.5,1.1,2.7,2.5,2.9
		c-0.2,0.1-0.5,0.3-0.7,0.5c-0.6,0.6-0.9,1.3-0.9,2.1c0,0.4,0.1,0.9,0.3,1.3c-0.3,0.1-0.5,0.2-0.8,0.2c-0.5,0-1-0.2-1.4-0.6
		s-0.6-0.9-0.6-1.4c0-0.2,0-0.3,0.1-0.4C8.9,33.8,9,33.6,9,33.5c0.1-0.2,0.2-0.4,0.4-0.6l0.1-0.2c0.6-0.3,1-0.9,1-1.6
		c0-0.3-0.2-0.5-0.5-0.5c-0.3,0-0.5,0.2-0.5,0.5c0,0.4-0.4,0.8-0.8,0.8c-0.4,0-0.8-0.4-0.8-0.8c0-0.3-0.2-0.5-0.5-0.5
		c-0.3,0-0.5,0.2-0.5,0.5c0,0.8,0.5,1.5,1.2,1.7c0,0.1,0,0.2-0.1,0.3C8,33.2,8,33.3,8,33.5c-0.4,0.8-1.2,1.4-2.2,1.5
		c-0.6-0.6-1.4-0.9-2.2-0.9c-0.8,0-1.7,0.3-2.3,0.9l-0.2,0.2L1.1,31.7L1.1,31.7z M1.1,14.4L1.1,14.4c0.2,0.2,0.4,0.3,0.6,0.5
		c-0.2,0.1-0.4,0.3-0.6,0.5l0,0V14.4z"/>
</g>
</svg>
