<svg xmlns="http://www.w3.org/2000/svg" xmlns:xlink="http://www.w3.org/1999/xlink" version="1.1" x="0px" y="0px" viewBox="0 0 100 125" enable-background="new 0 0 100 100" xml:space="preserve"><g><path d="M61.027,63.449c-0.184,0.304-0.281,0.645-0.281,0.99c0,0.491,0.186,0.979,0.561,1.354c0.195,0.195,0.195,0.512,0,0.707   s-0.512,0.195-0.707,0c-0.568-0.567-0.854-1.316-0.854-2.061c0-0.508,0.145-1.014,0.408-1.467l-0.262-0.214   c-0.195-0.195-0.195-0.512,0-0.707s0.512-0.195,0.707,0l0.201,0.163c0.34,0.261,0.744,0.397,1.154,0.398l0.23-0.022l0.246-0.045   c0.32-0.083,0.627-0.242,0.879-0.494c0.111-0.112,0.201-0.236,0.279-0.365c0.184-0.304,0.281-0.645,0.281-0.989   c0-0.481-0.182-0.957-0.539-1.329l-0.027-0.021c-0.195-0.195-0.195-0.512,0-0.707l0.004-0.002l0.002-0.003   c0.195-0.195,0.512-0.195,0.707,0l0.021,0.026c0.371,0.358,0.848,0.539,1.328,0.54c0.492-0.001,0.98-0.187,1.355-0.562   s0.561-0.862,0.561-1.354s-0.186-0.98-0.561-1.355c-0.195-0.195-0.195-0.512,0-0.707s0.512-0.195,0.707,0   c0.568,0.568,0.854,1.317,0.854,2.062c0,0.744-0.285,1.493-0.854,2.062s-1.318,0.854-2.062,0.854c-0.184,0-0.367-0.018-0.549-0.053   c0.035,0.182,0.053,0.366,0.053,0.55c0,0.508-0.143,1.013-0.408,1.466c-0.123,0.212-0.266,0.415-0.445,0.596l-0.199,0.162   c-0.539,0.452-1.199,0.692-1.863,0.691C61.641,63.612,61.33,63.551,61.027,63.449z"/><path d="M49.345,30.297c0,0.963,0.094,6.608,0.094,6.608s0,34.767,0,35.485s0.499,1.484,0.499,1.484v0.018   c0.143,0.246,0.305,0.479,0.504,0.683c0.629,0.646,1.525,1.041,2.541,1.04c4.055,0.004,7.287-1.049,9.83-2.666   c0.111-0.071,0.213-0.151,0.322-0.225L63,72.802l-0.102,0.038c0.098-0.047,0.195-0.093,0.287-0.151l-0.051,0.036l0.057-0.032   l0.053-0.034l0.01-0.006l0.037-0.024l0.09-0.075l-0.041,0.029c0.127-0.092,0.254-0.186,0.367-0.3   c-0.102,0.102-0.213,0.187-0.326,0.271c0.178-0.123,0.361-0.24,0.531-0.369c1.312-0.995,2.416-2.146,3.334-3.366   c2.807-3.719,3.945-8.04,4.305-10.651l0.004-0.027c0.027-0.355,0.043-0.703,0.062-1.054l0.018-0.091l-0.01-0.049   c0.041-0.772,0.068-1.537,0.068-2.282c0-0.821-0.031-1.62-0.076-2.408c-0.006-0.092-0.012-0.183-0.018-0.273   c-0.033-0.494-0.072-0.981-0.121-1.462c-0.047-0.468-0.1-0.931-0.162-1.386c-0.254-1.862-0.627-3.616-1.088-5.263   c-0.137-0.488-0.281-0.968-0.434-1.438c-1.027-3.188-2.369-5.936-3.764-8.231l-0.033-0.056c-0.252-0.414-0.504-0.818-0.758-1.203   c-3.229-4.888-6.453-7.389-6.484-7.413l-0.008-0.007c-0.969-0.715-2.17-1.139-3.465-1.139c-2.391,0-4.441,1.438-5.346,3.493   C49.938,27.878,49.345,28.75,49.345,30.297z M63.98,32.888c-0.135-0.019-0.27-0.039-0.406-0.039c-0.207,0-0.412,0.041-0.615,0.086   c0.043-0.194,0.072-0.393,0.072-0.601c0-0.358-0.074-0.698-0.191-1.015C63.215,31.81,63.596,32.329,63.98,32.888z M68.664,42.189   l-0.029-0.003c-0.436,0-0.865,0.108-1.266,0.302c-0.146-0.016-0.295,0.025-0.406,0.136c-0.352,0.351-0.807,0.524-1.266,0.524   c-0.461,0-0.916-0.174-1.268-0.524c-0.195-0.195-0.512-0.195-0.707,0s-0.195,0.512,0,0.707c0.543,0.544,1.262,0.818,1.975,0.817   l0.197-0.019c-0.111,0.315-0.178,0.643-0.178,0.972l0.018,0.177c-0.264-0.076-0.533-0.126-0.803-0.126   c-0.746,0-1.494,0.286-2.062,0.854c-0.404,0.403-0.656,0.898-0.775,1.417c-0.406-0.202-0.846-0.315-1.289-0.315   c-0.615,0-1.229,0.207-1.746,0.596c-0.309-0.358-0.471-0.797-0.471-1.244c0-0.108,0.012-0.215,0.031-0.321l0.012-0.073   c0.074-0.352,0.244-0.687,0.518-0.961c0.377-0.375,0.863-0.561,1.355-0.561c0.492,0,0.98,0.186,1.355,0.561   c0.195,0.195,0.512,0.195,0.707,0v-0.002l0.002-0.001c0.195-0.195,0.195-0.512,0-0.707c-0.375-0.375-0.561-0.862-0.561-1.354   s0.186-0.98,0.562-1.356c0.375-0.375,0.861-0.561,1.354-0.561c0.492,0,0.98,0.186,1.355,0.561l0.148,0.099   c0.082,0.112,0.164,0.224,0.266,0.325c0.195,0.195,0.512,0.195,0.707,0s0.195-0.512,0-0.707c-0.32-0.32-0.477-0.735-0.479-1.155   c0.002-0.42,0.158-0.834,0.479-1.155c0.195-0.195,0.195-0.512,0-0.707s-0.512-0.195-0.707,0c-0.174,0.174-0.309,0.373-0.424,0.578   l-0.074,0.049c-0.4,0.401-0.922,0.6-1.447,0.6c-0.527,0-1.047-0.199-1.449-0.6c-0.4-0.401-0.6-0.923-0.6-1.449   c0-0.526,0.199-1.047,0.6-1.449c0.195-0.195,0.195-0.512,0-0.707s-0.512-0.195-0.707,0c-0.316,0.317-0.543,0.689-0.691,1.084   c-0.525-0.41-1.154-0.628-1.785-0.628c-0.746,0-1.494,0.286-2.062,0.854c-0.246,0.246-0.43,0.53-0.568,0.829   c-0.533-0.59-1.297-0.968-2.154-0.969l-0.002,0c-1.059-0.002-1.914-0.858-1.916-1.917c0.002-1.058,0.857-1.914,1.916-1.916l0,0l0,0   c0.277,0,0.5-0.224,0.5-0.5s-0.223-0.5-0.5-0.5c-1.057-0.002-1.914-0.858-1.916-1.917c0.002-1.058,0.859-1.914,1.916-1.916   c0.277,0,0.5-0.224,0.5-0.5s-0.223-0.5-0.5-0.5c-1.609,0-2.914,1.306-2.916,2.916c0.002,1.006,0.51,1.892,1.283,2.417   c-0.773,0.524-1.283,1.411-1.283,2.417c0,1.61,1.305,2.915,2.912,2.917l0.002,0c1.059,0.002,1.916,0.859,1.918,1.917   c-0.002,1.045-0.84,1.893-1.881,1.913l-0.037-0.004c-0.275,0-0.5,0.224-0.5,0.5l0.002,0.006v0.001c0,0.276,0.223,0.5,0.5,0.5   l0.035-0.003c1.041,0.021,1.879,0.867,1.881,1.913c0,1.058-0.859,1.916-1.918,1.917c-0.275,0-0.498,0.224-0.498,0.5l0.016,0.082   c0.041,0.235,0.236,0.417,0.484,0.417l0.104-0.011l0.215,0.054c0.846,0.001,1.531,0.686,1.533,1.532   c-0.002,0.845-0.688,1.53-1.533,1.532c-0.275,0-0.5,0.224-0.5,0.5s0.225,0.5,0.5,0.5c1.398-0.001,2.531-1.134,2.533-2.532   c-0.002-0.897-0.471-1.68-1.174-2.129c0.734-0.52,1.223-1.362,1.234-2.33c0.287,0.352,0.439,0.774,0.439,1.206   c0,0.108-0.012,0.215-0.031,0.322l-0.012,0.073c-0.029,0.169-0.049,0.34-0.049,0.511c0,0.393,0.084,0.784,0.242,1.152   c0.127,0.294,0.307,0.569,0.535,0.815c-0.318,0.484-0.479,1.042-0.477,1.598c0,0.275,0.051,0.547,0.129,0.814   c-0.111-0.013-0.221-0.034-0.336-0.034c-1.611,0-2.916,1.306-2.916,2.916l0.008,0.048l-0.008,0.047   c-0.002,1.196-0.971,2.164-2.166,2.166c-1.158-0.002-2.096-0.913-2.156-2.056v-0.11v-0.592v-1.347   c0.42,1.009,1.414,1.718,2.576,1.719c0.275,0,0.5-0.224,0.5-0.5s-0.225-0.5-0.5-0.5c-0.988-0.002-1.789-0.803-1.791-1.791   c0.002-0.989,0.803-1.79,1.791-1.792c0.275,0,0.5-0.224,0.5-0.5s-0.225-0.5-0.5-0.5c-1.162,0-2.156,0.71-2.576,1.719v-0.429v-4.28   V44.12c0.578,0.596,1.383,0.97,2.277,0.971v0h0.004v-0.001c0.273,0.001,0.498-0.218,0.502-0.493   c0.004-0.276-0.217-0.503-0.494-0.506h-0.008c-1.203-0.002-2.18-0.979-2.182-2.184c0.002-1.206,0.979-2.183,2.184-2.185v-0.001   c0.273,0,0.498-0.218,0.502-0.493c0.002-0.211-0.129-0.392-0.312-0.467l-0.207-0.054h-0.014c-1.229-0.002-2.225-0.997-2.227-2.227   v-0.001l-0.025-0.126v-6.131c0-1.338,0.541-2.544,1.418-3.422c0.654-0.655,1.494-1.121,2.434-1.315l0.033,0.006   c1.057,0.002,1.914,0.858,1.916,1.917c-0.002,1.058-0.859,1.914-1.916,1.916c-0.277,0-0.5,0.224-0.5,0.5s0.223,0.5,0.5,0.5   c1.057,0.002,1.914,0.858,1.916,1.917c-0.002,1.058-0.859,1.914-1.916,1.916c-0.277,0-0.5,0.224-0.5,0.5s0.223,0.5,0.5,0.5   c0.654,0,1.25-0.223,1.736-0.586c0.102,0.402,0.301,0.786,0.613,1.1c0.195,0.196,0.512,0.196,0.707,0.001   c0.197-0.195,0.197-0.512,0.002-0.707c-0.27-0.27-0.402-0.62-0.402-0.974s0.133-0.703,0.402-0.972s0.619-0.402,0.973-0.403   c0.354,0,0.703,0.133,0.973,0.402c0.195,0.195,0.512,0.195,0.707,0s0.195-0.512,0-0.707c-0.344-0.344-0.77-0.561-1.217-0.649   l-0.205-0.046c-0.988-0.002-1.789-0.803-1.791-1.792c0.002-0.989,0.803-1.789,1.791-1.791c0.277,0,0.5-0.224,0.5-0.5   s-0.223-0.5-0.5-0.5c-0.502,0-0.967,0.144-1.373,0.376V27.41c0-0.7-0.258-1.334-0.668-1.837c0.572,0.16,1.107,0.409,1.574,0.753   l0.025,0.019l0.1,0.082c0.09,0.073,0.223,0.185,0.393,0.335c0.34,0.299,0.828,0.75,1.416,1.35c0.475,0.484,1.02,1.086,1.596,1.768   c-0.453-0.29-0.988-0.463-1.564-0.463c-0.277,0-0.5,0.224-0.5,0.5s0.223,0.5,0.5,0.5c1.057,0.002,1.914,0.858,1.916,1.917   c-0.002,1.058-0.859,1.914-1.916,1.916c-0.277,0-0.5,0.224-0.5,0.5s0.223,0.5,0.5,0.5c0.73,0,1.389-0.279,1.898-0.723l0.205-0.118   c0.375-0.375,0.863-0.561,1.355-0.561c0.492,0,0.98,0.186,1.355,0.562c0.088,0.088,0.162,0.183,0.23,0.281l0.047,0.079   c0.186,0.305,0.283,0.648,0.283,0.995c0,0.492-0.186,0.979-0.561,1.355c-0.195,0.195-0.195,0.512,0,0.707s0.512,0.195,0.707,0   c0.318-0.318,0.539-0.695,0.68-1.095C67.176,38.365,67.982,40.183,68.664,42.189z M61.008,43.041c0,0.187,0.018,0.373,0.053,0.557   c-0.184-0.036-0.369-0.054-0.557-0.054c-0.744,0-1.494,0.286-2.062,0.854l-0.004,0.006c-0.143-0.33-0.344-0.641-0.611-0.91   l-0.021-0.014c-0.365-0.374-0.549-0.855-0.549-1.342c0-0.492,0.186-0.98,0.561-1.355c0.375-0.375,0.863-0.561,1.355-0.561   c0.492,0,0.98,0.186,1.355,0.561c0.195,0.195,0.512,0.195,0.707,0s0.195-0.512,0-0.707c-0.568-0.568-1.318-0.854-2.062-0.854   c-0.594,0-1.186,0.189-1.691,0.55c-0.186-0.304-0.281-0.646-0.283-0.993c0.002-0.493,0.188-0.98,0.562-1.356   c0.375-0.375,0.863-0.561,1.355-0.561c0.492,0,0.979,0.186,1.354,0.561l0.232,0.123l-0.002,0.016c0,0.779,0.299,1.562,0.893,2.156   c0.318,0.319,0.693,0.546,1.092,0.694c-0.297,0.14-0.578,0.321-0.82,0.564C61.293,41.546,61.008,42.296,61.008,43.041z    M56.256,42.139v0.007c-0.094-0.084-0.188-0.169-0.293-0.241c0.123-0.083,0.234-0.181,0.342-0.281   C56.273,41.794,56.256,41.966,56.256,42.139z M70.58,51.717c-0.906,0.175-1.652,0.772-2.051,1.576   c-0.35-0.23-0.74-0.371-1.139-0.436c0.283-0.45,0.455-0.98,0.455-1.553c0-0.276-0.223-0.5-0.5-0.5c-0.275,0-0.5,0.223-0.5,0.5   c-0.002,1.059-0.857,1.915-1.916,1.917c-1.059-0.002-1.914-0.858-1.916-1.917c0-0.276-0.225-0.5-0.5-0.5   c-0.277,0-0.5,0.223-0.5,0.5c0,1.421,1.016,2.601,2.359,2.86c-0.201,0.844-0.953,1.473-1.859,1.475   c-1.057-0.002-1.914-0.858-1.916-1.917c0-0.917-0.432-1.726-1.094-2.26l-0.055-0.082c-0.375-0.375-0.561-0.862-0.561-1.354   s0.186-0.98,0.561-1.356c0.375-0.375,0.863-0.561,1.355-0.561c0.453,0,0.898,0.166,1.26,0.483c0.102,0.563,0.369,1.104,0.805,1.539   c0.195,0.195,0.512,0.195,0.707,0s0.195-0.512,0-0.707c-0.375-0.375-0.561-0.862-0.562-1.354c0.002-0.492,0.188-0.98,0.562-1.356   c0.375-0.375,0.863-0.561,1.355-0.561c0.432,0,0.855,0.152,1.207,0.441c0.121,0.202,0.26,0.396,0.434,0.57   c0.195,0.195,0.512,0.195,0.707,0s0.195-0.512,0-0.707l-0.158-0.193c-0.02-0.093-0.057-0.184-0.129-0.256l-0.066-0.055   c-0.133-0.268-0.207-0.556-0.209-0.85c0.002-0.492,0.188-0.98,0.562-1.355c0.375-0.375,0.863-0.56,1.355-0.561   c0.121,0,0.24,0.012,0.359,0.035c0.439,1.427,0.812,2.94,1.098,4.543c-0.432-0.25-0.924-0.404-1.457-0.404   c-1.611,0-2.916,1.306-2.918,2.916c0,0.276,0.225,0.5,0.5,0.5c0.277,0,0.5-0.224,0.5-0.5c0.002-1.058,0.859-1.914,1.918-1.916   c0.758,0.001,1.406,0.445,1.717,1.083C70.449,50.184,70.523,50.943,70.58,51.717z M64.053,56.191l0.008,0.086l-0.141-0.013   L64.053,56.191z M70.654,56.425c-0.822-0.215-1.434-0.956-1.436-1.848c0.002-0.887,0.607-1.625,1.426-1.844   c0.029,0.633,0.049,1.274,0.049,1.93C70.693,55.241,70.68,55.83,70.654,56.425z M63.65,64.797c-0.195-0.195-0.512-0.195-0.707,0   s-0.195,0.512,0,0.707c0.375,0.376,0.561,0.863,0.561,1.355s-0.186,0.98-0.561,1.355c-0.377,0.376-0.863,0.562-1.355,0.562   l-0.139-0.014c-0.553-0.493-1.244-0.752-1.938-0.751c-0.342,0-0.682,0.066-1.008,0.187c0.092-0.288,0.15-0.585,0.15-0.884   c0.002-0.603-0.197-1.204-0.57-1.715c0.34-0.494,0.514-1.069,0.514-1.645c0-0.621-0.211-1.24-0.607-1.761   c0.207-0.366,0.326-0.764,0.363-1.17c0.518,0.388,1.129,0.595,1.744,0.594c0.486,0.001,0.971-0.134,1.41-0.378   c0.195,0.148,0.471,0.142,0.65-0.037c0.154-0.155,0.182-0.385,0.09-0.571l-0.09-0.136c-0.172-0.172-0.299-0.369-0.393-0.577   c-0.109-0.247-0.168-0.511-0.168-0.777c0-0.492,0.186-0.979,0.561-1.355c0.375-0.374,0.863-0.561,1.355-0.561   c0.48,0,0.955,0.18,1.326,0.537l0.023,0.028c0.195,0.195,0.512,0.195,0.707,0l0.002-0.002l0.004-0.003   c0.195-0.195,0.195-0.512,0-0.707l-0.029-0.023c-0.357-0.371-0.537-0.846-0.537-1.326c0-0.492,0.186-0.98,0.561-1.355   s0.863-0.561,1.355-0.561c0.477,0,0.947,0.179,1.316,0.53l-0.023,0.233c0.002,1.065,0.578,1.988,1.432,2.497l0.207,0.103   c0.232,0.116,0.475,0.213,0.736,0.263c-0.014,0.202-0.02,0.4-0.035,0.604c-0.045,0.32-0.107,0.678-0.18,1.05   c-0.057,0.29-0.121,0.593-0.197,0.908c-0.09,0.179-0.199,0.35-0.35,0.499c-0.375,0.375-0.863,0.561-1.355,0.562   c-0.492-0.001-0.979-0.187-1.354-0.562c-0.195-0.195-0.512-0.195-0.707,0s-0.195,0.512,0,0.707   c0.566,0.568,1.316,0.854,2.061,0.854c0.42,0.001,0.832-0.118,1.221-0.303c-0.143,0.454-0.305,0.916-0.486,1.39   c-0.508-0.366-1.104-0.56-1.699-0.559c-0.746-0.001-1.494,0.285-2.062,0.854s-0.855,1.317-0.855,2.062   c0,0.744,0.287,1.493,0.855,2.061c0.195,0.195,0.512,0.195,0.707,0s0.195-0.512,0-0.707c-0.375-0.375-0.561-0.862-0.562-1.354   c0.002-0.492,0.188-0.979,0.562-1.355c0.375-0.375,0.863-0.561,1.355-0.561c0.475,0,0.941,0.177,1.312,0.526   c-0.604,1.377-1.381,2.784-2.375,4.099c-0.562,0.74-1.195,1.449-1.898,2.111l0.01-0.107c0.002-0.603-0.197-1.204-0.57-1.715   c0.34-0.494,0.514-1.069,0.514-1.645C64.504,66.115,64.219,65.365,63.65,64.797z M60.082,73.256   c0.082-0.15,0.146-0.308,0.201-0.473c0.139,0.074,0.279,0.138,0.428,0.188C60.506,73.069,60.297,73.164,60.082,73.256z    M55.924,72.947c-0.193-0.289-0.305-0.635-0.316-1.006l-0.004-0.05c0-0.276-0.225-0.5-0.5-0.5c-0.277,0-0.5,0.224-0.5,0.5   c0,0.212,0.025,0.417,0.068,0.615c-0.186,0.057-0.373,0.094-0.566,0.094c-0.492,0-0.979-0.186-1.354-0.561   c-0.375-0.376-0.561-0.863-0.562-1.355c0-0.165,0.029-0.327,0.07-0.486c0.566-0.067,1.111-0.301,1.566-0.698   c0.547,0.479,1.229,0.732,1.912,0.731c0.342,0,0.682-0.066,1.008-0.187c-0.092,0.288-0.15,0.584-0.15,0.883   c-0.002,0.744,0.285,1.494,0.854,2.062c0.195,0.195,0.512,0.195,0.707,0s0.195-0.512,0-0.707c-0.375-0.375-0.561-0.862-0.561-1.354   s0.186-0.979,0.561-1.355c0.375-0.374,0.863-0.561,1.355-0.561l0.139,0.014c0.553,0.492,1.244,0.752,1.938,0.751   c0.594,0.001,1.186-0.189,1.689-0.551c0.186,0.305,0.283,0.646,0.283,0.993c0,0.493-0.186,0.98-0.561,1.356   c-0.086,0.086-0.18,0.159-0.275,0.225l-0.066,0.043c-0.311,0.193-0.66,0.293-1.014,0.294c-0.469-0.001-0.932-0.175-1.299-0.516   c-0.09-0.135-0.234-0.229-0.41-0.229c-0.275,0-0.5,0.224-0.5,0.5c-0.002,1.059-0.857,1.915-1.916,1.917   C56.852,73.808,56.266,73.465,55.924,72.947z M54.771,63.955c0-0.126-0.02-0.252-0.035-0.378c0.238,0.062,0.48,0.104,0.727,0.104   c0.664,0.001,1.324-0.241,1.865-0.694c0.176,0.299,0.27,0.632,0.27,0.969c0,0.492-0.186,0.98-0.561,1.355   c-0.377,0.376-0.863,0.562-1.355,0.562c-0.465,0-0.922-0.172-1.287-0.506C54.637,64.927,54.773,64.442,54.771,63.955z    M57.654,67.314c0,0.493-0.186,0.981-0.561,1.356s-0.863,0.561-1.355,0.562c-0.465-0.001-0.922-0.173-1.287-0.507   c0.244-0.439,0.379-0.924,0.379-1.411c0-0.202-0.025-0.404-0.068-0.604c0.299,0.1,0.609,0.161,0.92,0.161   c0.594,0.001,1.186-0.189,1.689-0.551C57.557,66.626,57.654,66.968,57.654,67.314z M50.443,66.492   c0.439,0.245,0.924,0.381,1.412,0.38c0.594,0.001,1.186-0.189,1.691-0.551c0.186,0.305,0.281,0.646,0.283,0.993   c-0.002,0.493-0.188,0.981-0.562,1.356c-0.113,0.114-0.242,0.205-0.373,0.284c-0.303,0.181-0.639,0.276-0.982,0.277   c-0.102,0-0.205-0.014-0.307-0.029c-0.174,0.296-0.303,0.612-0.363,0.941c-0.033,0.179-0.053,0.359-0.053,0.54   c0,0.745,0.287,1.494,0.855,2.062s1.316,0.854,2.061,0.854c0.32,0,0.641-0.063,0.947-0.169c0.244,0.392,0.578,0.716,0.975,0.954   c-0.955,0.144-1.963,0.229-3.045,0.229c-0.758-0.001-1.381-0.285-1.826-0.739c-0.445-0.456-0.713-1.086-0.713-1.799v-2.255v-1.228   V66.492z M50.438,63.711h0.006l0.211,0.258c0.195,0.195,0.512,0.195,0.707,0s0.195-0.512,0-0.707   c-0.438-0.438-0.656-1.007-0.656-1.581s0.217-1.145,0.656-1.582c0.438-0.438,1.008-0.655,1.582-0.655s1.143,0.218,1.582,0.655   l0.148,0.1c0.092,0.093,0.217,0.151,0.357,0.151c0.756,0,1.451-0.244,2.023-0.649c0.215,0.321,0.324,0.69,0.324,1.063   c0,0.492-0.188,0.98-0.562,1.355c-0.375,0.376-0.861,0.562-1.354,0.562s-0.98-0.186-1.355-0.562l-0.01-0.006l-0.18-0.221   c-0.195-0.195-0.512-0.195-0.707,0s-0.195,0.512,0,0.707c0.375,0.376,0.561,0.863,0.561,1.355s-0.186,0.98-0.561,1.355   c-0.375,0.376-0.863,0.562-1.355,0.562s-0.979-0.186-1.355-0.562l-0.023-0.016l-0.039-0.055V63.711z M50.438,56.125h0.006   c0.566,0.528,1.32,0.858,2.156,0.858c1.748,0,3.164-1.417,3.166-3.166l-0.01-0.047l0.01-0.048c0.002-1.058,0.857-1.914,1.916-1.916   c1.059,0.002,1.914,0.858,1.916,1.916c0,1.474,1.096,2.679,2.514,2.876c-0.234,0.13-0.461,0.281-0.66,0.48   c-0.568,0.568-0.855,1.317-0.854,2.062c-0.002,0.442,0.111,0.882,0.312,1.288c-0.256,0.121-0.533,0.188-0.812,0.188   c-0.492,0-0.98-0.186-1.355-0.561s-0.561-0.863-0.561-1.354c0-0.15,0.023-0.3,0.059-0.446c0.051-0.114,0.084-0.234,0.123-0.354   c0.092-0.199,0.215-0.39,0.379-0.555l0.121-0.221c0.572-0.298,0.967-0.889,0.969-1.578c0-0.276-0.225-0.5-0.5-0.5   c-0.277,0-0.5,0.224-0.5,0.5c-0.002,0.433-0.352,0.783-0.785,0.784c-0.432-0.001-0.783-0.352-0.783-0.784   c0-0.276-0.225-0.5-0.5-0.5c-0.277,0-0.5,0.224-0.5,0.5c0,0.795,0.523,1.461,1.242,1.691c-0.016,0.096-0.041,0.188-0.066,0.279   c-0.047,0.105-0.076,0.217-0.109,0.327c-0.375,0.844-1.197,1.437-2.166,1.489c-0.623-0.59-1.422-0.894-2.221-0.893   c-0.828-0.001-1.66,0.316-2.289,0.948l-0.217,0.183V56.125z M50.438,38.77l0.055,0.055c0.162,0.151,0.338,0.286,0.529,0.402   c-0.209,0.132-0.4,0.287-0.57,0.462l-0.014,0.013V38.77z"/></g><text x="0" y="115" fill="#000000" font-size="5px" font-weight="bold" font-family="'Helvetica Neue', Helvetica, Arial-Unicode, Arial, Sans-serif">Created by Phil Smith</text><text x="0" y="120" fill="#000000" font-size="5px" font-weight="bold" font-family="'Helvetica Neue', Helvetica, Arial-Unicode, Arial, Sans-serif">from the Noun Project</text></svg>