<svg xmlns="http://www.w3.org/2000/svg" xmlns:xlink="http://www.w3.org/1999/xlink" version="1.1" x="0px" y="0px" viewBox="0 0 100 125" enable-background="new 0 0 100 100" xml:space="preserve"><g><g><path fill="none" d="M44.256,66.872c-0.593,0.001-1.186-0.189-1.69-0.551c-0.186,0.305-0.283,0.646-0.283,0.993    c0,0.493,0.186,0.981,0.562,1.356s0.863,0.561,1.355,0.562c0.465-0.001,0.922-0.173,1.288-0.507    c-0.244-0.439-0.379-0.924-0.378-1.411c0-0.202,0.025-0.404,0.067-0.604C44.876,66.811,44.567,66.872,44.256,66.872z"/><path fill="none" d="M39.433,43.544c0.745,0,1.494,0.286,2.062,0.854l0.005,0.006c0.142-0.33,0.343-0.641,0.611-0.91l0.021-0.014    c0.366-0.374,0.55-0.855,0.55-1.342c0-0.492-0.187-0.98-0.562-1.355c-0.375-0.375-0.863-0.561-1.355-0.561    c-0.492,0-0.98,0.186-1.355,0.561c-0.195,0.195-0.512,0.195-0.707,0s-0.195-0.512,0-0.707c0.568-0.568,1.318-0.854,2.062-0.854    c0.593,0,1.186,0.189,1.69,0.55c0.186-0.304,0.283-0.646,0.283-0.993c0-0.493-0.187-0.98-0.562-1.356    c-0.375-0.375-0.863-0.561-1.355-0.561c-0.492,0-0.979,0.186-1.355,0.561l-0.231,0.123l0.001,0.016    c0,0.779-0.298,1.562-0.893,2.156c-0.319,0.319-0.693,0.546-1.091,0.694c0.296,0.14,0.577,0.321,0.821,0.564    c0.569,0.568,0.855,1.318,0.854,2.063c0,0.187-0.018,0.373-0.053,0.557C39.06,43.562,39.247,43.544,39.433,43.544z"/><path fill="none" d="M60.589,40.783c-0.375-0.375-0.863-0.561-1.355-0.561c-0.492,0-0.979,0.186-1.354,0.561    c-0.375,0.375-0.562,0.863-0.562,1.355c0,0.487,0.184,0.968,0.551,1.342l0.02,0.014c0.27,0.269,0.471,0.58,0.611,0.91l0.006-0.006    c0.568-0.568,1.316-0.854,2.062-0.854c0.186,0,0.373,0.018,0.557,0.054c-0.035-0.184-0.053-0.371-0.053-0.557    c-0.002-0.745,0.285-1.495,0.854-2.063c0.244-0.244,0.525-0.425,0.82-0.564c-0.396-0.148-0.771-0.375-1.09-0.694    c-0.596-0.594-0.895-1.377-0.895-2.156l0.002-0.016l-0.23-0.123c-0.375-0.375-0.863-0.561-1.355-0.561    c-0.492,0-0.979,0.186-1.355,0.561c-0.375,0.375-0.561,0.863-0.561,1.356c0,0.347,0.098,0.688,0.283,0.993    c0.504-0.361,1.098-0.551,1.689-0.55c0.746,0,1.494,0.286,2.062,0.854c0.195,0.195,0.195,0.512,0,0.707    S60.784,40.979,60.589,40.783z"/><path fill="none" d="M44.475,63.681c-0.665,0.001-1.326-0.241-1.865-0.694c-0.176,0.299-0.27,0.632-0.271,0.969    c0,0.492,0.187,0.98,0.562,1.355c0.375,0.376,0.863,0.562,1.355,0.562c0.464,0,0.921-0.172,1.288-0.506    c-0.244-0.439-0.379-0.924-0.378-1.411c0-0.126,0.02-0.252,0.036-0.378C44.962,63.639,44.72,63.681,44.475,63.681z"/><path fill="none" d="M49.445,38.825c-0.162,0.151-0.338,0.286-0.528,0.402c0.208,0.132,0.399,0.287,0.57,0.462l-0.453-0.453    L49.445,38.825z"/><path fill="none" d="M56.317,42.146v-0.007c0-0.172,0.02-0.344,0.049-0.515c-0.107,0.1-0.219,0.198-0.34,0.281    C56.132,41.977,56.224,42.062,56.317,42.146z"/><path fill="none" d="M55.802,69.232c0.492-0.001,0.979-0.187,1.354-0.562c0.377-0.375,0.562-0.863,0.562-1.356    c0-0.347-0.098-0.688-0.283-0.993c-0.506,0.361-1.098,0.552-1.691,0.551c-0.31,0-0.62-0.062-0.919-0.161    c0.043,0.199,0.068,0.401,0.068,0.604c0,0.487-0.135,0.972-0.379,1.411C54.879,69.06,55.336,69.231,55.802,69.232z"/><path fill="none" d="M50.531,36.482c0.002,1.229,0.999,2.224,2.227,2.227h0.014l0.207,0.054c0.184,0.075,0.314,0.256,0.312,0.467    c-0.003,0.274-0.228,0.493-0.501,0.493v0.001c-1.205,0.002-2.182,0.979-2.184,2.185c0.002,1.204,0.979,2.182,2.182,2.184h0.008    c0.277,0.003,0.498,0.23,0.494,0.506c-0.004,0.275-0.229,0.494-0.502,0.493v0.001h-0.004v0c-0.895-0.001-1.7-0.375-2.278-0.971    v0.904v4.28v0.429c0.421-1.009,1.415-1.718,2.576-1.719c0.276,0,0.5,0.224,0.5,0.5s-0.224,0.5-0.5,0.5    c-0.988,0.002-1.789,0.803-1.791,1.792c0.002,0.988,0.803,1.789,1.791,1.791c0.276,0,0.5,0.224,0.5,0.5s-0.224,0.5-0.5,0.5    c-1.161-0.001-2.155-0.71-2.576-1.719v1.347v0.592v0.11c0.06,1.143,0.999,2.054,2.157,2.056c1.195-0.002,2.164-0.97,2.166-2.166    l0.008-0.047l-0.008-0.048c0-1.61,1.306-2.916,2.915-2.916c0.115,0,0.225,0.021,0.338,0.034c-0.078-0.267-0.131-0.54-0.131-0.814    c0-0.556,0.16-1.114,0.477-1.598c-0.227-0.247-0.408-0.521-0.533-0.815c-0.16-0.368-0.244-0.759-0.244-1.152    c0-0.171,0.02-0.342,0.049-0.511l0.014-0.073c0.018-0.106,0.031-0.214,0.031-0.322c-0.002-0.431-0.152-0.854-0.441-1.206    c-0.01,0.968-0.498,1.81-1.232,2.33c0.703,0.45,1.172,1.232,1.172,2.129c0,1.398-1.133,2.531-2.532,2.532    c-0.275,0-0.5-0.224-0.5-0.5s0.225-0.5,0.5-0.5c0.846-0.001,1.53-0.687,1.532-1.532c-0.002-0.846-0.687-1.53-1.532-1.532    l-0.215-0.054l-0.104,0.011c-0.248,0-0.443-0.182-0.484-0.417l-0.016-0.082c0-0.276,0.223-0.5,0.498-0.5    c1.059,0,1.917-0.858,1.917-1.917c-0.002-1.045-0.839-1.891-1.88-1.913l-0.035,0.003c-0.277,0-0.5-0.224-0.5-0.5v-0.001    l-0.002-0.006c0-0.276,0.225-0.5,0.5-0.5l0.037,0.004c1.041-0.02,1.878-0.867,1.88-1.913c-0.002-1.058-0.858-1.915-1.917-1.917    l-0.002,0c-1.608-0.002-2.912-1.306-2.912-2.917c0-1.006,0.51-1.892,1.283-2.417c-0.773-0.524-1.282-1.411-1.283-2.417    c0.001-1.61,1.307-2.916,2.916-2.916c0.277,0,0.5,0.224,0.5,0.5s-0.223,0.5-0.5,0.5c-1.057,0.002-1.914,0.858-1.916,1.916    c0.002,1.059,0.859,1.915,1.916,1.917c0.277,0,0.5,0.224,0.5,0.5s-0.223,0.5-0.5,0.5l0,0c-1.059,0.002-1.914,0.858-1.916,1.916    c0.002,1.059,0.857,1.915,1.916,1.917l0.002,0c0.857,0.001,1.62,0.379,2.153,0.969c0.141-0.299,0.322-0.583,0.568-0.829    c0.568-0.568,1.318-0.854,2.062-0.854c0.633,0,1.26,0.218,1.785,0.628c0.148-0.395,0.375-0.767,0.693-1.084    c0.195-0.195,0.512-0.195,0.707,0s0.195,0.512,0,0.707c-0.402,0.401-0.6,0.923-0.602,1.449c0.002,0.526,0.199,1.048,0.602,1.449    c0.4,0.401,0.922,0.6,1.447,0.6c0.527,0,1.049-0.199,1.449-0.6l0.072-0.049c0.117-0.206,0.25-0.404,0.426-0.578    c0.195-0.195,0.512-0.195,0.707,0s0.195,0.512,0,0.707c-0.32,0.32-0.479,0.735-0.479,1.155s0.158,0.835,0.479,1.155    c0.195,0.195,0.195,0.512,0,0.707s-0.512,0.195-0.707,0c-0.102-0.101-0.186-0.213-0.266-0.325l-0.148-0.099    c-0.377-0.375-0.863-0.561-1.355-0.561c-0.492,0-0.98,0.186-1.355,0.561c-0.375,0.375-0.561,0.864-0.561,1.356    s0.186,0.979,0.561,1.354c0.195,0.195,0.195,0.512,0,0.707l-0.002,0.001l-0.002,0.002c-0.195,0.195-0.512,0.195-0.707,0    c-0.375-0.375-0.861-0.561-1.354-0.561c-0.492,0-0.98,0.186-1.355,0.561c-0.275,0.274-0.445,0.609-0.518,0.961l-0.014,0.073    c-0.018,0.106-0.031,0.213-0.031,0.321c0.002,0.447,0.162,0.886,0.471,1.244c0.518-0.389,1.131-0.596,1.746-0.596    c0.443,0,0.883,0.113,1.291,0.315c0.117-0.519,0.371-1.014,0.773-1.417c0.568-0.568,1.318-0.854,2.062-0.854    c0.271,0,0.541,0.051,0.805,0.126l-0.018-0.177c0-0.329,0.064-0.657,0.176-0.972l-0.197,0.019c-0.713,0-1.43-0.273-1.973-0.817    c-0.195-0.195-0.195-0.512,0-0.707s0.512-0.195,0.707,0c0.35,0.351,0.807,0.524,1.266,0.524c0.461,0,0.916-0.174,1.268-0.524    c0.111-0.111,0.26-0.152,0.404-0.136c0.4-0.194,0.832-0.303,1.268-0.302l0.029,0.003c-0.682-2.006-1.488-3.824-2.35-5.457    c-0.141,0.399-0.359,0.777-0.678,1.095c-0.195,0.195-0.512,0.195-0.707,0s-0.195-0.512,0-0.707    c0.375-0.375,0.561-0.863,0.561-1.355c0-0.347-0.098-0.69-0.285-0.995l-0.047-0.079c-0.066-0.099-0.143-0.193-0.229-0.281    c-0.377-0.375-0.865-0.561-1.357-0.562c-0.492,0-0.979,0.186-1.354,0.561l-0.205,0.118c-0.512,0.444-1.17,0.723-1.9,0.723    c-0.275,0-0.5-0.224-0.5-0.5s0.225-0.5,0.5-0.5c1.059-0.002,1.914-0.858,1.916-1.916c-0.002-1.059-0.857-1.915-1.916-1.917    c-0.275,0-0.5-0.224-0.5-0.5s0.225-0.5,0.5-0.5c0.578,0,1.113,0.173,1.564,0.463c-0.576-0.682-1.121-1.284-1.594-1.768    c-0.588-0.6-1.078-1.051-1.418-1.35c-0.17-0.15-0.303-0.262-0.391-0.335l-0.102-0.082l-0.023-0.019    c-0.467-0.344-1.002-0.594-1.576-0.753c0.412,0.503,0.668,1.137,0.668,1.837v0.001c0.408-0.232,0.873-0.376,1.375-0.376    c0.275,0,0.5,0.224,0.5,0.5s-0.225,0.5-0.5,0.5c-0.988,0.002-1.789,0.802-1.791,1.791c0.002,0.989,0.803,1.79,1.791,1.792    l0.205,0.046c0.445,0.088,0.871,0.305,1.217,0.649c0.195,0.195,0.195,0.512,0,0.707s-0.512,0.195-0.707,0    c-0.27-0.269-0.619-0.402-0.973-0.402c-0.355,0-0.705,0.133-0.975,0.403s-0.402,0.618-0.402,0.972s0.135,0.704,0.402,0.974    c0.195,0.195,0.195,0.512,0,0.707c-0.195,0.195-0.512,0.195-0.707-0.001c-0.312-0.313-0.512-0.697-0.613-1.1    c-0.486,0.363-1.083,0.586-1.737,0.586c-0.277,0-0.5-0.224-0.5-0.5s0.223-0.5,0.5-0.5c1.057-0.002,1.913-0.858,1.915-1.916    c-0.002-1.059-0.858-1.915-1.915-1.917c-0.277,0-0.5-0.224-0.5-0.5s0.223-0.5,0.5-0.5c1.057-0.002,1.913-0.858,1.915-1.916    c-0.002-1.059-0.858-1.915-1.915-1.917l-0.033-0.006c-0.939,0.195-1.779,0.661-2.435,1.315c-0.876,0.877-1.417,2.084-1.417,3.422    v6.131L50.531,36.482L50.531,36.482z"/><path fill="none" d="M63.021,32.935c0.203-0.046,0.408-0.086,0.615-0.086c0.137,0,0.271,0.02,0.408,0.039    c-0.387-0.559-0.768-1.078-1.143-1.568c0.119,0.317,0.191,0.657,0.191,1.015C63.093,32.542,63.063,32.741,63.021,32.935z"/><path fill="none" d="M62.175,56.599c-1.418-0.197-2.514-1.402-2.514-2.876c-0.002-1.058-0.859-1.914-1.918-1.916    c-1.057,0.002-1.914,0.858-1.916,1.916l-0.01,0.048l0.01,0.047c0,1.749-1.417,3.166-3.165,3.166c-0.836,0-1.59-0.33-2.157-0.858    h-0.011l-0.519-0.662l-0.47,0.662h-0.011c-0.566,0.528-1.321,0.858-2.156,0.858c-1.749,0-3.165-1.417-3.166-3.166l0.009-0.047    l-0.009-0.048c-0.002-1.058-0.858-1.914-1.917-1.916c-1.058,0.002-1.915,0.858-1.917,1.916c0,1.474-1.096,2.679-2.514,2.876    c0.235,0.13,0.461,0.281,0.66,0.48c0.569,0.568,0.855,1.317,0.855,2.062c0,0.442-0.113,0.882-0.314,1.288    c0.257,0.121,0.533,0.188,0.813,0.188c0.492,0,0.979-0.186,1.354-0.561s0.561-0.863,0.561-1.354c0-0.15-0.024-0.3-0.059-0.446    c-0.051-0.114-0.084-0.234-0.123-0.354c-0.092-0.199-0.214-0.39-0.379-0.555l-0.121-0.221c-0.572-0.298-0.967-0.889-0.968-1.578    c0-0.276,0.224-0.5,0.5-0.5s0.5,0.224,0.5,0.5c0.001,0.433,0.352,0.783,0.784,0.784c0.433-0.001,0.783-0.352,0.784-0.784    c0-0.276,0.224-0.5,0.5-0.5s0.5,0.224,0.5,0.5c0,0.795-0.524,1.461-1.243,1.691c0.016,0.096,0.04,0.188,0.066,0.279    c0.046,0.105,0.077,0.217,0.11,0.327c0.374,0.844,1.197,1.437,2.166,1.489c0.622-0.59,1.422-0.894,2.221-0.893    c0.827-0.001,1.659,0.316,2.289,0.948L50,59.998l0.716-0.606c0.63-0.632,1.462-0.949,2.289-0.948    c0.8-0.001,1.599,0.303,2.222,0.893c0.968-0.053,1.792-0.646,2.165-1.489c0.033-0.11,0.064-0.222,0.109-0.327    c0.027-0.092,0.051-0.184,0.066-0.279c-0.719-0.23-1.242-0.896-1.242-1.691c0-0.276,0.225-0.5,0.5-0.5c0.277,0,0.5,0.224,0.5,0.5    c0.002,0.433,0.352,0.783,0.785,0.784c0.432-0.001,0.783-0.352,0.783-0.784c0-0.276,0.225-0.5,0.5-0.5c0.277,0,0.5,0.224,0.5,0.5    c0,0.689-0.395,1.28-0.967,1.578l-0.121,0.221c-0.166,0.165-0.287,0.355-0.379,0.555c-0.039,0.12-0.072,0.24-0.123,0.354    c-0.035,0.146-0.059,0.296-0.059,0.446c0,0.491,0.186,0.979,0.561,1.354s0.861,0.561,1.354,0.561c0.281,0,0.557-0.067,0.814-0.188    c-0.201-0.406-0.314-0.846-0.314-1.288c0-0.745,0.287-1.494,0.855-2.062C61.714,56.88,61.938,56.729,62.175,56.599z"/><path fill="none" d="M36.23,72.282c0.102,0.102,0.213,0.187,0.325,0.271l0.042,0.029C36.47,72.49,36.344,72.396,36.23,72.282z"/><path fill="none" d="M62.962,72.84l0.1-0.038l0.135-0.077l0.053-0.036C63.155,72.747,63.06,72.793,62.962,72.84z"/><path fill="none" d="M37.038,72.84c-0.097-0.047-0.194-0.093-0.287-0.151l0.052,0.036l0.135,0.077L37.038,72.84z"/><path fill="none" d="M55.743,65.872c0.492,0,0.98-0.186,1.355-0.562c0.375-0.375,0.561-0.863,0.562-1.355    c-0.002-0.337-0.096-0.67-0.271-0.969c-0.539,0.453-1.201,0.695-1.864,0.694c-0.246,0-0.488-0.042-0.727-0.104    c0.016,0.126,0.035,0.252,0.035,0.378c0.002,0.487-0.135,0.972-0.377,1.411C54.822,65.7,55.279,65.872,55.743,65.872z"/><polygon fill="none" points="64.124,56.277 64.116,56.191 63.981,56.265   "/><path fill="none" d="M63.403,72.582l0.041-0.029c0.111-0.084,0.223-0.169,0.324-0.271C63.655,72.396,63.53,72.49,63.403,72.582z"/><path fill="none" d="M50.505,39.686v0.01c0.173-0.179,0.367-0.334,0.578-0.469c-0.207-0.126-0.403-0.27-0.576-0.438l0.448,0.448    L50.505,39.686z"/><path fill="none" d="M67.343,43.747c-0.375,0.375-0.562,0.863-0.562,1.355c0,0.293,0.074,0.582,0.207,0.85l0.068,0.055    c0.072,0.072,0.109,0.163,0.127,0.256l0.158,0.193c0.195,0.195,0.195,0.512,0,0.707s-0.512,0.195-0.707,0    c-0.174-0.173-0.312-0.368-0.432-0.57c-0.354-0.289-0.777-0.44-1.209-0.441c-0.492,0-0.979,0.186-1.355,0.561    c-0.375,0.375-0.561,0.864-0.561,1.356s0.186,0.979,0.561,1.354c0.195,0.195,0.195,0.512,0,0.707s-0.512,0.195-0.707,0    c-0.436-0.435-0.701-0.976-0.805-1.539c-0.361-0.318-0.807-0.483-1.26-0.483c-0.492,0-0.979,0.186-1.354,0.561    c-0.377,0.375-0.562,0.864-0.562,1.356s0.186,0.979,0.561,1.354l0.055,0.082c0.662,0.534,1.094,1.343,1.096,2.26    c0.002,1.059,0.857,1.915,1.916,1.917c0.904-0.002,1.658-0.631,1.859-1.475c-1.344-0.26-2.361-1.439-2.361-2.86    c0-0.276,0.225-0.5,0.5-0.5c0.277,0,0.5,0.223,0.5,0.5c0.002,1.059,0.859,1.915,1.916,1.917c1.059-0.002,1.916-0.858,1.918-1.917    c0-0.276,0.223-0.5,0.5-0.5c0.275,0,0.5,0.223,0.5,0.5c0,0.572-0.172,1.103-0.457,1.553c0.4,0.064,0.791,0.205,1.141,0.436    c0.396-0.804,1.145-1.401,2.051-1.576c-0.057-0.774-0.131-1.533-0.229-2.272c-0.312-0.639-0.959-1.082-1.717-1.083    c-1.059,0.002-1.916,0.858-1.918,1.916c0,0.276-0.225,0.5-0.5,0.5c-0.277,0-0.5-0.224-0.5-0.5c0-1.61,1.307-2.916,2.918-2.916    c0.533,0,1.025,0.154,1.455,0.404c-0.283-1.603-0.656-3.117-1.096-4.543c-0.119-0.023-0.238-0.035-0.359-0.035    C68.204,43.187,67.718,43.373,67.343,43.747z"/><path fill="none" d="M50.562,65.311c0.376,0.376,0.863,0.562,1.355,0.562s0.979-0.186,1.355-0.562    c0.375-0.375,0.561-0.863,0.561-1.355s-0.186-0.979-0.561-1.355c-0.195-0.195-0.195-0.512,0-0.707s0.512-0.195,0.707,0l0.18,0.221    l0.01,0.006c0.375,0.376,0.863,0.562,1.355,0.562c0.491,0,0.979-0.186,1.354-0.562c0.375-0.375,0.561-0.863,0.561-1.355    c0-0.373-0.107-0.742-0.322-1.063c-0.574,0.405-1.27,0.649-2.024,0.649c-0.141,0-0.266-0.059-0.357-0.151l-0.148-0.1    c-0.439-0.438-1.009-0.655-1.583-0.655s-1.144,0.218-1.582,0.655c-0.438,0.438-0.655,1.008-0.655,1.582    c0,0.574,0.218,1.144,0.655,1.581c0.195,0.195,0.195,0.512,0.001,0.707c-0.195,0.195-0.512,0.195-0.708,0l-0.21-0.258h-0.011    L50,62.986l-0.494,0.725h-0.011l-0.21,0.258c-0.196,0.195-0.512,0.195-0.708,0c-0.195-0.195-0.195-0.512,0-0.707    c0.438-0.438,0.655-1.007,0.655-1.581c0-0.574-0.217-1.145-0.655-1.582s-1.008-0.655-1.582-0.655s-1.144,0.218-1.582,0.655    l-0.15,0.1c-0.091,0.093-0.217,0.151-0.357,0.151c-0.755,0-1.451-0.244-2.024-0.649c-0.215,0.321-0.323,0.69-0.323,1.063    c0,0.492,0.187,0.98,0.562,1.355c0.375,0.376,0.863,0.562,1.355,0.562s0.979-0.186,1.355-0.562l0.009-0.006l0.18-0.221    c0.195-0.195,0.512-0.195,0.707,0s0.195,0.512,0,0.707c-0.375,0.376-0.561,0.863-0.562,1.355c0,0.492,0.187,0.98,0.562,1.355    c0.375,0.376,0.863,0.562,1.355,0.562s0.979-0.186,1.355-0.562l0.023-0.016L50,64.541l0.54,0.754L50.562,65.311z"/><path fill="none" d="M46.391,66.321c-0.186,0.305-0.283,0.646-0.283,0.993c0,0.493,0.186,0.981,0.562,1.356    c0.114,0.114,0.242,0.205,0.374,0.284c0.302,0.181,0.639,0.276,0.981,0.277c0.103,0,0.205-0.014,0.307-0.029    c0.175,0.296,0.303,0.612,0.364,0.941c0.034,0.179,0.052,0.359,0.052,0.54c0,0.745-0.286,1.494-0.854,2.062    s-1.317,0.854-2.062,0.854c-0.32,0-0.639-0.063-0.946-0.169c-0.245,0.392-0.579,0.716-0.975,0.954    c0.954,0.144,1.963,0.229,3.045,0.229c0.757-0.001,1.38-0.285,1.827-0.739c0.445-0.456,0.712-1.086,0.712-1.799v-2.255v-1.228    v-2.103c-0.439,0.245-0.924,0.381-1.413,0.38C47.488,66.873,46.896,66.683,46.391,66.321z"/><path fill="none" d="M44.329,71.941l0.005-0.05c0-0.276,0.224-0.5,0.5-0.5s0.5,0.224,0.5,0.5c0,0.212-0.025,0.417-0.068,0.615    c0.184,0.057,0.373,0.094,0.565,0.094c0.492,0,0.979-0.186,1.355-0.561c0.375-0.376,0.561-0.863,0.561-1.355    c0-0.165-0.029-0.327-0.07-0.486c-0.565-0.067-1.111-0.301-1.565-0.698c-0.547,0.479-1.229,0.732-1.913,0.731    c-0.341,0-0.681-0.066-1.007-0.187c0.092,0.288,0.15,0.584,0.15,0.883c0,0.744-0.286,1.494-0.854,2.062    c-0.195,0.195-0.512,0.195-0.707,0s-0.195-0.512,0-0.707c0.375-0.375,0.561-0.862,0.561-1.354c0-0.492-0.187-0.979-0.562-1.355    c-0.375-0.374-0.862-0.561-1.355-0.561l-0.139,0.014c-0.551,0.492-1.243,0.752-1.937,0.751c-0.593,0.001-1.186-0.189-1.69-0.551    c-0.186,0.305-0.283,0.646-0.283,0.993c0,0.493,0.186,0.98,0.562,1.356c0.086,0.086,0.179,0.159,0.275,0.225l0.067,0.043    c0.309,0.193,0.659,0.293,1.013,0.294c0.469-0.001,0.931-0.175,1.299-0.516c0.089-0.135,0.235-0.229,0.41-0.229    c0.276,0,0.5,0.224,0.5,0.5c0.002,1.059,0.858,1.915,1.917,1.917c0.667-0.001,1.253-0.344,1.597-0.861    C44.206,72.658,44.318,72.312,44.329,71.941z"/><path fill="none" d="M55.115,73.432c-0.307,0.105-0.627,0.169-0.947,0.169c-0.744,0.001-1.493-0.285-2.062-0.854    s-0.854-1.317-0.854-2.062c0-0.181,0.019-0.361,0.053-0.54c0.061-0.329,0.188-0.646,0.363-0.941    c0.102,0.016,0.204,0.029,0.307,0.029c0.343-0.001,0.68-0.097,0.982-0.277c0.131-0.079,0.259-0.17,0.373-0.284    c0.375-0.375,0.561-0.863,0.562-1.356c-0.002-0.347-0.099-0.688-0.284-0.993c-0.505,0.361-1.097,0.552-1.69,0.551    c-0.488,0.001-0.973-0.135-1.413-0.38v2.103v1.228v2.255c0,0.713,0.267,1.343,0.712,1.799c0.446,0.454,1.069,0.738,1.827,0.739    c1.082-0.001,2.09-0.086,3.044-0.229C55.694,74.147,55.359,73.823,55.115,73.432z"/><path fill="none" d="M60.146,73.256c0.213-0.092,0.422-0.187,0.627-0.285c-0.146-0.05-0.289-0.113-0.428-0.188    C60.292,72.948,60.226,73.105,60.146,73.256z"/><path fill="none" d="M69.712,57.074c-0.852-0.509-1.43-1.432-1.43-2.497l0.023-0.233c-0.369-0.352-0.84-0.53-1.316-0.53    c-0.494,0-0.98,0.186-1.355,0.561s-0.562,0.863-0.562,1.355c0,0.48,0.182,0.955,0.539,1.326l0.027,0.023    c0.195,0.195,0.195,0.512,0,0.707l-0.004,0.003l-0.002,0.002c-0.195,0.195-0.512,0.195-0.707,0l-0.021-0.028    c-0.371-0.357-0.846-0.537-1.326-0.537c-0.494,0-0.98,0.187-1.355,0.561c-0.375,0.376-0.562,0.863-0.562,1.355    c0,0.267,0.061,0.53,0.17,0.777c0.092,0.208,0.219,0.405,0.391,0.577l0.092,0.136c0.09,0.187,0.064,0.416-0.092,0.571    c-0.178,0.179-0.453,0.186-0.65,0.037c-0.439,0.244-0.922,0.379-1.41,0.378c-0.613,0.001-1.227-0.206-1.742-0.594    c-0.037,0.406-0.158,0.804-0.365,1.17c0.398,0.521,0.609,1.14,0.609,1.761c0,0.575-0.176,1.15-0.514,1.645    c0.373,0.511,0.57,1.112,0.57,1.715c0,0.299-0.059,0.596-0.15,0.884c0.324-0.12,0.666-0.187,1.008-0.187    c0.693-0.001,1.385,0.258,1.936,0.751l0.139,0.014c0.492,0,0.98-0.186,1.355-0.562c0.375-0.375,0.561-0.863,0.562-1.355    c-0.002-0.492-0.188-0.979-0.562-1.355c-0.195-0.195-0.195-0.512,0-0.707s0.512-0.195,0.707,0    c0.568,0.568,0.855,1.318,0.855,2.062c0,0.575-0.176,1.15-0.514,1.645c0.373,0.511,0.57,1.112,0.57,1.715l-0.01,0.107    c0.703-0.662,1.336-1.371,1.896-2.111c0.996-1.314,1.773-2.722,2.377-4.099c-0.371-0.35-0.838-0.526-1.314-0.526    c-0.492,0-0.979,0.186-1.354,0.561c-0.377,0.376-0.562,0.863-0.562,1.355c0,0.491,0.186,0.979,0.561,1.354    c0.195,0.195,0.195,0.512,0,0.707s-0.512,0.195-0.707,0c-0.568-0.567-0.854-1.316-0.854-2.061c0-0.745,0.285-1.494,0.855-2.062    c0.566-0.568,1.316-0.854,2.061-0.854c0.598-0.001,1.193,0.192,1.701,0.559c0.182-0.474,0.342-0.936,0.486-1.39    c-0.389,0.185-0.801,0.304-1.221,0.303c-0.744,0.001-1.494-0.285-2.062-0.854c-0.195-0.195-0.195-0.512,0-0.707    s0.512-0.195,0.707,0c0.377,0.375,0.863,0.561,1.355,0.562c0.492-0.001,0.98-0.187,1.355-0.562c0.148-0.149,0.26-0.32,0.35-0.499    c0.074-0.315,0.141-0.618,0.197-0.908c0.072-0.372,0.135-0.729,0.178-1.05c0.018-0.204,0.023-0.402,0.037-0.604    c-0.264-0.05-0.506-0.146-0.736-0.263L69.712,57.074z M67.493,59.347c-0.568,0.568-1.318,0.854-2.062,0.854    c-0.184,0-0.367-0.018-0.549-0.053c0.033,0.182,0.053,0.366,0.053,0.55c0,0.508-0.145,1.013-0.408,1.466    c-0.125,0.212-0.266,0.415-0.447,0.596l-0.197,0.162c-0.541,0.452-1.201,0.692-1.863,0.691c-0.314,0-0.627-0.062-0.928-0.163    c-0.184,0.304-0.281,0.645-0.281,0.99c0,0.491,0.186,0.979,0.561,1.354c0.195,0.195,0.195,0.512,0,0.707s-0.512,0.195-0.707,0    c-0.568-0.567-0.855-1.316-0.854-2.061c-0.002-0.508,0.143-1.014,0.408-1.467l-0.262-0.214c-0.195-0.195-0.195-0.512,0-0.707    s0.512-0.195,0.707,0l0.199,0.163c0.342,0.261,0.744,0.397,1.156,0.398l0.229-0.022l0.246-0.045    c0.322-0.083,0.627-0.242,0.879-0.494c0.113-0.112,0.203-0.236,0.281-0.365c0.184-0.304,0.279-0.645,0.281-0.989    c-0.002-0.481-0.182-0.957-0.541-1.329l-0.025-0.021c-0.195-0.195-0.195-0.512,0-0.707l0.002-0.002l0.002-0.003    c0.195-0.195,0.512-0.195,0.707,0l0.021,0.026c0.373,0.358,0.848,0.539,1.33,0.54c0.492-0.001,0.979-0.187,1.354-0.562    c0.377-0.375,0.561-0.862,0.562-1.354c-0.002-0.492-0.188-0.98-0.562-1.355c-0.195-0.195-0.195-0.512,0-0.707    c0.197-0.195,0.514-0.195,0.709,0c0.568,0.568,0.854,1.317,0.854,2.062C68.347,58.029,68.062,58.778,67.493,59.347z"/><path fill="none" d="M69.282,54.577c0.002,0.892,0.613,1.633,1.436,1.848c0.025-0.595,0.039-1.184,0.039-1.762    c0-0.655-0.02-1.297-0.049-1.93C69.89,52.952,69.284,53.69,69.282,54.577z"/><path fill="none" d="M39.227,72.971c0.205,0.099,0.414,0.193,0.627,0.285c-0.081-0.15-0.146-0.308-0.2-0.473    C39.516,72.857,39.374,72.921,39.227,72.971z"/><path fill="none" d="M61.649,69.776c-0.693,0.001-1.385-0.259-1.936-0.751l-0.139-0.014c-0.494,0-0.98,0.187-1.355,0.561    c-0.375,0.376-0.562,0.863-0.562,1.355s0.186,0.979,0.561,1.354c0.195,0.195,0.195,0.512,0,0.707s-0.512,0.195-0.707,0    c-0.568-0.567-0.854-1.317-0.854-2.062c0-0.299,0.059-0.595,0.15-0.883c-0.326,0.12-0.666,0.187-1.006,0.187    c-0.685,0.001-1.366-0.252-1.913-0.731c-0.455,0.397-1,0.631-1.566,0.698c-0.041,0.159-0.07,0.321-0.07,0.486    c0.001,0.492,0.187,0.979,0.562,1.355c0.376,0.375,0.862,0.561,1.354,0.561c0.193,0,0.381-0.037,0.566-0.094    c-0.043-0.198-0.068-0.403-0.068-0.615c0-0.276,0.223-0.5,0.5-0.5c0.275,0,0.499,0.224,0.499,0.5l0.006,0.05    c0.01,0.371,0.123,0.717,0.314,1.006c0.344,0.518,0.93,0.86,1.598,0.861c1.057-0.002,1.914-0.858,1.916-1.917    c0-0.276,0.223-0.5,0.5-0.5c0.174,0,0.32,0.095,0.41,0.229c0.367,0.341,0.828,0.515,1.299,0.516    c0.354-0.001,0.703-0.101,1.012-0.294l0.068-0.043c0.096-0.065,0.188-0.139,0.273-0.225c0.377-0.376,0.562-0.863,0.562-1.356    c0-0.347-0.098-0.688-0.283-0.993C62.835,69.587,62.243,69.777,61.649,69.776z"/><path fill="none" d="M36.995,64.797c0.195,0.195,0.195,0.512,0,0.707c-0.375,0.376-0.561,0.863-0.562,1.355    c0,0.492,0.187,0.98,0.562,1.355c0.375,0.376,0.863,0.562,1.355,0.562l0.139-0.014c0.551-0.493,1.243-0.752,1.937-0.751    c0.341,0,0.682,0.066,1.007,0.187c-0.092-0.288-0.15-0.585-0.15-0.884c0-0.603,0.197-1.204,0.57-1.715    c-0.339-0.494-0.514-1.069-0.513-1.645c0-0.621,0.211-1.24,0.608-1.761c-0.207-0.366-0.328-0.764-0.364-1.17    c-0.517,0.388-1.129,0.595-1.744,0.594c-0.487,0.001-0.971-0.134-1.41-0.378c-0.196,0.148-0.472,0.142-0.65-0.037    c-0.155-0.155-0.182-0.385-0.09-0.571l0.09-0.136c0.172-0.172,0.299-0.369,0.392-0.577c0.109-0.247,0.169-0.511,0.169-0.777    c0-0.492-0.187-0.979-0.562-1.355c-0.375-0.374-0.862-0.561-1.355-0.561c-0.48,0-0.955,0.18-1.326,0.537l-0.023,0.028    c-0.195,0.195-0.512,0.195-0.707,0l-0.001-0.002l-0.004-0.003c-0.195-0.195-0.195-0.512,0-0.707l0.028-0.023    c0.357-0.371,0.538-0.846,0.538-1.326c0-0.492-0.187-0.98-0.562-1.355c-0.375-0.375-0.862-0.561-1.355-0.561    c-0.477,0-0.947,0.179-1.317,0.53l0.023,0.233c0,1.065-0.578,1.988-1.43,2.497l-0.208,0.103c-0.231,0.116-0.474,0.213-0.736,0.263    c0.013,0.202,0.02,0.4,0.036,0.604c0.044,0.32,0.107,0.678,0.179,1.05c0.056,0.29,0.122,0.593,0.197,0.908    c0.09,0.179,0.201,0.35,0.35,0.499c0.375,0.375,0.863,0.561,1.355,0.562c0.492-0.001,0.979-0.187,1.355-0.562    c0.195-0.195,0.512-0.195,0.707,0s0.195,0.512,0,0.707c-0.568,0.568-1.317,0.854-2.062,0.854c-0.42,0.001-0.832-0.118-1.22-0.303    c0.144,0.454,0.304,0.916,0.486,1.39c0.507-0.366,1.103-0.56,1.7-0.559c0.745-0.001,1.494,0.285,2.062,0.854    c0.569,0.568,0.855,1.317,0.855,2.062c0,0.744-0.286,1.493-0.854,2.061c-0.195,0.195-0.512,0.195-0.707,0s-0.195-0.512,0-0.707    c0.375-0.375,0.561-0.862,0.561-1.354c0-0.492-0.187-0.979-0.562-1.355c-0.375-0.375-0.862-0.561-1.354-0.561    c-0.475,0-0.943,0.177-1.313,0.526c0.603,1.377,1.38,2.784,2.375,4.099c0.562,0.74,1.195,1.449,1.898,2.111l-0.01-0.107    c0-0.603,0.197-1.204,0.57-1.715c-0.339-0.494-0.514-1.069-0.513-1.645c0-0.744,0.286-1.494,0.854-2.062    C36.483,64.602,36.799,64.602,36.995,64.797z M36.119,62.921l-0.199-0.162c-0.181-0.181-0.322-0.384-0.446-0.596    c-0.265-0.453-0.409-0.958-0.408-1.466c0-0.184,0.018-0.368,0.053-0.55c-0.182,0.035-0.365,0.053-0.549,0.053    c-0.745,0.001-1.494-0.285-2.062-0.854c-0.568-0.568-0.854-1.317-0.854-2.062c0-0.745,0.286-1.494,0.854-2.062    c0.195-0.195,0.512-0.195,0.707,0s0.195,0.512,0,0.707c-0.375,0.375-0.56,0.863-0.561,1.355c0.001,0.492,0.186,0.979,0.561,1.354    c0.375,0.375,0.863,0.561,1.355,0.562c0.481-0.001,0.957-0.182,1.329-0.54l0.021-0.026c0.195-0.195,0.512-0.195,0.707,0    l0.002,0.003l0.003,0.002c0.195,0.195,0.195,0.512,0,0.707l-0.026,0.021c-0.358,0.372-0.539,0.848-0.54,1.329    c0,0.345,0.097,0.686,0.281,0.989c0.078,0.129,0.167,0.253,0.28,0.365c0.252,0.252,0.558,0.411,0.879,0.494l0.246,0.045    l0.23,0.022c0.411-0.001,0.814-0.138,1.155-0.398l0.2-0.163c0.195-0.195,0.512-0.195,0.707,0s0.195,0.512,0,0.707l-0.262,0.214    c0.265,0.453,0.409,0.959,0.409,1.467c0,0.744-0.286,1.493-0.854,2.061c-0.195,0.195-0.512,0.195-0.707,0s-0.195-0.512,0-0.707    c0.375-0.375,0.561-0.862,0.561-1.354c0-0.346-0.098-0.687-0.282-0.99c-0.302,0.102-0.613,0.163-0.927,0.163    C37.318,63.613,36.658,63.373,36.119,62.921z"/><path fill="none" d="M43.974,41.905c-0.122-0.083-0.233-0.181-0.341-0.281c0.03,0.17,0.049,0.342,0.049,0.515l0,0.007    C43.776,42.062,43.869,41.977,43.974,41.905z"/><path fill="none" d="M31.407,53.293c0.351-0.23,0.741-0.371,1.14-0.436c-0.285-0.45-0.456-0.98-0.456-1.553    c0-0.276,0.224-0.5,0.5-0.5s0.5,0.223,0.5,0.5c0.002,1.059,0.858,1.915,1.917,1.917c1.058-0.002,1.915-0.858,1.917-1.917    c0-0.276,0.224-0.5,0.5-0.5s0.5,0.223,0.5,0.5c0,1.421-1.017,2.601-2.361,2.86c0.201,0.844,0.954,1.473,1.859,1.475    c1.058-0.002,1.915-0.858,1.917-1.917c0-0.917,0.432-1.726,1.094-2.26l0.055-0.082c0.375-0.375,0.561-0.862,0.561-1.354    c0-0.492-0.186-0.98-0.562-1.356c-0.375-0.375-0.863-0.561-1.355-0.561c-0.453,0-0.898,0.166-1.26,0.483    c-0.103,0.563-0.369,1.104-0.804,1.539c-0.195,0.195-0.512,0.195-0.707,0s-0.195-0.512,0-0.707    c0.375-0.375,0.561-0.862,0.561-1.354c0-0.492-0.186-0.98-0.562-1.356c-0.375-0.375-0.863-0.561-1.355-0.561    c-0.432,0-0.856,0.152-1.208,0.441c-0.121,0.202-0.259,0.396-0.433,0.57c-0.195,0.195-0.512,0.195-0.707,0s-0.195-0.512,0-0.707    l0.158-0.193c0.019-0.093,0.055-0.184,0.127-0.256l0.068-0.055c0.133-0.268,0.207-0.556,0.208-0.85    c0-0.492-0.187-0.98-0.562-1.355c-0.375-0.375-0.862-0.56-1.355-0.561c-0.121,0-0.241,0.012-0.36,0.035    c-0.439,1.427-0.813,2.94-1.097,4.543c0.43-0.25,0.923-0.404,1.457-0.404c1.611,0,2.917,1.306,2.917,2.916    c0,0.276-0.224,0.5-0.5,0.5s-0.5-0.224-0.5-0.5c-0.002-1.058-0.858-1.914-1.917-1.916c-0.758,0.001-1.406,0.445-1.717,1.083    c-0.098,0.739-0.173,1.499-0.229,2.272C30.263,51.892,31.01,52.489,31.407,53.293z"/><path fill="none" d="M36.979,32.935c-0.043-0.194-0.073-0.393-0.073-0.601c0-0.358,0.074-0.698,0.192-1.015    c-0.375,0.491-0.756,1.01-1.142,1.568c0.135-0.019,0.271-0.039,0.407-0.039C36.571,32.849,36.776,32.889,36.979,32.935z"/><path fill="none" d="M30.718,54.577c-0.001-0.887-0.607-1.625-1.425-1.844c-0.03,0.633-0.049,1.274-0.049,1.93    c0,0.578,0.014,1.167,0.039,1.762C30.105,56.21,30.716,55.469,30.718,54.577z"/><polygon fill="none" points="35.876,56.277 36.018,56.265 35.884,56.191   "/><path fill="none" d="M32.569,42.489c0.145-0.016,0.294,0.025,0.405,0.136c0.351,0.351,0.807,0.524,1.267,0.524    c0.46,0,0.916-0.174,1.267-0.524c0.195-0.195,0.512-0.195,0.707,0s0.195,0.512,0,0.707c-0.543,0.544-1.261,0.818-1.974,0.817    l-0.198-0.019c0.111,0.315,0.177,0.643,0.177,0.972l-0.017,0.177c0.264-0.076,0.533-0.126,0.804-0.126    c0.745,0,1.494,0.286,2.062,0.854c0.403,0.403,0.657,0.898,0.774,1.417c0.407-0.202,0.847-0.315,1.29-0.315    c0.616,0,1.229,0.207,1.746,0.596c0.309-0.358,0.47-0.797,0.471-1.244c0-0.108-0.013-0.215-0.031-0.321l-0.013-0.073    c-0.073-0.352-0.244-0.687-0.518-0.961c-0.375-0.375-0.863-0.561-1.355-0.561c-0.492,0-0.979,0.186-1.355,0.561    c-0.195,0.195-0.512,0.195-0.707,0l-0.001-0.002l-0.002-0.001c-0.195-0.195-0.195-0.512,0-0.707    c0.375-0.375,0.561-0.862,0.561-1.354c0-0.492-0.186-0.98-0.562-1.356c-0.375-0.375-0.863-0.561-1.355-0.561    c-0.492,0-0.979,0.186-1.355,0.561l-0.148,0.099c-0.081,0.112-0.165,0.224-0.266,0.325c-0.195,0.195-0.512,0.195-0.707,0    s-0.195-0.512,0-0.707c0.32-0.32,0.478-0.735,0.478-1.155c0-0.42-0.158-0.834-0.478-1.155c-0.195-0.195-0.195-0.512,0-0.707    c0.195-0.195,0.512-0.195,0.707,0c0.175,0.174,0.309,0.373,0.424,0.578l0.073,0.049c0.401,0.401,0.922,0.6,1.449,0.6    c0.526,0,1.047-0.199,1.448-0.6c0.401-0.401,0.6-0.923,0.6-1.449c0-0.526-0.199-1.047-0.6-1.449c-0.195-0.195-0.195-0.512,0-0.707    s0.512-0.195,0.707,0c0.317,0.317,0.544,0.689,0.692,1.084c0.525-0.41,1.154-0.628,1.786-0.628c0.745,0,1.494,0.286,2.062,0.854    c0.246,0.246,0.429,0.53,0.569,0.829c0.533-0.59,1.296-0.968,2.154-0.969l0.001,0c1.058-0.002,1.914-0.858,1.916-1.917    c-0.002-1.058-0.858-1.914-1.916-1.916h0h0c-0.276,0-0.5-0.224-0.5-0.5s0.224-0.5,0.5-0.5c1.058-0.002,1.914-0.858,1.916-1.917    c-0.002-1.058-0.858-1.914-1.916-1.916c-0.276,0-0.5-0.224-0.5-0.5s0.224-0.5,0.5-0.5c1.61,0,2.916,1.306,2.916,2.916    c0,1.006-0.509,1.892-1.283,2.417c0.774,0.524,1.284,1.411,1.284,2.417c0,1.61-1.304,2.915-2.913,2.917l-0.001,0    c-1.059,0.002-1.915,0.859-1.917,1.917c0.001,1.045,0.839,1.893,1.88,1.913l0.037-0.004c0.276,0,0.5,0.224,0.5,0.5l-0.001,0.006    l0,0.001c0,0.276-0.224,0.5-0.5,0.5l-0.036-0.003c-1.041,0.021-1.878,0.867-1.88,1.913c0,1.058,0.858,1.916,1.917,1.917    c0.276,0,0.5,0.224,0.5,0.5l-0.017,0.082c-0.041,0.235-0.237,0.417-0.484,0.417l-0.104-0.011l-0.216,0.054    c-0.845,0.001-1.53,0.686-1.532,1.532c0.001,0.845,0.687,1.53,1.532,1.532c0.276,0,0.5,0.224,0.5,0.5s-0.224,0.5-0.5,0.5    c-1.398-0.001-2.531-1.134-2.532-2.532c0-0.897,0.469-1.68,1.172-2.129c-0.734-0.52-1.223-1.362-1.233-2.33    c-0.288,0.352-0.439,0.774-0.44,1.206c0,0.108,0.013,0.215,0.031,0.322l0.013,0.073c0.03,0.169,0.049,0.34,0.049,0.511    c0,0.393-0.084,0.784-0.243,1.152c-0.126,0.294-0.307,0.569-0.535,0.815c0.317,0.484,0.478,1.042,0.477,1.598    c0,0.275-0.052,0.547-0.13,0.814c0.112-0.013,0.221-0.034,0.336-0.034c1.611,0,2.916,1.306,2.917,2.916l-0.009,0.048l0.009,0.047    c0.002,1.196,0.97,2.164,2.166,2.166c1.158-0.002,2.096-0.913,2.156-2.056v-0.11v-0.592v-1.347    c-0.421,1.009-1.415,1.718-2.576,1.719c-0.276,0-0.5-0.224-0.5-0.5s0.224-0.5,0.5-0.5c0.988-0.002,1.789-0.803,1.791-1.791    c-0.002-0.989-0.803-1.79-1.791-1.792c-0.276,0-0.5-0.224-0.5-0.5s0.224-0.5,0.5-0.5c1.161,0,2.155,0.71,2.576,1.719v-0.429v-4.28    V44.12c-0.578,0.596-1.383,0.97-2.277,0.971v0h-0.004v-0.001c-0.274,0.001-0.499-0.218-0.502-0.493    c-0.003-0.276,0.217-0.503,0.494-0.506h0.008c1.203-0.002,2.18-0.979,2.182-2.184c-0.002-1.206-0.979-2.183-2.184-2.185v-0.001    c-0.273,0-0.498-0.218-0.501-0.493c-0.002-0.211,0.127-0.392,0.312-0.467l0.207-0.054h0.014c1.228-0.002,2.224-0.997,2.227-2.227    v-0.001l0.025-0.126v-6.131c0-1.338-0.541-2.544-1.417-3.422c-0.655-0.655-1.495-1.121-2.435-1.315l-0.032,0.006    c-1.058,0.002-1.914,0.858-1.916,1.917c0.002,1.058,0.858,1.914,1.916,1.916c0.276,0,0.5,0.224,0.5,0.5s-0.224,0.5-0.5,0.5    c-1.058,0.002-1.914,0.858-1.916,1.917c0.002,1.058,0.858,1.914,1.916,1.916c0.276,0,0.5,0.224,0.5,0.5s-0.224,0.5-0.5,0.5    c-0.654,0-1.25-0.223-1.737-0.586c-0.102,0.402-0.301,0.786-0.614,1.1c-0.195,0.196-0.512,0.196-0.707,0.001    c-0.196-0.195-0.196-0.512-0.001-0.707c0.269-0.27,0.402-0.62,0.403-0.974c0-0.354-0.133-0.703-0.402-0.972    c-0.27-0.27-0.62-0.402-0.974-0.403c-0.354,0-0.703,0.133-0.973,0.402c-0.195,0.195-0.512,0.195-0.707,0s-0.195-0.512,0-0.707    c0.344-0.344,0.771-0.561,1.216-0.649l0.205-0.046c0.988-0.002,1.789-0.803,1.791-1.792c-0.002-0.989-0.803-1.789-1.791-1.791    c-0.276,0-0.5-0.224-0.5-0.5s0.224-0.5,0.5-0.5c0.502,0,0.967,0.144,1.374,0.376V27.41c0-0.7,0.257-1.334,0.668-1.837    c-0.573,0.16-1.108,0.409-1.575,0.753l-0.024,0.019l-0.101,0.082c-0.089,0.073-0.222,0.185-0.392,0.335    c-0.34,0.299-0.829,0.75-1.417,1.35c-0.474,0.484-1.019,1.086-1.595,1.768c0.453-0.29,0.987-0.463,1.564-0.463    c0.276,0,0.5,0.224,0.5,0.5s-0.224,0.5-0.5,0.5c-1.058,0.002-1.914,0.858-1.916,1.917c0.002,1.058,0.858,1.914,1.916,1.916    c0.276,0,0.5,0.224,0.5,0.5s-0.224,0.5-0.5,0.5c-0.73,0-1.388-0.279-1.899-0.723l-0.205-0.118    c-0.375-0.375-0.862-0.561-1.354-0.561c-0.492,0-0.98,0.186-1.356,0.562c-0.087,0.088-0.163,0.183-0.229,0.281L34.73,34.77    c-0.186,0.305-0.284,0.648-0.284,0.995c0,0.492,0.186,0.979,0.561,1.355c0.195,0.195,0.195,0.512,0,0.707s-0.512,0.195-0.707,0    c-0.318-0.318-0.539-0.695-0.679-1.095c-0.86,1.633-1.667,3.451-2.349,5.457l0.03-0.003    C31.737,42.186,32.168,42.295,32.569,42.489z"/><path d="M38.909,63.449c0.184,0.304,0.281,0.645,0.282,0.99c0,0.491-0.186,0.979-0.561,1.354c-0.195,0.195-0.195,0.512,0,0.707    s0.512,0.195,0.707,0c0.568-0.567,0.854-1.316,0.854-2.061c0-0.508-0.144-1.014-0.409-1.467l0.262-0.214    c0.195-0.195,0.195-0.512,0-0.707s-0.512-0.195-0.707,0l-0.2,0.163c-0.341,0.261-0.745,0.397-1.155,0.398l-0.23-0.022    l-0.246-0.045c-0.321-0.083-0.626-0.242-0.879-0.494c-0.112-0.112-0.202-0.236-0.28-0.365c-0.184-0.304-0.281-0.645-0.281-0.989    c0.001-0.481,0.181-0.957,0.54-1.329l0.026-0.021c0.195-0.195,0.195-0.512,0-0.707l-0.003-0.002l-0.002-0.003    c-0.195-0.195-0.512-0.195-0.707,0l-0.021,0.026c-0.372,0.358-0.847,0.539-1.329,0.54c-0.492-0.001-0.979-0.187-1.355-0.562    c-0.375-0.375-0.56-0.862-0.561-1.354c0.001-0.492,0.187-0.98,0.561-1.355c0.195-0.195,0.195-0.512,0-0.707s-0.512-0.195-0.707,0    c-0.568,0.568-0.854,1.317-0.854,2.062c0,0.744,0.286,1.493,0.854,2.062c0.568,0.568,1.317,0.854,2.062,0.854    c0.184,0,0.367-0.018,0.549-0.053c-0.035,0.182-0.053,0.366-0.053,0.55c0,0.508,0.143,1.013,0.408,1.466    c0.124,0.212,0.265,0.415,0.446,0.596l0.199,0.162c0.54,0.452,1.2,0.692,1.863,0.691C38.296,63.612,38.607,63.551,38.909,63.449z"/><path d="M66.784,55.223c-0.195,0.195-0.195,0.512,0,0.707c0.375,0.375,0.561,0.863,0.562,1.355    c-0.002,0.492-0.186,0.979-0.562,1.354c-0.375,0.375-0.861,0.561-1.354,0.562c-0.482-0.001-0.957-0.182-1.33-0.54l-0.021-0.026    c-0.195-0.195-0.512-0.195-0.707,0l-0.002,0.003l-0.002,0.002c-0.195,0.195-0.195,0.512,0,0.707l0.025,0.021    c0.359,0.372,0.539,0.848,0.541,1.329c-0.002,0.345-0.098,0.686-0.281,0.989c-0.078,0.129-0.168,0.253-0.281,0.365    c-0.252,0.252-0.557,0.411-0.879,0.494l-0.246,0.045l-0.229,0.022c-0.412-0.001-0.814-0.138-1.156-0.398l-0.199-0.163    c-0.195-0.195-0.512-0.195-0.707,0s-0.195,0.512,0,0.707l0.262,0.214c-0.266,0.453-0.41,0.959-0.408,1.467    c-0.002,0.744,0.285,1.493,0.854,2.061c0.195,0.195,0.512,0.195,0.707,0s0.195-0.512,0-0.707    c-0.375-0.375-0.561-0.862-0.561-1.354c0-0.346,0.098-0.687,0.281-0.99c0.301,0.102,0.613,0.163,0.928,0.163    c0.662,0.001,1.322-0.239,1.863-0.691l0.197-0.162c0.182-0.181,0.322-0.384,0.447-0.596c0.264-0.453,0.408-0.958,0.408-1.466    c0-0.184-0.02-0.368-0.053-0.55c0.182,0.035,0.365,0.053,0.549,0.053c0.744,0.001,1.494-0.285,2.062-0.854    s0.854-1.317,0.854-2.062c0-0.745-0.285-1.494-0.854-2.062C67.298,55.027,66.981,55.027,66.784,55.223z"/><path d="M71.757,54.663c0-0.821-0.031-1.62-0.078-2.408c-0.004-0.092-0.01-0.183-0.016-0.273C71.63,51.487,71.591,51,71.542,50.52    c-0.047-0.468-0.1-0.931-0.162-1.386c-0.254-1.862-0.627-3.616-1.088-5.263c-0.139-0.488-0.281-0.968-0.434-1.438    c-1.027-3.188-2.369-5.936-3.764-8.231l-0.033-0.056c-0.252-0.414-0.506-0.818-0.76-1.203c-3.227-4.888-6.453-7.389-6.482-7.413    l-0.01-0.007c-0.969-0.715-2.17-1.139-3.464-1.139c-2.391,0-4.442,1.438-5.346,3.493c-0.904-2.056-2.955-3.493-5.345-3.493    c-1.295,0-2.497,0.423-3.465,1.139l-0.009,0.007c-0.03,0.024-3.255,2.525-6.483,7.413c-0.254,0.384-0.507,0.789-0.759,1.203    l-0.033,0.056c-1.395,2.296-2.735,5.043-3.764,8.231c-0.151,0.47-0.295,0.949-0.433,1.438c-0.461,1.647-0.834,3.401-1.088,5.263    c-0.062,0.455-0.115,0.918-0.162,1.386c-0.049,0.48-0.088,0.968-0.121,1.462c-0.006,0.091-0.012,0.182-0.017,0.273    c-0.046,0.788-0.078,1.587-0.078,2.408c0,0.745,0.028,1.51,0.068,2.282l-0.01,0.049l0.018,0.091    c0.02,0.351,0.035,0.698,0.063,1.054l0.003,0.027c0.359,2.611,1.498,6.933,4.305,10.651c0.918,1.22,2.022,2.371,3.335,3.366    c0.169,0.129,0.354,0.246,0.53,0.369c-0.112-0.084-0.224-0.169-0.325-0.271c0.114,0.114,0.24,0.208,0.367,0.3l-0.042-0.029    l0.09,0.075l0.037,0.024l0.01,0.006l0.052,0.034l0.057,0.032l-0.052-0.036c0.093,0.059,0.19,0.104,0.287,0.151l-0.101-0.038    l-0.135-0.077c0.109,0.073,0.21,0.153,0.322,0.225c2.544,1.617,5.775,2.67,9.831,2.666c1.015,0.001,1.912-0.395,2.542-1.04    c0.199-0.203,0.36-0.437,0.503-0.683c0.143,0.246,0.304,0.479,0.503,0.683c0.63,0.646,1.526,1.041,2.542,1.04    c4.056,0.004,7.286-1.049,9.831-2.666c0.111-0.071,0.213-0.151,0.32-0.225l-0.135,0.077l-0.1,0.038    c0.098-0.047,0.193-0.093,0.287-0.151l-0.053,0.036l0.059-0.032l0.051-0.034l0.012-0.006l0.037-0.024l0.09-0.075l-0.041,0.029    c0.127-0.092,0.252-0.186,0.365-0.3c-0.102,0.102-0.213,0.187-0.324,0.271c0.176-0.123,0.359-0.24,0.529-0.369    c1.312-0.995,2.416-2.146,3.336-3.366c2.807-3.719,3.945-8.04,4.305-10.651l0.002-0.027c0.029-0.355,0.045-0.703,0.064-1.054    l0.018-0.091l-0.01-0.049C71.729,56.173,71.757,55.408,71.757,54.663z M70.153,47.765c-0.43-0.25-0.922-0.404-1.455-0.404    c-1.611,0-2.918,1.306-2.918,2.916c0,0.276,0.223,0.5,0.5,0.5c0.275,0,0.5-0.224,0.5-0.5c0.002-1.058,0.859-1.914,1.918-1.916    c0.758,0.001,1.404,0.445,1.717,1.083c0.098,0.739,0.172,1.499,0.229,2.272c-0.906,0.175-1.654,0.772-2.051,1.576    c-0.35-0.23-0.74-0.371-1.141-0.436c0.285-0.45,0.457-0.98,0.457-1.553c0-0.276-0.225-0.5-0.5-0.5c-0.277,0-0.5,0.223-0.5,0.5    c-0.002,1.059-0.859,1.915-1.918,1.917c-1.057-0.002-1.914-0.858-1.916-1.917c0-0.276-0.223-0.5-0.5-0.5    c-0.275,0-0.5,0.223-0.5,0.5c0,1.421,1.018,2.601,2.361,2.86c-0.201,0.844-0.955,1.473-1.859,1.475    c-1.059-0.002-1.914-0.858-1.916-1.917c-0.002-0.917-0.434-1.726-1.096-2.26l-0.055-0.082c-0.375-0.375-0.561-0.862-0.561-1.354    s0.186-0.98,0.562-1.356c0.375-0.375,0.861-0.561,1.354-0.561c0.453,0,0.898,0.166,1.26,0.483    c0.104,0.563,0.369,1.104,0.805,1.539c0.195,0.195,0.512,0.195,0.707,0s0.195-0.512,0-0.707c-0.375-0.375-0.561-0.862-0.561-1.354    s0.186-0.98,0.561-1.356c0.377-0.375,0.863-0.561,1.355-0.561c0.432,0,0.855,0.152,1.209,0.441    c0.119,0.202,0.258,0.396,0.432,0.57c0.195,0.195,0.512,0.195,0.707,0s0.195-0.512,0-0.707l-0.158-0.193    c-0.018-0.093-0.055-0.184-0.127-0.256l-0.068-0.055c-0.133-0.268-0.207-0.556-0.207-0.85c0-0.492,0.188-0.98,0.562-1.355    c0.375-0.375,0.861-0.56,1.355-0.561c0.121,0,0.24,0.012,0.359,0.035C69.497,44.648,69.87,46.162,70.153,47.765z M64.124,56.277    l-0.143-0.013l0.135-0.073L64.124,56.277z M60.974,60.43c-0.258,0.121-0.533,0.188-0.814,0.188c-0.492,0-0.979-0.186-1.354-0.561    s-0.561-0.863-0.561-1.354c0-0.15,0.023-0.3,0.059-0.446c0.051-0.114,0.084-0.234,0.123-0.354c0.092-0.199,0.213-0.39,0.379-0.555    l0.121-0.221c0.572-0.298,0.967-0.889,0.967-1.578c0-0.276-0.223-0.5-0.5-0.5c-0.275,0-0.5,0.224-0.5,0.5    c0,0.433-0.352,0.783-0.783,0.784c-0.434-0.001-0.783-0.352-0.785-0.784c0-0.276-0.223-0.5-0.5-0.5c-0.275,0-0.5,0.224-0.5,0.5    c0,0.795,0.523,1.461,1.242,1.691c-0.016,0.096-0.039,0.188-0.066,0.279c-0.045,0.105-0.076,0.217-0.109,0.327    c-0.373,0.844-1.197,1.437-2.165,1.489c-0.623-0.59-1.422-0.894-2.222-0.893c-0.827-0.001-1.659,0.316-2.289,0.948L50,59.998    l-0.716-0.606c-0.63-0.632-1.462-0.949-2.289-0.948c-0.799-0.001-1.599,0.303-2.221,0.893c-0.969-0.053-1.792-0.646-2.166-1.489    c-0.033-0.11-0.063-0.222-0.11-0.327c-0.026-0.092-0.05-0.184-0.066-0.279c0.719-0.23,1.242-0.896,1.243-1.691    c0-0.276-0.224-0.5-0.5-0.5s-0.5,0.224-0.5,0.5c-0.001,0.433-0.352,0.783-0.784,0.784c-0.433-0.001-0.783-0.352-0.784-0.784    c0-0.276-0.224-0.5-0.5-0.5s-0.5,0.224-0.5,0.5c0,0.689,0.396,1.28,0.968,1.578l0.121,0.221c0.166,0.165,0.288,0.355,0.379,0.555    c0.039,0.12,0.072,0.24,0.123,0.354c0.035,0.146,0.059,0.296,0.059,0.446c0,0.491-0.186,0.979-0.561,1.354    s-0.862,0.561-1.354,0.561c-0.28,0-0.556-0.067-0.813-0.188c0.201-0.406,0.314-0.846,0.314-1.288c0-0.745-0.286-1.494-0.855-2.062    c-0.199-0.199-0.425-0.351-0.66-0.48c1.418-0.197,2.514-1.402,2.514-2.876c0.002-1.058,0.858-1.914,1.917-1.916    c1.058,0.002,1.915,0.858,1.917,1.916l0.009,0.048l-0.009,0.047c0,1.749,1.417,3.166,3.166,3.166c0.835,0,1.59-0.33,2.156-0.858    h0.011l0.47-0.662l0.519,0.662h0.011c0.567,0.528,1.321,0.858,2.157,0.858c1.748,0,3.165-1.417,3.165-3.166l-0.01-0.047    l0.01-0.048c0.002-1.058,0.859-1.914,1.916-1.916c1.059,0.002,1.916,0.858,1.918,1.916c0,1.474,1.096,2.679,2.514,2.876    c-0.236,0.13-0.461,0.281-0.66,0.48c-0.568,0.568-0.855,1.317-0.855,2.062C60.659,59.584,60.772,60.023,60.974,60.43z     M54.799,63.577c0.238,0.062,0.48,0.104,0.727,0.104c0.663,0.001,1.325-0.241,1.864-0.694c0.176,0.299,0.27,0.632,0.271,0.969    c-0.002,0.492-0.188,0.98-0.562,1.355c-0.375,0.376-0.863,0.562-1.355,0.562c-0.464,0-0.921-0.172-1.286-0.506    c0.242-0.439,0.379-0.924,0.377-1.411C54.834,63.829,54.814,63.703,54.799,63.577z M54.824,66.711    c0.299,0.1,0.609,0.161,0.919,0.161c0.594,0.001,1.186-0.189,1.691-0.551c0.186,0.305,0.283,0.646,0.283,0.993    c0,0.493-0.186,0.981-0.562,1.356c-0.375,0.375-0.861,0.561-1.354,0.562c-0.466-0.001-0.923-0.173-1.288-0.507    c0.244-0.439,0.379-0.924,0.379-1.411C54.893,67.112,54.867,66.91,54.824,66.711z M45.543,65.366    c-0.366,0.334-0.823,0.506-1.288,0.506c-0.492,0-0.979-0.186-1.355-0.562c-0.375-0.375-0.561-0.863-0.562-1.355    c0-0.337,0.095-0.67,0.271-0.969c0.54,0.453,1.201,0.695,1.865,0.694c0.245,0,0.487-0.042,0.726-0.104    c-0.016,0.126-0.036,0.252-0.036,0.378C45.165,64.442,45.3,64.927,45.543,65.366z M45.486,68.726    c-0.366,0.334-0.823,0.506-1.288,0.507c-0.492-0.001-0.979-0.187-1.355-0.562s-0.561-0.863-0.562-1.356    c0-0.347,0.098-0.688,0.283-0.993c0.505,0.361,1.097,0.552,1.69,0.551c0.311,0,0.62-0.062,0.919-0.161    c-0.042,0.199-0.067,0.401-0.067,0.604C45.107,67.802,45.243,68.286,45.486,68.726z M38.075,40.978    c-0.244-0.244-0.525-0.425-0.821-0.564c0.398-0.148,0.772-0.375,1.091-0.694c0.595-0.594,0.894-1.377,0.893-2.156l-0.001-0.016    l0.231-0.123c0.375-0.375,0.863-0.561,1.355-0.561c0.492,0,0.979,0.186,1.355,0.561c0.375,0.375,0.561,0.863,0.562,1.356    c0,0.347-0.098,0.688-0.283,0.993c-0.505-0.361-1.097-0.551-1.69-0.55c-0.745,0-1.494,0.286-2.062,0.854    c-0.195,0.195-0.195,0.512,0,0.707s0.512,0.195,0.707,0c0.375-0.375,0.863-0.561,1.355-0.561c0.492,0,0.979,0.186,1.355,0.561    c0.375,0.375,0.561,0.863,0.562,1.355c0,0.487-0.184,0.968-0.55,1.342l-0.021,0.014c-0.269,0.269-0.469,0.58-0.611,0.91    l-0.005-0.006c-0.568-0.568-1.317-0.854-2.062-0.854c-0.187,0-0.373,0.018-0.557,0.054c0.036-0.184,0.053-0.371,0.053-0.557    C38.93,42.296,38.644,41.546,38.075,40.978z M61.296,40.076c-0.568-0.568-1.316-0.854-2.062-0.854    c-0.592,0-1.186,0.189-1.689,0.55c-0.186-0.304-0.283-0.646-0.283-0.993c0-0.493,0.186-0.98,0.561-1.356    c0.377-0.375,0.863-0.561,1.355-0.561c0.492,0,0.98,0.186,1.355,0.561l0.23,0.123l-0.002,0.016c0,0.779,0.299,1.562,0.895,2.156    c0.318,0.319,0.693,0.546,1.09,0.694c-0.295,0.14-0.576,0.321-0.82,0.564c-0.568,0.568-0.855,1.318-0.854,2.063    c0,0.187,0.018,0.373,0.053,0.557c-0.184-0.036-0.371-0.054-0.557-0.054c-0.746,0-1.494,0.286-2.062,0.854l-0.006,0.006    c-0.141-0.33-0.342-0.641-0.611-0.91l-0.02-0.014c-0.367-0.374-0.551-0.855-0.551-1.342c0-0.492,0.188-0.98,0.562-1.355    c0.375-0.375,0.861-0.561,1.354-0.561c0.492,0,0.98,0.186,1.355,0.561c0.195,0.195,0.512,0.195,0.707,0    S61.491,40.271,61.296,40.076z M64.044,32.888c-0.137-0.019-0.271-0.039-0.408-0.039c-0.207,0-0.412,0.041-0.615,0.086    c0.043-0.194,0.072-0.393,0.072-0.601c0-0.358-0.072-0.698-0.191-1.015C63.276,31.81,63.657,32.329,64.044,32.888z M50.505,30.224    c0-1.338,0.542-2.544,1.417-3.422c0.655-0.655,1.495-1.121,2.435-1.315l0.033,0.006c1.057,0.002,1.913,0.858,1.915,1.917    c-0.002,1.058-0.858,1.914-1.915,1.916c-0.277,0-0.5,0.224-0.5,0.5s0.223,0.5,0.5,0.5c1.057,0.002,1.913,0.858,1.915,1.917    c-0.002,1.058-0.858,1.914-1.915,1.916c-0.277,0-0.5,0.224-0.5,0.5s0.223,0.5,0.5,0.5c0.654,0,1.251-0.223,1.737-0.586    c0.102,0.402,0.301,0.786,0.613,1.1c0.195,0.196,0.512,0.196,0.707,0.001c0.195-0.195,0.195-0.512,0-0.707    c-0.268-0.27-0.402-0.62-0.402-0.974s0.133-0.703,0.402-0.972s0.619-0.402,0.975-0.403c0.354,0,0.703,0.133,0.973,0.402    c0.195,0.195,0.512,0.195,0.707,0s0.195-0.512,0-0.707c-0.346-0.344-0.771-0.561-1.217-0.649l-0.205-0.046    c-0.988-0.002-1.789-0.803-1.791-1.792c0.002-0.989,0.803-1.789,1.791-1.791c0.275,0,0.5-0.224,0.5-0.5s-0.225-0.5-0.5-0.5    c-0.502,0-0.967,0.144-1.375,0.376V27.41c0-0.7-0.256-1.334-0.668-1.837c0.574,0.16,1.109,0.409,1.576,0.753l0.023,0.019    l0.102,0.082c0.088,0.073,0.221,0.185,0.391,0.335c0.34,0.299,0.83,0.75,1.418,1.35c0.473,0.484,1.018,1.086,1.594,1.768    c-0.451-0.29-0.986-0.463-1.564-0.463c-0.275,0-0.5,0.224-0.5,0.5s0.225,0.5,0.5,0.5c1.059,0.002,1.914,0.858,1.916,1.917    c-0.002,1.058-0.857,1.914-1.916,1.916c-0.275,0-0.5,0.224-0.5,0.5s0.225,0.5,0.5,0.5c0.73,0,1.389-0.279,1.9-0.723l0.205-0.118    c0.375-0.375,0.861-0.561,1.354-0.561c0.492,0,0.98,0.186,1.357,0.562c0.086,0.088,0.162,0.183,0.229,0.281l0.047,0.079    c0.188,0.305,0.285,0.648,0.285,0.995c0,0.492-0.186,0.979-0.561,1.355c-0.195,0.195-0.195,0.512,0,0.707s0.512,0.195,0.707,0    c0.318-0.318,0.537-0.695,0.678-1.095c0.861,1.633,1.668,3.451,2.35,5.457l-0.029-0.003c-0.436,0-0.867,0.108-1.268,0.302    c-0.145-0.016-0.293,0.025-0.404,0.136c-0.352,0.351-0.807,0.524-1.268,0.524c-0.459,0-0.916-0.174-1.266-0.524    c-0.195-0.195-0.512-0.195-0.707,0s-0.195,0.512,0,0.707c0.543,0.544,1.26,0.818,1.973,0.817l0.197-0.019    c-0.111,0.315-0.176,0.643-0.176,0.972l0.018,0.177c-0.264-0.076-0.533-0.126-0.805-0.126c-0.744,0-1.494,0.286-2.062,0.854    c-0.402,0.403-0.656,0.898-0.773,1.417c-0.408-0.202-0.848-0.315-1.291-0.315c-0.615,0-1.229,0.207-1.746,0.596    c-0.309-0.358-0.469-0.797-0.471-1.244c0-0.108,0.014-0.215,0.031-0.321l0.014-0.073c0.072-0.352,0.242-0.687,0.518-0.961    c0.375-0.375,0.863-0.561,1.355-0.561c0.492,0,0.979,0.186,1.354,0.561c0.195,0.195,0.512,0.195,0.707,0l0.002-0.002l0.002-0.001    c0.195-0.195,0.195-0.512,0-0.707c-0.375-0.375-0.561-0.862-0.561-1.354s0.186-0.98,0.561-1.356    c0.375-0.375,0.863-0.561,1.355-0.561c0.492,0,0.979,0.186,1.355,0.561l0.148,0.099c0.08,0.112,0.164,0.224,0.266,0.325    c0.195,0.195,0.512,0.195,0.707,0s0.195-0.512,0-0.707c-0.32-0.32-0.479-0.735-0.479-1.155s0.158-0.834,0.479-1.155    c0.195-0.195,0.195-0.512,0-0.707s-0.512-0.195-0.707,0c-0.176,0.174-0.309,0.373-0.426,0.578l-0.072,0.049    c-0.4,0.401-0.922,0.6-1.449,0.6c-0.525,0-1.047-0.199-1.447-0.6c-0.402-0.401-0.6-0.923-0.602-1.449    c0.002-0.526,0.199-1.047,0.602-1.449c0.195-0.195,0.195-0.512,0-0.707s-0.512-0.195-0.707,0    c-0.318,0.317-0.545,0.689-0.693,1.084c-0.525-0.41-1.152-0.628-1.785-0.628c-0.744,0-1.494,0.286-2.062,0.854    c-0.246,0.246-0.428,0.53-0.568,0.829c-0.533-0.59-1.296-0.968-2.153-0.969l-0.002,0c-1.059-0.002-1.914-0.858-1.916-1.917    c0.002-1.058,0.857-1.914,1.916-1.916l0,0c0.277,0,0.5-0.224,0.5-0.5s-0.223-0.5-0.5-0.5c-1.057-0.002-1.914-0.858-1.916-1.917    c0.002-1.058,0.859-1.914,1.916-1.916c0.277,0,0.5-0.224,0.5-0.5s-0.223-0.5-0.5-0.5c-1.609,0-2.915,1.306-2.916,2.916    c0.001,1.006,0.51,1.892,1.283,2.417c-0.773,0.524-1.283,1.411-1.283,2.417c0,1.61,1.304,2.915,2.912,2.917l0.002,0    c1.059,0.002,1.915,0.859,1.917,1.917c-0.002,1.045-0.839,1.893-1.88,1.913l-0.037-0.004c-0.275,0-0.5,0.224-0.5,0.5l0.002,0.006    v0.001c0,0.276,0.223,0.5,0.5,0.5l0.035-0.003c1.041,0.021,1.878,0.867,1.88,1.913c0,1.058-0.858,1.916-1.917,1.917    c-0.275,0-0.498,0.224-0.498,0.5l0.016,0.082c0.041,0.235,0.236,0.417,0.484,0.417l0.104-0.011l0.215,0.054    c0.846,0.001,1.53,0.686,1.532,1.532c-0.002,0.845-0.687,1.53-1.532,1.532c-0.275,0-0.5,0.224-0.5,0.5s0.225,0.5,0.5,0.5    c1.399-0.001,2.532-1.134,2.532-2.532c0-0.897-0.469-1.68-1.172-2.129c0.734-0.52,1.223-1.362,1.232-2.33    c0.289,0.352,0.439,0.774,0.441,1.206c0,0.108-0.014,0.215-0.031,0.322l-0.014,0.073c-0.029,0.169-0.049,0.34-0.049,0.511    c0,0.393,0.084,0.784,0.244,1.152c0.125,0.294,0.307,0.569,0.533,0.815c-0.316,0.484-0.477,1.042-0.477,1.598    c0,0.275,0.053,0.547,0.131,0.814c-0.113-0.013-0.223-0.034-0.338-0.034c-1.609,0-2.915,1.306-2.915,2.916l0.008,0.048    l-0.008,0.047c-0.002,1.196-0.971,2.164-2.166,2.166c-1.158-0.002-2.097-0.913-2.157-2.056v-0.11v-0.592v-1.347    c0.421,1.009,1.415,1.718,2.576,1.719c0.276,0,0.5-0.224,0.5-0.5s-0.224-0.5-0.5-0.5c-0.988-0.002-1.789-0.803-1.791-1.791    c0.002-0.989,0.803-1.79,1.791-1.792c0.276,0,0.5-0.224,0.5-0.5s-0.224-0.5-0.5-0.5c-1.161,0-2.155,0.71-2.576,1.719v-0.429v-4.28    V44.12c0.578,0.596,1.383,0.97,2.278,0.971v0h0.004v-0.001c0.273,0.001,0.498-0.218,0.502-0.493    c0.004-0.276-0.217-0.503-0.494-0.506h-0.008c-1.203-0.002-2.18-0.979-2.182-2.184c0.002-1.206,0.979-2.183,2.184-2.185v-0.001    c0.273,0,0.498-0.218,0.501-0.493c0.003-0.211-0.128-0.392-0.312-0.467l-0.207-0.054h-0.014c-1.229-0.002-2.225-0.997-2.227-2.227    v-0.001l-0.025-0.126V30.224z M56.366,41.624c-0.029,0.17-0.049,0.342-0.049,0.515v0.007c-0.094-0.084-0.186-0.169-0.291-0.241    C56.147,41.822,56.259,41.724,56.366,41.624z M50.507,38.789c0.173,0.168,0.369,0.312,0.576,0.438    c-0.21,0.134-0.405,0.29-0.578,0.469v-0.01l-0.511,0.511l-0.508-0.508c-0.171-0.176-0.362-0.33-0.57-0.462    c0.19-0.116,0.366-0.251,0.528-0.402l0.549-0.549L50.507,38.789z M37.098,31.319c-0.118,0.317-0.192,0.657-0.192,1.015    c0,0.208,0.029,0.406,0.073,0.601c-0.203-0.046-0.408-0.086-0.616-0.086c-0.136,0-0.271,0.02-0.407,0.039    C36.342,32.329,36.723,31.81,37.098,31.319z M33.622,36.732c0.14,0.399,0.36,0.777,0.679,1.095c0.195,0.195,0.512,0.195,0.707,0    s0.195-0.512,0-0.707c-0.375-0.375-0.561-0.863-0.561-1.355c0-0.347,0.098-0.69,0.284-0.995l0.047-0.079    c0.067-0.099,0.142-0.193,0.229-0.281c0.375-0.375,0.864-0.561,1.356-0.562c0.492,0,0.979,0.186,1.354,0.561l0.205,0.118    c0.511,0.444,1.169,0.723,1.899,0.723c0.276,0,0.5-0.224,0.5-0.5s-0.224-0.5-0.5-0.5c-1.058-0.002-1.914-0.858-1.916-1.916    c0.002-1.059,0.858-1.915,1.916-1.917c0.276,0,0.5-0.224,0.5-0.5s-0.224-0.5-0.5-0.5c-0.577,0-1.112,0.173-1.564,0.463    c0.577-0.682,1.122-1.284,1.595-1.768c0.588-0.6,1.077-1.051,1.417-1.35c0.17-0.15,0.303-0.262,0.392-0.335l0.101-0.082    l0.024-0.019c0.467-0.344,1.002-0.594,1.575-0.753c-0.411,0.503-0.668,1.137-0.668,1.837v0.001    c-0.407-0.232-0.872-0.376-1.374-0.376c-0.276,0-0.5,0.224-0.5,0.5s0.224,0.5,0.5,0.5c0.988,0.002,1.789,0.802,1.791,1.791    c-0.002,0.989-0.803,1.79-1.791,1.792l-0.205,0.046c-0.446,0.088-0.872,0.305-1.216,0.649c-0.195,0.195-0.195,0.512,0,0.707    s0.512,0.195,0.707,0c0.27-0.269,0.619-0.402,0.973-0.402c0.354,0,0.704,0.133,0.974,0.403c0.269,0.27,0.402,0.618,0.402,0.972    c0,0.354-0.134,0.704-0.403,0.974c-0.195,0.195-0.195,0.512,0.001,0.707c0.195,0.195,0.512,0.195,0.707-0.001    c0.313-0.313,0.512-0.697,0.614-1.1c0.486,0.363,1.083,0.586,1.737,0.586c0.276,0,0.5-0.224,0.5-0.5s-0.224-0.5-0.5-0.5    c-1.058-0.002-1.914-0.858-1.916-1.916c0.002-1.059,0.858-1.915,1.916-1.917c0.276,0,0.5-0.224,0.5-0.5s-0.224-0.5-0.5-0.5    c-1.058-0.002-1.914-0.858-1.916-1.916c0.002-1.059,0.858-1.915,1.916-1.917l0.032-0.006c0.94,0.195,1.78,0.661,2.435,1.315    c0.876,0.877,1.417,2.084,1.417,3.422v6.131l-0.025,0.126v0.001c-0.002,1.229-0.999,2.224-2.227,2.227h-0.014l-0.207,0.054    c-0.185,0.075-0.314,0.256-0.312,0.467c0.003,0.274,0.228,0.493,0.501,0.493v0.001c1.206,0.002,2.182,0.979,2.184,2.185    c-0.002,1.204-0.979,2.182-2.182,2.184h-0.008c-0.276,0.003-0.497,0.23-0.494,0.506c0.003,0.275,0.228,0.494,0.502,0.493v0.001    h0.004v0c0.895-0.001,1.7-0.375,2.277-0.971v0.904v4.28v0.429c-0.421-1.009-1.415-1.718-2.576-1.719c-0.276,0-0.5,0.224-0.5,0.5    s0.224,0.5,0.5,0.5c0.988,0.002,1.789,0.803,1.791,1.792c-0.002,0.988-0.803,1.789-1.791,1.791c-0.276,0-0.5,0.224-0.5,0.5    s0.224,0.5,0.5,0.5c1.161-0.001,2.155-0.71,2.576-1.719v1.347v0.592v0.11c-0.06,1.143-0.998,2.054-2.156,2.056    c-1.196-0.002-2.164-0.97-2.166-2.166l-0.009-0.047l0.009-0.048c0-1.61-1.306-2.916-2.917-2.916c-0.115,0-0.225,0.021-0.336,0.034    c0.078-0.267,0.13-0.54,0.13-0.814c0-0.556-0.16-1.114-0.477-1.598c0.228-0.247,0.408-0.521,0.535-0.815    c0.159-0.368,0.243-0.759,0.243-1.152c0-0.171-0.019-0.342-0.049-0.511l-0.013-0.073c-0.018-0.106-0.031-0.214-0.031-0.322    c0-0.431,0.152-0.854,0.44-1.206c0.011,0.968,0.499,1.81,1.233,2.33c-0.703,0.45-1.172,1.232-1.172,2.129    c0,1.398,1.134,2.531,2.532,2.532c0.276,0,0.5-0.224,0.5-0.5s-0.224-0.5-0.5-0.5c-0.845-0.001-1.53-0.687-1.532-1.532    c0.001-0.846,0.687-1.53,1.532-1.532l0.216-0.054l0.104,0.011c0.247,0,0.443-0.182,0.484-0.417l0.017-0.082    c0-0.276-0.224-0.5-0.5-0.5c-1.058,0-1.917-0.858-1.917-1.917c0.002-1.045,0.839-1.891,1.88-1.913l0.036,0.003    c0.276,0,0.5-0.224,0.5-0.5l0-0.001l0.001-0.006c0-0.276-0.224-0.5-0.5-0.5l-0.037,0.004c-1.041-0.02-1.879-0.867-1.88-1.913    c0.002-1.058,0.858-1.915,1.917-1.917l0.001,0c1.609-0.002,2.913-1.306,2.913-2.917c0-1.006-0.51-1.892-1.284-2.417    c0.774-0.524,1.283-1.411,1.283-2.417c0-1.61-1.306-2.916-2.916-2.916c-0.276,0-0.5,0.224-0.5,0.5s0.224,0.5,0.5,0.5    c1.058,0.002,1.914,0.858,1.916,1.916c-0.002,1.059-0.858,1.915-1.916,1.917c-0.276,0-0.5,0.224-0.5,0.5s0.224,0.5,0.5,0.5h0h0    c1.058,0.002,1.914,0.858,1.916,1.916c-0.002,1.059-0.858,1.915-1.916,1.917l-0.001,0c-0.858,0.001-1.621,0.379-2.154,0.969    c-0.14-0.299-0.323-0.583-0.569-0.829c-0.568-0.568-1.317-0.854-2.062-0.854c-0.632,0-1.26,0.218-1.786,0.628    c-0.148-0.395-0.375-0.767-0.692-1.084c-0.195-0.195-0.512-0.195-0.707,0s-0.195,0.512,0,0.707c0.401,0.401,0.6,0.923,0.6,1.449    c0,0.526-0.199,1.048-0.6,1.449c-0.401,0.401-0.922,0.6-1.448,0.6c-0.526,0-1.048-0.199-1.449-0.6l-0.073-0.049    c-0.116-0.206-0.25-0.404-0.424-0.578c-0.195-0.195-0.512-0.195-0.707,0c-0.195,0.195-0.195,0.512,0,0.707    c0.32,0.32,0.478,0.735,0.478,1.155c0,0.42-0.158,0.835-0.478,1.155c-0.195,0.195-0.195,0.512,0,0.707s0.512,0.195,0.707,0    c0.101-0.101,0.185-0.213,0.266-0.325l0.148-0.099c0.375-0.375,0.863-0.561,1.355-0.561c0.492,0,0.979,0.186,1.355,0.561    c0.375,0.375,0.561,0.864,0.562,1.356c0,0.492-0.186,0.979-0.561,1.354c-0.195,0.195-0.195,0.512,0,0.707l0.002,0.001l0.001,0.002    c0.195,0.195,0.512,0.195,0.707,0c0.375-0.375,0.863-0.561,1.355-0.561c0.492,0,0.979,0.186,1.355,0.561    c0.274,0.274,0.445,0.609,0.518,0.961l0.013,0.073c0.018,0.106,0.031,0.213,0.031,0.321c0,0.447-0.162,0.886-0.471,1.244    c-0.517-0.389-1.13-0.596-1.746-0.596c-0.443,0-0.883,0.113-1.29,0.315c-0.118-0.519-0.371-1.014-0.774-1.417    c-0.568-0.568-1.317-0.854-2.062-0.854c-0.271,0-0.54,0.051-0.804,0.126l0.017-0.177c0-0.329-0.065-0.657-0.177-0.972l0.198,0.019    c0.713,0,1.43-0.273,1.974-0.817c0.195-0.195,0.195-0.512,0-0.707s-0.512-0.195-0.707,0c-0.351,0.351-0.807,0.524-1.267,0.524    c-0.46,0-0.916-0.174-1.267-0.524c-0.111-0.111-0.26-0.152-0.405-0.136c-0.4-0.194-0.832-0.303-1.266-0.302l-0.03,0.003    C31.955,40.183,32.761,38.365,33.622,36.732z M43.633,41.624c0.108,0.1,0.219,0.198,0.341,0.281    c-0.105,0.071-0.198,0.157-0.292,0.241l0-0.007C43.682,41.966,43.663,41.794,43.633,41.624z M29.586,49.444    c0.311-0.639,0.959-1.082,1.717-1.083c1.059,0.002,1.915,0.858,1.917,1.916c0,0.276,0.224,0.5,0.5,0.5s0.5-0.224,0.5-0.5    c0-1.61-1.306-2.916-2.917-2.916c-0.533,0-1.026,0.154-1.457,0.404c0.284-1.603,0.657-3.117,1.097-4.543    c0.119-0.023,0.239-0.035,0.36-0.035c0.493,0,0.98,0.186,1.355,0.561c0.375,0.375,0.562,0.863,0.562,1.355    c0,0.293-0.075,0.582-0.208,0.85l-0.068,0.055c-0.072,0.072-0.109,0.163-0.127,0.256l-0.158,0.193    c-0.195,0.195-0.195,0.512,0,0.707s0.512,0.195,0.707,0c0.174-0.173,0.312-0.368,0.433-0.57c0.352-0.289,0.776-0.44,1.208-0.441    c0.492,0,0.979,0.186,1.355,0.561c0.375,0.375,0.561,0.864,0.562,1.356c0,0.492-0.186,0.979-0.561,1.354    c-0.195,0.195-0.195,0.512,0,0.707s0.512,0.195,0.707,0c0.435-0.435,0.702-0.976,0.804-1.539c0.361-0.318,0.807-0.483,1.26-0.483    c0.492,0,0.979,0.186,1.355,0.561c0.375,0.375,0.561,0.864,0.562,1.356c0,0.492-0.186,0.979-0.561,1.354l-0.055,0.082    c-0.662,0.534-1.094,1.343-1.094,2.26c-0.002,1.059-0.858,1.915-1.917,1.917c-0.905-0.002-1.658-0.631-1.859-1.475    c1.344-0.26,2.36-1.439,2.361-2.86c0-0.276-0.224-0.5-0.5-0.5s-0.5,0.223-0.5,0.5c-0.002,1.059-0.858,1.915-1.917,1.917    c-1.058-0.002-1.915-0.858-1.917-1.917c0-0.276-0.224-0.5-0.5-0.5s-0.5,0.223-0.5,0.5c0,0.572,0.171,1.103,0.456,1.553    c-0.399,0.064-0.79,0.205-1.14,0.436c-0.397-0.804-1.145-1.401-2.051-1.576C29.413,50.943,29.488,50.184,29.586,49.444z     M36.018,56.265l-0.142,0.013l0.008-0.086L36.018,56.265z M29.243,54.663c0-0.655,0.02-1.297,0.049-1.93    c0.818,0.219,1.424,0.957,1.425,1.844c-0.001,0.892-0.612,1.633-1.436,1.848C29.257,55.83,29.243,55.241,29.243,54.663z     M35.433,66.859c0,0.575,0.174,1.15,0.513,1.645c-0.373,0.511-0.571,1.112-0.57,1.715l0.01,0.107    c-0.703-0.662-1.336-1.371-1.898-2.111c-0.995-1.314-1.772-2.722-2.375-4.099c0.37-0.35,0.838-0.526,1.313-0.526    c0.492,0,0.979,0.186,1.354,0.561c0.375,0.376,0.562,0.863,0.562,1.355c0,0.491-0.186,0.979-0.561,1.354    c-0.195,0.195-0.195,0.512,0,0.707s0.512,0.195,0.707,0c0.568-0.567,0.854-1.316,0.854-2.061c0-0.745-0.286-1.494-0.855-2.062    c-0.567-0.568-1.317-0.854-2.062-0.854c-0.597-0.001-1.193,0.192-1.7,0.559c-0.182-0.474-0.343-0.936-0.486-1.39    c0.389,0.185,0.8,0.304,1.22,0.303c0.745,0.001,1.494-0.285,2.062-0.854c0.195-0.195,0.195-0.512,0-0.707s-0.512-0.195-0.707,0    c-0.375,0.375-0.863,0.561-1.355,0.562c-0.492-0.001-0.979-0.187-1.355-0.562c-0.149-0.149-0.26-0.32-0.35-0.499    c-0.075-0.315-0.141-0.618-0.197-0.908c-0.072-0.372-0.135-0.729-0.179-1.05c-0.016-0.204-0.023-0.402-0.036-0.604    c0.263-0.05,0.505-0.146,0.736-0.263l0.208-0.103c0.853-0.509,1.43-1.432,1.43-2.497l-0.023-0.233    c0.37-0.352,0.84-0.53,1.317-0.53c0.493,0,0.98,0.186,1.355,0.561c0.375,0.375,0.562,0.863,0.562,1.355    c0,0.48-0.181,0.955-0.538,1.326l-0.028,0.023c-0.195,0.195-0.195,0.512,0,0.707l0.004,0.003l0.001,0.002    c0.195,0.195,0.512,0.195,0.707,0l0.023-0.028c0.371-0.357,0.846-0.537,1.326-0.537c0.493,0,0.98,0.187,1.355,0.561    c0.375,0.376,0.562,0.863,0.562,1.355c0,0.267-0.06,0.53-0.169,0.777c-0.093,0.208-0.22,0.405-0.392,0.577l-0.09,0.136    c-0.091,0.187-0.065,0.416,0.09,0.571c0.179,0.179,0.455,0.186,0.65,0.037c0.439,0.244,0.923,0.379,1.41,0.378    c0.615,0.001,1.227-0.206,1.744-0.594c0.037,0.406,0.157,0.804,0.364,1.17c-0.397,0.521-0.609,1.14-0.608,1.761    c0,0.575,0.174,1.15,0.513,1.645c-0.373,0.511-0.571,1.112-0.57,1.715c0,0.299,0.059,0.596,0.15,0.884    c-0.325-0.12-0.666-0.187-1.007-0.187c-0.693-0.001-1.385,0.258-1.937,0.751l-0.139,0.014c-0.492,0-0.979-0.186-1.355-0.562    c-0.375-0.375-0.561-0.863-0.562-1.355c0-0.492,0.187-0.979,0.562-1.355c0.195-0.195,0.195-0.512,0-0.707s-0.512-0.195-0.707,0    C35.719,65.365,35.433,66.115,35.433,66.859z M39.227,72.971c0.147-0.05,0.289-0.113,0.428-0.188    c0.053,0.165,0.119,0.322,0.2,0.473C39.641,73.164,39.432,73.069,39.227,72.971z M42.417,73.809    c-1.058-0.002-1.915-0.858-1.917-1.917c0-0.276-0.224-0.5-0.5-0.5c-0.174,0-0.32,0.095-0.41,0.229    c-0.368,0.341-0.83,0.515-1.299,0.516c-0.354-0.001-0.704-0.101-1.013-0.294L37.212,71.8c-0.096-0.065-0.189-0.139-0.275-0.225    c-0.375-0.376-0.561-0.863-0.562-1.356c0-0.347,0.098-0.688,0.283-0.993c0.505,0.361,1.097,0.552,1.69,0.551    c0.694,0.001,1.385-0.259,1.937-0.751l0.139-0.014c0.493,0,0.98,0.187,1.355,0.561c0.375,0.376,0.562,0.863,0.562,1.355    c0,0.492-0.186,0.979-0.561,1.354c-0.195,0.195-0.195,0.512,0,0.707s0.512,0.195,0.707,0c0.568-0.567,0.854-1.317,0.854-2.062    c0-0.299-0.059-0.595-0.15-0.883c0.326,0.12,0.666,0.187,1.007,0.187c0.684,0.001,1.365-0.252,1.913-0.731    c0.455,0.397,1,0.631,1.565,0.698c0.042,0.159,0.07,0.321,0.07,0.486c0,0.492-0.186,0.979-0.561,1.355    c-0.375,0.375-0.863,0.561-1.355,0.561c-0.192,0-0.381-0.037-0.565-0.094c0.042-0.198,0.068-0.403,0.068-0.615    c0-0.276-0.224-0.5-0.5-0.5s-0.5,0.224-0.5,0.5l-0.005,0.05c-0.011,0.371-0.123,0.717-0.315,1.006    C43.671,73.465,43.085,73.808,42.417,73.809z M49.494,68.595v1.228v2.255c0,0.713-0.267,1.343-0.712,1.799    c-0.447,0.454-1.069,0.738-1.827,0.739c-1.082-0.001-2.091-0.086-3.045-0.229c0.396-0.238,0.73-0.562,0.975-0.954    c0.307,0.105,0.626,0.169,0.946,0.169c0.745,0.001,1.494-0.285,2.062-0.854s0.854-1.317,0.854-2.062    c0-0.181-0.018-0.361-0.052-0.54c-0.062-0.329-0.189-0.646-0.364-0.941c-0.102,0.016-0.204,0.029-0.307,0.029    c-0.342-0.001-0.68-0.097-0.981-0.277c-0.132-0.079-0.259-0.17-0.374-0.284c-0.375-0.375-0.561-0.863-0.562-1.356    c0-0.347,0.098-0.688,0.283-0.993c0.505,0.361,1.097,0.552,1.69,0.551c0.488,0.001,0.973-0.135,1.413-0.38V68.595z M50,64.541    l-0.539,0.754l-0.023,0.016c-0.376,0.376-0.863,0.562-1.355,0.562s-0.979-0.186-1.355-0.562c-0.375-0.375-0.561-0.863-0.562-1.355    c0-0.492,0.187-0.979,0.562-1.355c0.195-0.195,0.195-0.512,0-0.707s-0.512-0.195-0.707,0l-0.18,0.221l-0.009,0.006    c-0.376,0.376-0.863,0.562-1.355,0.562s-0.979-0.186-1.355-0.562c-0.375-0.375-0.561-0.863-0.562-1.355    c0-0.373,0.108-0.742,0.323-1.063c0.573,0.405,1.269,0.649,2.024,0.649c0.14,0,0.266-0.059,0.357-0.151l0.15-0.1    c0.438-0.438,1.008-0.655,1.582-0.655s1.144,0.218,1.582,0.655s0.655,1.008,0.655,1.582c0,0.574-0.218,1.144-0.655,1.581    c-0.195,0.195-0.195,0.512,0,0.707c0.195,0.195,0.512,0.195,0.708,0l0.21-0.258h0.011L50,62.986l0.495,0.725h0.011l0.21,0.258    c0.196,0.195,0.513,0.195,0.708,0c0.194-0.195,0.194-0.512-0.001-0.707c-0.438-0.438-0.655-1.007-0.655-1.581    c0-0.574,0.217-1.145,0.655-1.582c0.438-0.438,1.008-0.655,1.582-0.655s1.144,0.218,1.583,0.655l0.148,0.1    c0.092,0.093,0.217,0.151,0.357,0.151c0.755,0,1.45-0.244,2.024-0.649c0.215,0.321,0.322,0.69,0.322,1.063    c0,0.492-0.186,0.98-0.561,1.355c-0.375,0.376-0.863,0.562-1.354,0.562c-0.492,0-0.98-0.186-1.355-0.562l-0.01-0.006l-0.18-0.221    c-0.195-0.195-0.512-0.195-0.707,0s-0.195,0.512,0,0.707c0.375,0.376,0.561,0.863,0.561,1.355s-0.186,0.98-0.561,1.355    c-0.376,0.376-0.863,0.562-1.355,0.562s-0.979-0.186-1.355-0.562l-0.023-0.016L50,64.541z M53.045,74.615    c-0.758-0.001-1.381-0.285-1.827-0.739c-0.445-0.456-0.712-1.086-0.712-1.799v-2.255v-1.228v-2.103    c0.439,0.245,0.924,0.381,1.413,0.38c0.594,0.001,1.186-0.189,1.69-0.551c0.186,0.305,0.282,0.646,0.284,0.993    c-0.002,0.493-0.188,0.981-0.562,1.356c-0.114,0.114-0.242,0.205-0.373,0.284c-0.303,0.181-0.64,0.276-0.982,0.277    c-0.103,0-0.205-0.014-0.307-0.029c-0.175,0.296-0.303,0.612-0.363,0.941c-0.034,0.179-0.053,0.359-0.053,0.54    c0,0.745,0.286,1.494,0.854,2.062s1.317,0.854,2.062,0.854c0.32,0,0.641-0.063,0.947-0.169c0.244,0.392,0.579,0.716,0.974,0.954    C55.135,74.529,54.127,74.614,53.045,74.615z M60.146,73.256c0.08-0.15,0.146-0.308,0.199-0.473    c0.139,0.074,0.281,0.138,0.428,0.188C60.567,73.069,60.358,73.164,60.146,73.256z M63.062,71.575    c-0.086,0.086-0.178,0.159-0.273,0.225l-0.068,0.043c-0.309,0.193-0.658,0.293-1.012,0.294c-0.471-0.001-0.932-0.175-1.299-0.516    c-0.09-0.135-0.236-0.229-0.41-0.229c-0.277,0-0.5,0.224-0.5,0.5c-0.002,1.059-0.859,1.915-1.916,1.917    c-0.668-0.001-1.254-0.344-1.598-0.861c-0.191-0.289-0.305-0.635-0.314-1.006l-0.006-0.05c0-0.276-0.224-0.5-0.499-0.5    c-0.277,0-0.5,0.224-0.5,0.5c0,0.212,0.025,0.417,0.068,0.615c-0.186,0.057-0.373,0.094-0.566,0.094    c-0.492,0-0.979-0.186-1.354-0.561c-0.375-0.376-0.561-0.863-0.562-1.355c0-0.165,0.029-0.327,0.07-0.486    c0.566-0.067,1.111-0.301,1.566-0.698c0.547,0.479,1.229,0.732,1.913,0.731c0.34,0,0.68-0.066,1.006-0.187    c-0.092,0.288-0.15,0.584-0.15,0.883c0,0.744,0.285,1.494,0.854,2.062c0.195,0.195,0.512,0.195,0.707,0s0.195-0.512,0-0.707    c-0.375-0.375-0.561-0.862-0.561-1.354s0.188-0.979,0.562-1.355c0.375-0.374,0.861-0.561,1.355-0.561l0.139,0.014    c0.551,0.492,1.242,0.752,1.936,0.751c0.594,0.001,1.186-0.189,1.691-0.551c0.186,0.305,0.283,0.646,0.283,0.993    C63.624,70.712,63.438,71.199,63.062,71.575z M70.62,58.044c-0.043,0.32-0.105,0.678-0.178,1.05    c-0.057,0.29-0.123,0.593-0.197,0.908c-0.09,0.179-0.201,0.35-0.35,0.499c-0.375,0.375-0.863,0.561-1.355,0.562    c-0.492-0.001-0.979-0.187-1.355-0.562c-0.195-0.195-0.512-0.195-0.707,0s-0.195,0.512,0,0.707    c0.568,0.568,1.318,0.854,2.062,0.854c0.42,0.001,0.832-0.118,1.221-0.303c-0.145,0.454-0.305,0.916-0.486,1.39    c-0.508-0.366-1.104-0.56-1.701-0.559c-0.744-0.001-1.494,0.285-2.061,0.854c-0.57,0.568-0.855,1.317-0.855,2.062    c0,0.744,0.285,1.493,0.854,2.061c0.195,0.195,0.512,0.195,0.707,0s0.195-0.512,0-0.707c-0.375-0.375-0.561-0.862-0.561-1.354    c0-0.492,0.186-0.979,0.562-1.355c0.375-0.375,0.861-0.561,1.354-0.561c0.477,0,0.943,0.177,1.314,0.526    c-0.604,1.377-1.381,2.784-2.377,4.099c-0.561,0.74-1.193,1.449-1.896,2.111l0.01-0.107c0-0.603-0.197-1.204-0.57-1.715    c0.338-0.494,0.514-1.069,0.514-1.645c0-0.744-0.287-1.494-0.855-2.062c-0.195-0.195-0.512-0.195-0.707,0s-0.195,0.512,0,0.707    c0.375,0.376,0.561,0.863,0.562,1.355c-0.002,0.492-0.188,0.98-0.562,1.355c-0.375,0.376-0.863,0.562-1.355,0.562l-0.139-0.014    c-0.551-0.493-1.242-0.752-1.936-0.751c-0.342,0-0.684,0.066-1.008,0.187c0.092-0.288,0.15-0.585,0.15-0.884    c0-0.603-0.197-1.204-0.57-1.715c0.338-0.494,0.514-1.069,0.514-1.645c0-0.621-0.211-1.24-0.609-1.761    c0.207-0.366,0.328-0.764,0.365-1.17c0.516,0.388,1.129,0.595,1.742,0.594c0.488,0.001,0.971-0.134,1.41-0.378    c0.197,0.148,0.473,0.142,0.65-0.037c0.156-0.155,0.182-0.385,0.092-0.571l-0.092-0.136c-0.172-0.172-0.299-0.369-0.391-0.577    c-0.109-0.247-0.17-0.511-0.17-0.777c0-0.492,0.188-0.979,0.562-1.355c0.375-0.374,0.861-0.561,1.355-0.561    c0.48,0,0.955,0.18,1.326,0.537l0.021,0.028c0.195,0.195,0.512,0.195,0.707,0l0.002-0.002l0.004-0.003    c0.195-0.195,0.195-0.512,0-0.707l-0.027-0.023c-0.357-0.371-0.539-0.846-0.539-1.326c0-0.492,0.188-0.98,0.562-1.355    s0.861-0.561,1.355-0.561c0.477,0,0.947,0.179,1.316,0.53l-0.023,0.233c0,1.065,0.578,1.988,1.43,2.497l0.209,0.103    c0.23,0.116,0.473,0.213,0.736,0.263C70.644,57.642,70.638,57.84,70.62,58.044z M70.718,56.425    c-0.822-0.215-1.434-0.956-1.436-1.848c0.002-0.887,0.607-1.625,1.426-1.844c0.029,0.633,0.049,1.274,0.049,1.93    C70.757,55.241,70.743,55.83,70.718,56.425z"/><polygon fill="#000000" points="49.033,39.236 49.486,39.689 49.994,40.197 50.505,39.686 50.955,39.236 50.507,38.789     49.994,38.275 49.445,38.825   "/></g></g><text x="0" y="115" fill="#000000" font-size="5px" font-weight="bold" font-family="'Helvetica Neue', Helvetica, Arial-Unicode, Arial, Sans-serif">Created by Phil Smith</text><text x="0" y="120" fill="#000000" font-size="5px" font-weight="bold" font-family="'Helvetica Neue', Helvetica, Arial-Unicode, Arial, Sans-serif">from the Noun Project</text></svg>