<?xml version="1.0" encoding="utf-8"?>
<!-- Generator: Adobe Illustrator 22.0.1, SVG Export Plug-In . SVG Version: 6.00 Build 0)  -->
<svg version="1.1" id="Layer_1" xmlns="http://www.w3.org/2000/svg" xmlns:xlink="http://www.w3.org/1999/xlink" x="0px" y="0px"
	 viewBox="0 0 43.5 51.2" style="enable-background:new 0 0 43.5 51.2;" xml:space="preserve">
<style type="text/css">
	.st0{fill:none;}
</style>
<g>
	<g>
		<path class="st0" d="M16,42.5c-0.6,0-1.2-0.2-1.7-0.6c-0.2,0.3-0.3,0.6-0.3,1c0,0.5,0.2,1,0.6,1.4s0.9,0.6,1.4,0.6
			c0.5,0,0.9-0.2,1.3-0.5c-0.2-0.4-0.4-0.9-0.4-1.4c0-0.2,0-0.4,0.1-0.6C16.6,42.4,16.3,42.5,16,42.5z"/>
		<path class="st0" d="M11.2,19.2c0.7,0,1.5,0.3,2.1,0.9l0,0c0.1-0.3,0.3-0.6,0.6-0.9l0,0c0.4-0.4,0.5-0.9,0.5-1.3
			c0-0.5-0.2-1-0.6-1.4s-0.9-0.6-1.4-0.6s-1,0.2-1.4,0.6c-0.2,0.2-0.5,0.2-0.7,0s-0.2-0.5,0-0.7c0.6-0.6,1.3-0.9,2.1-0.9
			c0.6,0,1.2,0.2,1.7,0.5c0.2-0.3,0.3-0.6,0.3-1c0-0.5-0.2-1-0.6-1.4c-0.4-0.4-0.9-0.6-1.4-0.6s-1,0.2-1.4,0.6L11,13.2l0,0
			c0,0.8-0.3,1.6-0.9,2.2C9.8,15.7,9.4,15.9,9,16c0.3,0.1,0.6,0.3,0.8,0.6c0.6,0.6,0.9,1.3,0.9,2.1c0,0.2,0,0.4-0.1,0.6
			C10.8,19.2,11,19.2,11.2,19.2z"/>
		<path class="st0" d="M32.3,16.4C32,16,31.5,15.8,31,15.8s-1,0.2-1.4,0.6s-0.6,0.9-0.6,1.4c0,0.5,0.2,1,0.6,1.3l0,0
			c0.3,0.3,0.5,0.6,0.6,0.9l0,0c0.6-0.6,1.3-0.9,2.1-0.9c0.2,0,0.4,0,0.6,0.1c0-0.2-0.1-0.4-0.1-0.6c0-0.7,0.3-1.5,0.9-2.1
			c0.2-0.2,0.5-0.4,0.8-0.6c-0.4-0.1-0.8-0.4-1.1-0.7c-0.6-0.6-0.9-1.4-0.9-2.2l0,0L32.3,13c-0.4-0.4-0.9-0.6-1.4-0.6
			s-1,0.2-1.4,0.6c-0.4,0.4-0.6,0.9-0.6,1.4c0,0.3,0.1,0.7,0.3,1c0.5-0.4,1.1-0.6,1.7-0.5c0.7,0,1.5,0.3,2.1,0.9
			c0.2,0.2,0.2,0.5,0,0.7S32.5,16.6,32.3,16.4z"/>
		<path class="st0" d="M16.2,39.3c-0.7,0-1.3-0.2-1.9-0.7c-0.2,0.3-0.3,0.6-0.3,1c0,0.5,0.2,1,0.6,1.4c0.4,0.4,0.9,0.6,1.4,0.6
			c0.5,0,0.9-0.2,1.3-0.5c-0.2-0.4-0.4-0.9-0.4-1.4c0-0.1,0-0.3,0-0.4C16.7,39.3,16.5,39.3,16.2,39.3z"/>
		<path class="st0" d="M21.2,14.4c-0.2,0.2-0.3,0.3-0.5,0.4c0.2,0.1,0.4,0.3,0.6,0.5l-0.5-0.5L21.2,14.4z"/>
		<path class="st0" d="M28.1,17.8L28.1,17.8c0-0.2,0-0.4,0-0.5c-0.1,0.1-0.2,0.2-0.3,0.3C27.9,17.6,28,17.7,28.1,17.8z"/>
		<path class="st0" d="M27.6,44.8c0.5,0,1-0.2,1.4-0.6c0.4-0.4,0.6-0.9,0.6-1.4c0-0.3-0.1-0.7-0.3-1c-0.5,0.4-1.1,0.6-1.7,0.6
			c-0.3,0-0.6-0.1-0.9-0.2c0,0.2,0.1,0.4,0.1,0.6c0,0.5-0.1,1-0.4,1.4C26.6,44.7,27.1,44.8,27.6,44.8z"/>
		<path class="st0" d="M22.3,12.1c0,1.2,1,2.2,2.2,2.2h0l0.2,0.1c0.2,0.1,0.3,0.3,0.3,0.5c0,0.3-0.2,0.5-0.5,0.5v0
			c-1.2,0-2.2,1-2.2,2.2c0,1.2,1,2.2,2.2,2.2h0c0.3,0,0.5,0.2,0.5,0.5c0,0.3-0.2,0.5-0.5,0.5v0h0l0,0c-0.9,0-1.7-0.4-2.3-1v0.9v4.3
			v0.4c0.4-1,1.4-1.7,2.6-1.7c0.3,0,0.5,0.2,0.5,0.5s-0.2,0.5-0.5,0.5c-1,0-1.8,0.8-1.8,1.8c0,1,0.8,1.8,1.8,1.8
			c0.3,0,0.5,0.2,0.5,0.5s-0.2,0.5-0.5,0.5c-1.2,0-2.2-0.7-2.6-1.7v1.3v0.6v0.1c0.1,1.1,1,2.1,2.2,2.1c1.2,0,2.2-1,2.2-2.2l0,0l0,0
			c0-1.6,1.3-2.9,2.9-2.9c0.1,0,0.2,0,0.3,0c-0.1-0.3-0.1-0.5-0.1-0.8c0-0.6,0.2-1.1,0.5-1.6c-0.2-0.2-0.4-0.5-0.5-0.8
			c-0.2-0.4-0.2-0.8-0.2-1.2c0-0.2,0-0.3,0-0.5l0-0.1c0-0.1,0-0.2,0-0.3c0-0.4-0.2-0.9-0.4-1.2c0,1-0.5,1.8-1.2,2.3
			c0.7,0.5,1.2,1.2,1.2,2.1c0,1.4-1.1,2.5-2.5,2.5c-0.3,0-0.5-0.2-0.5-0.5s0.2-0.5,0.5-0.5c0.8,0,1.5-0.7,1.5-1.5
			c0-0.8-0.7-1.5-1.5-1.5l-0.2-0.1l-0.1,0c-0.2,0-0.4-0.2-0.5-0.4l0-0.1c0-0.3,0.2-0.5,0.5-0.5c1.1,0,1.9-0.9,1.9-1.9
			c0-1-0.8-1.9-1.9-1.9l0,0c-0.3,0-0.5-0.2-0.5-0.5v0l0,0c0-0.3,0.2-0.5,0.5-0.5l0,0c1,0,1.9-0.9,1.9-1.9c0-1.1-0.9-1.9-1.9-1.9h0
			c-1.6,0-2.9-1.3-2.9-2.9c0-1,0.5-1.9,1.3-2.4c-0.8-0.5-1.3-1.4-1.3-2.4c0-1.6,1.3-2.9,2.9-2.9c0.3,0,0.5,0.2,0.5,0.5
			s-0.2,0.5-0.5,0.5c-1.1,0-1.9,0.9-1.9,1.9c0,1.1,0.9,1.9,1.9,1.9c0.3,0,0.5,0.2,0.5,0.5c0,0.3-0.2,0.5-0.5,0.5l0,0
			c-1.1,0-1.9,0.9-1.9,1.9c0,1.1,0.9,1.9,1.9,1.9h0c0.9,0,1.6,0.4,2.2,1c0.1-0.3,0.3-0.6,0.6-0.8c0.6-0.6,1.3-0.9,2.1-0.9
			c0.6,0,1.3,0.2,1.8,0.6c0.1-0.4,0.4-0.8,0.7-1.1c0.2-0.2,0.5-0.2,0.7,0s0.2,0.5,0,0.7c-0.4,0.4-0.6,0.9-0.6,1.4
			c0,0.5,0.2,1,0.6,1.4c0.4,0.4,0.9,0.6,1.4,0.6c0.5,0,1-0.2,1.4-0.6l0.1,0c0.1-0.2,0.2-0.4,0.4-0.6c0.2-0.2,0.5-0.2,0.7,0
			s0.2,0.5,0,0.7c-0.3,0.3-0.5,0.7-0.5,1.2s0.2,0.8,0.5,1.2c0.2,0.2,0.2,0.5,0,0.7s-0.5,0.2-0.7,0c-0.1-0.1-0.2-0.2-0.3-0.3
			l-0.1-0.1c-0.4-0.4-0.9-0.6-1.4-0.6c-0.5,0-1,0.2-1.4,0.6s-0.6,0.9-0.6,1.4s0.2,1,0.6,1.4c0.2,0.2,0.2,0.5,0,0.7l0,0l0,0
			c-0.2,0.2-0.5,0.2-0.7,0c-0.4-0.4-0.9-0.6-1.4-0.6c-0.5,0-1,0.2-1.4,0.6c-0.3,0.3-0.4,0.6-0.5,1l0,0.1c0,0.1,0,0.2,0,0.3
			c0,0.4,0.2,0.9,0.5,1.2c0.5-0.4,1.1-0.6,1.7-0.6c0.4,0,0.9,0.1,1.3,0.3c0.1-0.5,0.4-1,0.8-1.4c0.6-0.6,1.3-0.9,2.1-0.9
			c0.3,0,0.5,0.1,0.8,0.1l0-0.2c0-0.3,0.1-0.7,0.2-1l-0.2,0c-0.7,0-1.4-0.3-2-0.8c-0.2-0.2-0.2-0.5,0-0.7s0.5-0.2,0.7,0
			c0.3,0.4,0.8,0.5,1.3,0.5c0.5,0,0.9-0.2,1.3-0.5c0.1-0.1,0.3-0.2,0.4-0.1c0.4-0.2,0.8-0.3,1.3-0.3l0,0c-0.7-2-1.5-3.8-2.3-5.5
			c-0.1,0.4-0.4,0.8-0.7,1.1c-0.2,0.2-0.5,0.2-0.7,0s-0.2-0.5,0-0.7c0.4-0.4,0.6-0.9,0.6-1.4c0-0.3-0.1-0.7-0.3-1l0-0.1
			c-0.1-0.1-0.1-0.2-0.2-0.3c-0.4-0.4-0.9-0.6-1.4-0.6c-0.5,0-1,0.2-1.4,0.6l-0.2,0.1c-0.5,0.4-1.2,0.7-1.9,0.7
			c-0.3,0-0.5-0.2-0.5-0.5s0.2-0.5,0.5-0.5c1.1,0,1.9-0.9,1.9-1.9C33.8,6.9,33,6,31.9,6c-0.3,0-0.5-0.2-0.5-0.5S31.7,5,31.9,5
			c0.6,0,1.1,0.2,1.6,0.5c-0.6-0.7-1.1-1.3-1.6-1.8c-0.6-0.6-1.1-1.1-1.4-1.4c-0.2-0.1-0.3-0.3-0.4-0.3L30,2l0,0
			c-0.5-0.3-1-0.6-1.6-0.8c0.4,0.5,0.7,1.1,0.7,1.8v0c0.4-0.2,0.9-0.4,1.4-0.4c0.3,0,0.5,0.2,0.5,0.5s-0.2,0.5-0.5,0.5
			c-1,0-1.8,0.8-1.8,1.8c0,1,0.8,1.8,1.8,1.8l0.2,0c0.4,0.1,0.9,0.3,1.2,0.6c0.2,0.2,0.2,0.5,0,0.7c-0.2,0.2-0.5,0.2-0.7,0
			c-0.3-0.3-0.6-0.4-1-0.4c-0.4,0-0.7,0.1-1,0.4s-0.4,0.6-0.4,1s0.1,0.7,0.4,1c0.2,0.2,0.2,0.5,0,0.7s-0.5,0.2-0.7,0
			c-0.3-0.3-0.5-0.7-0.6-1.1c-0.5,0.4-1.1,0.6-1.7,0.6c-0.3,0-0.5-0.2-0.5-0.5s0.2-0.5,0.5-0.5c1.1,0,1.9-0.9,1.9-1.9
			c0-1.1-0.9-1.9-1.9-1.9c-0.3,0-0.5-0.2-0.5-0.5s0.2-0.5,0.5-0.5c1.1,0,1.9-0.9,1.9-1.9c0-1.1-0.9-1.9-1.9-1.9l0,0
			c-0.9,0.2-1.8,0.7-2.4,1.3c-0.9,0.9-1.4,2.1-1.4,3.4V12L22.3,12.1L22.3,12.1z"/>
		<path class="st0" d="M34.8,8.6c0.2,0,0.4-0.1,0.6-0.1c0.1,0,0.3,0,0.4,0c-0.4-0.6-0.8-1.1-1.1-1.6c0.1,0.3,0.2,0.7,0.2,1
			C34.9,8.2,34.8,8.4,34.8,8.6z"/>
		<path class="st0" d="M33.9,32.2c-1.4-0.2-2.5-1.4-2.5-2.9c0-1.1-0.9-1.9-1.9-1.9c-1.1,0-1.9,0.9-1.9,1.9l0,0l0,0
			c0,1.7-1.4,3.2-3.2,3.2c-0.8,0-1.6-0.3-2.2-0.9h0l-0.5-0.7l-0.5,0.7h0c-0.6,0.5-1.3,0.9-2.2,0.9c-1.7,0-3.2-1.4-3.2-3.2l0,0l0,0
			c0-1.1-0.9-1.9-1.9-1.9c-1.1,0-1.9,0.9-1.9,1.9c0,1.5-1.1,2.7-2.5,2.9c0.2,0.1,0.5,0.3,0.7,0.5c0.6,0.6,0.9,1.3,0.9,2.1
			c0,0.4-0.1,0.9-0.3,1.3c0.3,0.1,0.5,0.2,0.8,0.2c0.5,0,1-0.2,1.4-0.6s0.6-0.9,0.6-1.4c0-0.2,0-0.3-0.1-0.4
			c-0.1-0.1-0.1-0.2-0.1-0.4c-0.1-0.2-0.2-0.4-0.4-0.6l-0.1-0.2c-0.6-0.3-1-0.9-1-1.6c0-0.3,0.2-0.5,0.5-0.5s0.5,0.2,0.5,0.5
			c0,0.4,0.4,0.8,0.8,0.8c0.4,0,0.8-0.4,0.8-0.8c0-0.3,0.2-0.5,0.5-0.5s0.5,0.2,0.5,0.5c0,0.8-0.5,1.5-1.2,1.7c0,0.1,0,0.2,0.1,0.3
			c0,0.1,0.1,0.2,0.1,0.3c0.4,0.8,1.2,1.4,2.2,1.5c0.6-0.6,1.4-0.9,2.2-0.9c0.8,0,1.7,0.3,2.3,0.9l0.7,0.6l0.7-0.6
			c0.6-0.6,1.5-0.9,2.3-0.9c0.8,0,1.6,0.3,2.2,0.9c1-0.1,1.8-0.6,2.2-1.5c0-0.1,0.1-0.2,0.1-0.3c0-0.1,0.1-0.2,0.1-0.3
			c-0.7-0.2-1.2-0.9-1.2-1.7c0-0.3,0.2-0.5,0.5-0.5c0.3,0,0.5,0.2,0.5,0.5c0,0.4,0.4,0.8,0.8,0.8c0.4,0,0.8-0.4,0.8-0.8
			c0-0.3,0.2-0.5,0.5-0.5c0.3,0,0.5,0.2,0.5,0.5c0,0.7-0.4,1.3-1,1.6L30.6,33c-0.2,0.2-0.3,0.4-0.4,0.6c0,0.1-0.1,0.2-0.1,0.4
			c0,0.1-0.1,0.3-0.1,0.4c0,0.5,0.2,1,0.6,1.4s0.9,0.6,1.4,0.6c0.3,0,0.6-0.1,0.8-0.2c-0.2-0.4-0.3-0.8-0.3-1.3
			c0-0.7,0.3-1.5,0.9-2.1C33.5,32.5,33.7,32.3,33.9,32.2z"/>
		<path class="st0" d="M8,47.9c0.1,0.1,0.2,0.2,0.3,0.3l0,0C8.2,48.1,8.1,48,8,47.9z"/>
		<path class="st0" d="M34.7,48.5L34.7,48.5l0.2-0.1l0.1,0C34.9,48.4,34.8,48.4,34.7,48.5z"/>
		<path class="st0" d="M8.8,48.5c-0.1,0-0.2-0.1-0.3-0.2l0.1,0l0.1,0.1L8.8,48.5z"/>
		<path class="st0" d="M27.5,41.5c0.5,0,1-0.2,1.4-0.6c0.4-0.4,0.6-0.9,0.6-1.4c0-0.3-0.1-0.7-0.3-1c-0.5,0.5-1.2,0.7-1.9,0.7
			c-0.2,0-0.5,0-0.7-0.1c0,0.1,0,0.3,0,0.4c0,0.5-0.1,1-0.4,1.4C26.6,41.3,27,41.5,27.5,41.5z"/>
		<polygon class="st0" points="35.9,31.9 35.9,31.8 35.7,31.9 		"/>
		<path class="st0" d="M35.2,48.2L35.2,48.2c0.2-0.1,0.3-0.2,0.4-0.3C35.4,48,35.3,48.1,35.2,48.2z"/>
		<path class="st0" d="M22.3,15.3L22.3,15.3c0.2-0.2,0.4-0.3,0.6-0.5c-0.2-0.1-0.4-0.3-0.6-0.4l0.4,0.4L22.3,15.3z"/>
		<path class="st0" d="M39.1,19.4c-0.4,0.4-0.6,0.9-0.6,1.4c0,0.3,0.1,0.6,0.2,0.8l0.1,0.1c0.1,0.1,0.1,0.2,0.1,0.3l0.2,0.2
			c0.2,0.2,0.2,0.5,0,0.7s-0.5,0.2-0.7,0c-0.2-0.2-0.3-0.4-0.4-0.6c-0.4-0.3-0.8-0.4-1.2-0.4c-0.5,0-1,0.2-1.4,0.6
			c-0.4,0.4-0.6,0.9-0.6,1.4s0.2,1,0.6,1.4c0.2,0.2,0.2,0.5,0,0.7s-0.5,0.2-0.7,0c-0.4-0.4-0.7-1-0.8-1.5c-0.4-0.3-0.8-0.5-1.3-0.5
			c-0.5,0-1,0.2-1.4,0.6c-0.4,0.4-0.6,0.9-0.6,1.4s0.2,1,0.6,1.4l0.1,0.1c0.7,0.5,1.1,1.3,1.1,2.3c0,1.1,0.9,1.9,1.9,1.9
			c0.9,0,1.7-0.6,1.9-1.5c-1.3-0.3-2.4-1.4-2.4-2.9c0-0.3,0.2-0.5,0.5-0.5c0.3,0,0.5,0.2,0.5,0.5c0,1.1,0.9,1.9,1.9,1.9
			c1.1,0,1.9-0.9,1.9-1.9c0-0.3,0.2-0.5,0.5-0.5c0.3,0,0.5,0.2,0.5,0.5c0,0.6-0.2,1.1-0.5,1.6c0.4,0.1,0.8,0.2,1.1,0.4
			c0.4-0.8,1.1-1.4,2.1-1.6c-0.1-0.8-0.1-1.5-0.2-2.3c-0.3-0.6-1-1.1-1.7-1.1c-1.1,0-1.9,0.9-1.9,1.9c0,0.3-0.2,0.5-0.5,0.5
			c-0.3,0-0.5-0.2-0.5-0.5c0-1.6,1.3-2.9,2.9-2.9c0.5,0,1,0.2,1.5,0.4c-0.3-1.6-0.7-3.1-1.1-4.5c-0.1,0-0.2,0-0.4,0
			C40,18.8,39.5,19,39.1,19.4z"/>
		<path class="st0" d="M22.3,40.9c0.4,0.4,0.9,0.6,1.4,0.6s1-0.2,1.4-0.6c0.4-0.4,0.6-0.9,0.6-1.4c0-0.5-0.2-1-0.6-1.4
			c-0.2-0.2-0.2-0.5,0-0.7s0.5-0.2,0.7,0l0.2,0.2l0,0c0.4,0.4,0.9,0.6,1.4,0.6c0.5,0,1-0.2,1.4-0.6c0.4-0.4,0.6-0.9,0.6-1.4
			c0-0.4-0.1-0.7-0.3-1.1c-0.6,0.4-1.3,0.6-2,0.6c-0.1,0-0.3-0.1-0.4-0.2l-0.1-0.1c-0.4-0.4-1-0.7-1.6-0.7s-1.1,0.2-1.6,0.7
			c-0.4,0.4-0.7,1-0.7,1.6c0,0.6,0.2,1.1,0.7,1.6c0.2,0.2,0.2,0.5,0,0.7c-0.2,0.2-0.5,0.2-0.7,0l-0.2-0.3h0l-0.5-0.7l-0.5,0.7h0
			L21,39.6c-0.2,0.2-0.5,0.2-0.7,0c-0.2-0.2-0.2-0.5,0-0.7c0.4-0.4,0.7-1,0.7-1.6c0-0.6-0.2-1.1-0.7-1.6c-0.4-0.4-1-0.7-1.6-0.7
			s-1.1,0.2-1.6,0.7L17,35.8c-0.1,0.1-0.2,0.2-0.4,0.2c-0.8,0-1.5-0.2-2-0.6c-0.2,0.3-0.3,0.7-0.3,1.1c0,0.5,0.2,1,0.6,1.4
			c0.4,0.4,0.9,0.6,1.4,0.6s1-0.2,1.4-0.6l0,0l0.2-0.2c0.2-0.2,0.5-0.2,0.7,0s0.2,0.5,0,0.7c-0.4,0.4-0.6,0.9-0.6,1.4
			c0,0.5,0.2,1,0.6,1.4c0.4,0.4,0.9,0.6,1.4,0.6s1-0.2,1.4-0.6l0,0l0.5-0.8L22.3,40.9L22.3,40.9z"/>
		<path class="st0" d="M18.1,41.9c-0.2,0.3-0.3,0.6-0.3,1c0,0.5,0.2,1,0.6,1.4c0.1,0.1,0.2,0.2,0.4,0.3c0.3,0.2,0.6,0.3,1,0.3
			c0.1,0,0.2,0,0.3,0c0.2,0.3,0.3,0.6,0.4,0.9c0,0.2,0.1,0.4,0.1,0.5c0,0.7-0.3,1.5-0.9,2.1s-1.3,0.9-2.1,0.9
			c-0.3,0-0.6-0.1-0.9-0.2c-0.2,0.4-0.6,0.7-1,1c1,0.1,2,0.2,3,0.2c0.8,0,1.4-0.3,1.8-0.7c0.4-0.5,0.7-1.1,0.7-1.8v-2.3v-1.2v-2.1
			c-0.4,0.2-0.9,0.4-1.4,0.4C19.2,42.5,18.7,42.3,18.1,41.9z"/>
		<path class="st0" d="M16.1,47.6L16.1,47.6c0-0.3,0.2-0.6,0.5-0.6s0.5,0.2,0.5,0.5c0,0.2,0,0.4-0.1,0.6c0.2,0.1,0.4,0.1,0.6,0.1
			c0.5,0,1-0.2,1.4-0.6c0.4-0.4,0.6-0.9,0.6-1.4c0-0.2,0-0.3-0.1-0.5c-0.6-0.1-1.1-0.3-1.6-0.7c-0.5,0.5-1.2,0.7-1.9,0.7
			c-0.3,0-0.7-0.1-1-0.2c0.1,0.3,0.2,0.6,0.2,0.9c0,0.7-0.3,1.5-0.9,2.1c-0.2,0.2-0.5,0.2-0.7,0s-0.2-0.5,0-0.7
			c0.4-0.4,0.6-0.9,0.6-1.4s-0.2-1-0.6-1.4c-0.4-0.4-0.9-0.6-1.4-0.6l-0.1,0c-0.6,0.5-1.2,0.8-1.9,0.8c-0.6,0-1.2-0.2-1.7-0.6
			c-0.2,0.3-0.3,0.6-0.3,1c0,0.5,0.2,1,0.6,1.4c0.1,0.1,0.2,0.2,0.3,0.2l0.1,0c0.3,0.2,0.7,0.3,1,0.3c0.5,0,0.9-0.2,1.3-0.5
			c0.1-0.1,0.2-0.2,0.4-0.2c0.3,0,0.5,0.2,0.5,0.5c0,1.1,0.9,1.9,1.9,1.9c0.7,0,1.3-0.3,1.6-0.9C16,48.3,16.1,47.9,16.1,47.6z"/>
		<path class="st0" d="M26.9,49c-0.3,0.1-0.6,0.2-0.9,0.2c-0.7,0-1.5-0.3-2.1-0.9S23,47,23,46.3c0-0.2,0-0.4,0.1-0.5
			c0.1-0.3,0.2-0.6,0.4-0.9c0.1,0,0.2,0,0.3,0c0.3,0,0.7-0.1,1-0.3c0.1-0.1,0.3-0.2,0.4-0.3c0.4-0.4,0.6-0.9,0.6-1.4
			c0-0.3-0.1-0.7-0.3-1c-0.5,0.4-1.1,0.6-1.7,0.6c-0.5,0-1-0.1-1.4-0.4v2.1v1.2v2.3c0,0.7,0.3,1.3,0.7,1.8c0.4,0.5,1.1,0.7,1.8,0.7
			c1.1,0,2.1-0.1,3-0.2C27.5,49.8,27.1,49.4,26.9,49z"/>
		<path class="st0" d="M31.9,48.9c0.2-0.1,0.4-0.2,0.6-0.3c-0.1-0.1-0.3-0.1-0.4-0.2C32,48.6,32,48.7,31.9,48.9z"/>
		<path class="st0" d="M41.5,32.7c-0.9-0.5-1.4-1.4-1.4-2.5l0-0.2c-0.4-0.4-0.8-0.5-1.3-0.5c-0.5,0-1,0.2-1.4,0.6s-0.6,0.9-0.6,1.4
			c0,0.5,0.2,1,0.5,1.3l0,0c0.2,0.2,0.2,0.5,0,0.7l0,0l0,0c-0.2,0.2-0.5,0.2-0.7,0l0,0c-0.4-0.4-0.8-0.5-1.3-0.5
			c-0.5,0-1,0.2-1.4,0.6c-0.4,0.4-0.6,0.9-0.6,1.4c0,0.3,0.1,0.5,0.2,0.8c0.1,0.2,0.2,0.4,0.4,0.6l0.1,0.1c0.1,0.2,0.1,0.4-0.1,0.6
			c-0.2,0.2-0.5,0.2-0.7,0c-0.4,0.2-0.9,0.4-1.4,0.4c-0.6,0-1.2-0.2-1.7-0.6c0,0.4-0.2,0.8-0.4,1.2c0.4,0.5,0.6,1.1,0.6,1.8
			c0,0.6-0.2,1.2-0.5,1.6c0.4,0.5,0.6,1.1,0.6,1.7c0,0.3-0.1,0.6-0.2,0.9c0.3-0.1,0.7-0.2,1-0.2c0.7,0,1.4,0.3,1.9,0.8l0.1,0
			c0.5,0,1-0.2,1.4-0.6c0.4-0.4,0.6-0.9,0.6-1.4c0-0.5-0.2-1-0.6-1.4c-0.2-0.2-0.2-0.5,0-0.7s0.5-0.2,0.7,0c0.6,0.6,0.9,1.3,0.9,2.1
			c0,0.6-0.2,1.2-0.5,1.6c0.4,0.5,0.6,1.1,0.6,1.7l0,0.1c0.7-0.7,1.3-1.4,1.9-2.1c1-1.3,1.8-2.7,2.4-4.1c-0.4-0.3-0.8-0.5-1.3-0.5
			c-0.5,0-1,0.2-1.4,0.6c-0.4,0.4-0.6,0.9-0.6,1.4c0,0.5,0.2,1,0.6,1.4c0.2,0.2,0.2,0.5,0,0.7s-0.5,0.2-0.7,0
			c-0.6-0.6-0.9-1.3-0.9-2.1c0-0.7,0.3-1.5,0.9-2.1c0.6-0.6,1.3-0.9,2.1-0.9c0.6,0,1.2,0.2,1.7,0.6c0.2-0.5,0.3-0.9,0.5-1.4
			c-0.4,0.2-0.8,0.3-1.2,0.3c-0.7,0-1.5-0.3-2.1-0.9c-0.2-0.2-0.2-0.5,0-0.7s0.5-0.2,0.7,0c0.4,0.4,0.9,0.6,1.4,0.6
			c0.5,0,1-0.2,1.4-0.6c0.1-0.1,0.3-0.3,0.3-0.5c0.1-0.3,0.1-0.6,0.2-0.9c0.1-0.4,0.1-0.7,0.2-1c0-0.2,0-0.4,0-0.6
			c-0.3,0-0.5-0.1-0.7-0.3L41.5,32.7z M39.3,35c-0.6,0.6-1.3,0.9-2.1,0.9c-0.2,0-0.4,0-0.5-0.1c0,0.2,0.1,0.4,0.1,0.5
			c0,0.5-0.1,1-0.4,1.5c-0.1,0.2-0.3,0.4-0.4,0.6l-0.2,0.2c-0.5,0.5-1.2,0.7-1.9,0.7c-0.3,0-0.6-0.1-0.9-0.2c-0.2,0.3-0.3,0.6-0.3,1
			c0,0.5,0.2,1,0.6,1.4c0.2,0.2,0.2,0.5,0,0.7s-0.5,0.2-0.7,0c-0.6-0.6-0.9-1.3-0.9-2.1c0-0.5,0.1-1,0.4-1.5l-0.3-0.2
			c-0.2-0.2-0.2-0.5,0-0.7s0.5-0.2,0.7,0l0.2,0.2c0.3,0.3,0.7,0.4,1.2,0.4l0.2,0l0.2,0c0.3-0.1,0.6-0.2,0.9-0.5
			c0.1-0.1,0.2-0.2,0.3-0.4c0.2-0.3,0.3-0.6,0.3-1c0-0.5-0.2-1-0.5-1.3l0,0c-0.2-0.2-0.2-0.5,0-0.7l0,0l0,0c0.2-0.2,0.5-0.2,0.7,0
			l0,0c0.4,0.4,0.8,0.5,1.3,0.5c0.5,0,1-0.2,1.4-0.6c0.4-0.4,0.6-0.9,0.6-1.4c0-0.5-0.2-1-0.6-1.4c-0.2-0.2-0.2-0.5,0-0.7
			c0.2-0.2,0.5-0.2,0.7,0c0.6,0.6,0.9,1.3,0.9,2.1C40.1,33.6,39.8,34.4,39.3,35z"/>
		<path class="st0" d="M41,30.2c0,0.9,0.6,1.6,1.4,1.8c0-0.6,0-1.2,0-1.8c0-0.7,0-1.3,0-1.9C41.6,28.6,41,29.3,41,30.2z"/>
		<path class="st0" d="M11,48.6c0.2,0.1,0.4,0.2,0.6,0.3c-0.1-0.2-0.1-0.3-0.2-0.5C11.3,48.5,11.1,48.5,11,48.6z"/>
		<path class="st0" d="M33.4,45.4c-0.7,0-1.4-0.3-1.9-0.8l-0.1,0c-0.5,0-1,0.2-1.4,0.6c-0.4,0.4-0.6,0.9-0.6,1.4s0.2,1,0.6,1.4
			c0.2,0.2,0.2,0.5,0,0.7s-0.5,0.2-0.7,0c-0.6-0.6-0.9-1.3-0.9-2.1c0-0.3,0.1-0.6,0.2-0.9c-0.3,0.1-0.7,0.2-1,0.2
			c-0.7,0-1.4-0.3-1.9-0.7c-0.5,0.4-1,0.6-1.6,0.7c0,0.2-0.1,0.3-0.1,0.5c0,0.5,0.2,1,0.6,1.4c0.4,0.4,0.9,0.6,1.4,0.6
			c0.2,0,0.4,0,0.6-0.1c0-0.2-0.1-0.4-0.1-0.6c0-0.3,0.2-0.5,0.5-0.5c0.3,0,0.5,0.2,0.5,0.5l0,0.1c0,0.4,0.1,0.7,0.3,1
			c0.3,0.5,0.9,0.9,1.6,0.9c1.1,0,1.9-0.9,1.9-1.9c0-0.3,0.2-0.5,0.5-0.5c0.2,0,0.3,0.1,0.4,0.2c0.4,0.3,0.8,0.5,1.3,0.5
			c0.4,0,0.7-0.1,1-0.3l0.1,0c0.1-0.1,0.2-0.1,0.3-0.2c0.4-0.4,0.6-0.9,0.6-1.4c0-0.3-0.1-0.7-0.3-1C34.6,45.2,34,45.4,33.4,45.4z"
			/>
		<path class="st0" d="M8.8,40.4c0.2,0.2,0.2,0.5,0,0.7c-0.4,0.4-0.6,0.9-0.6,1.4c0,0.5,0.2,1,0.6,1.4c0.4,0.4,0.9,0.6,1.4,0.6
			l0.1,0c0.6-0.5,1.2-0.8,1.9-0.8c0.3,0,0.7,0.1,1,0.2c-0.1-0.3-0.2-0.6-0.2-0.9c0-0.6,0.2-1.2,0.6-1.7c-0.3-0.5-0.5-1.1-0.5-1.6
			c0-0.6,0.2-1.2,0.6-1.8c-0.2-0.4-0.3-0.8-0.4-1.2c-0.5,0.4-1.1,0.6-1.7,0.6c-0.5,0-1-0.1-1.4-0.4C10,37,9.7,37,9.5,36.8
			c-0.2-0.2-0.2-0.4-0.1-0.6l0.1-0.1c0.2-0.2,0.3-0.4,0.4-0.6c0.1-0.2,0.2-0.5,0.2-0.8c0-0.5-0.2-1-0.6-1.4
			c-0.4-0.4-0.9-0.6-1.4-0.6c-0.5,0-1,0.2-1.3,0.5l0,0c-0.2,0.2-0.5,0.2-0.7,0l0,0l0,0c-0.2-0.2-0.2-0.5,0-0.7l0,0
			c0.4-0.4,0.5-0.8,0.5-1.3c0-0.5-0.2-1-0.6-1.4s-0.9-0.6-1.4-0.6c-0.5,0-0.9,0.2-1.3,0.5l0,0.2c0,1.1-0.6,2-1.4,2.5l-0.2,0.1
			c-0.2,0.1-0.5,0.2-0.7,0.3c0,0.2,0,0.4,0,0.6c0,0.3,0.1,0.7,0.2,1.1c0.1,0.3,0.1,0.6,0.2,0.9c0.1,0.2,0.2,0.3,0.4,0.5
			c0.4,0.4,0.9,0.6,1.4,0.6c0.5,0,1-0.2,1.4-0.6c0.2-0.2,0.5-0.2,0.7,0s0.2,0.5,0,0.7c-0.6,0.6-1.3,0.9-2.1,0.9
			c-0.4,0-0.8-0.1-1.2-0.3c0.1,0.5,0.3,0.9,0.5,1.4c0.5-0.4,1.1-0.6,1.7-0.6c0.7,0,1.5,0.3,2.1,0.9c0.6,0.6,0.9,1.3,0.9,2.1
			c0,0.7-0.3,1.5-0.9,2.1c-0.2,0.2-0.5,0.2-0.7,0s-0.2-0.5,0-0.7c0.4-0.4,0.6-0.9,0.6-1.4s-0.2-1-0.6-1.4c-0.4-0.4-0.9-0.6-1.4-0.6
			c-0.5,0-0.9,0.2-1.3,0.5c0.6,1.4,1.4,2.8,2.4,4.1c0.6,0.7,1.2,1.4,1.9,2.1l0-0.1c0-0.6,0.2-1.2,0.6-1.7c-0.3-0.5-0.5-1.1-0.5-1.6
			c0-0.7,0.3-1.5,0.9-2.1C8.2,40.2,8.6,40.2,8.8,40.4z M7.9,38.5l-0.2-0.2c-0.2-0.2-0.3-0.4-0.4-0.6c-0.3-0.5-0.4-1-0.4-1.5
			c0-0.2,0-0.4,0.1-0.6c-0.2,0-0.4,0.1-0.5,0.1c-0.7,0-1.5-0.3-2.1-0.9c-0.6-0.6-0.9-1.3-0.9-2.1c0-0.7,0.3-1.5,0.9-2.1
			c0.2-0.2,0.5-0.2,0.7,0s0.2,0.5,0,0.7c-0.4,0.4-0.6,0.9-0.6,1.4c0,0.5,0.2,1,0.6,1.4s0.9,0.6,1.4,0.6c0.5,0,1-0.2,1.3-0.5l0,0
			c0.2-0.2,0.5-0.2,0.7,0l0,0l0,0c0.2,0.2,0.2,0.5,0,0.7l0,0c-0.4,0.4-0.5,0.8-0.5,1.3c0,0.3,0.1,0.7,0.3,1c0.1,0.1,0.2,0.3,0.3,0.4
			c0.3,0.3,0.6,0.4,0.9,0.5l0.2,0l0.2,0c0.4,0,0.8-0.1,1.2-0.4l0.2-0.2c0.2-0.2,0.5-0.2,0.7,0s0.2,0.5,0,0.7l-0.3,0.2
			c0.3,0.5,0.4,1,0.4,1.5c0,0.7-0.3,1.5-0.9,2.1c-0.2,0.2-0.5,0.2-0.7,0s-0.2-0.5,0-0.7c0.4-0.4,0.6-0.9,0.6-1.4
			c0-0.3-0.1-0.7-0.3-1c-0.3,0.1-0.6,0.2-0.9,0.2C9.1,39.2,8.4,39,7.9,38.5z"/>
		<path class="st0" d="M15.7,17.5c-0.1-0.1-0.2-0.2-0.3-0.3c0,0.2,0,0.3,0,0.5v0C15.5,17.7,15.6,17.6,15.7,17.5z"/>
		<path class="st0" d="M3.2,28.9c0.4-0.2,0.7-0.4,1.1-0.4c-0.3-0.5-0.5-1-0.5-1.6c0-0.3,0.2-0.5,0.5-0.5s0.5,0.2,0.5,0.5
			c0,1.1,0.9,1.9,1.9,1.9c1.1,0,1.9-0.9,1.9-1.9c0-0.3,0.2-0.5,0.5-0.5s0.5,0.2,0.5,0.5c0,1.4-1,2.6-2.4,2.9c0.2,0.8,1,1.5,1.9,1.5
			c1.1,0,1.9-0.9,1.9-1.9c0-0.9,0.4-1.7,1.1-2.3l0.1-0.1c0.4-0.4,0.6-0.9,0.6-1.4s-0.2-1-0.6-1.4c-0.4-0.4-0.9-0.6-1.4-0.6
			c-0.5,0-0.9,0.2-1.3,0.5c-0.1,0.6-0.4,1.1-0.8,1.5c-0.2,0.2-0.5,0.2-0.7,0s-0.2-0.5,0-0.7c0.4-0.4,0.6-0.9,0.6-1.4s-0.2-1-0.6-1.4
			c-0.4-0.4-0.9-0.6-1.4-0.6c-0.4,0-0.9,0.2-1.2,0.4c-0.1,0.2-0.3,0.4-0.4,0.6c-0.2,0.2-0.5,0.2-0.7,0s-0.2-0.5,0-0.7l0.2-0.2
			c0-0.1,0.1-0.2,0.1-0.3l0.1-0.1C4.9,21.3,5,21,5,20.7c0-0.5-0.2-1-0.6-1.4s-0.9-0.6-1.4-0.6c-0.1,0-0.2,0-0.4,0
			c-0.4,1.4-0.8,2.9-1.1,4.5C2,23.1,2.5,23,3.1,23C4.7,23,6,24.3,6,25.9c0,0.3-0.2,0.5-0.5,0.5S5,26.2,5,25.9C5,24.8,4.1,24,3.1,24
			c-0.8,0-1.4,0.4-1.7,1.1c-0.1,0.7-0.2,1.5-0.2,2.3C2,27.5,2.8,28.1,3.2,28.9z"/>
		<path class="st0" d="M8.7,8.6c0-0.2-0.1-0.4-0.1-0.6c0-0.4,0.1-0.7,0.2-1c-0.4,0.5-0.8,1-1.1,1.6c0.1,0,0.3,0,0.4,0
			C8.3,8.5,8.5,8.5,8.7,8.6z"/>
		<path class="st0" d="M2.5,30.2c0-0.9-0.6-1.6-1.4-1.8c0,0.6,0,1.3,0,1.9c0,0.6,0,1.2,0,1.8C1.9,31.8,2.5,31.1,2.5,30.2z"/>
		<polygon class="st0" points="7.6,31.9 7.8,31.9 7.6,31.8 		"/>
		<path class="st0" d="M4.3,18.1c0.1,0,0.3,0,0.4,0.1c0.4,0.4,0.8,0.5,1.3,0.5s0.9-0.2,1.3-0.5C7.5,18,7.8,18,8,18.2s0.2,0.5,0,0.7
			c-0.5,0.5-1.3,0.8-2,0.8l-0.2,0c0.1,0.3,0.2,0.6,0.2,1l0,0.2c0.3-0.1,0.5-0.1,0.8-0.1c0.7,0,1.5,0.3,2.1,0.9
			C9.2,22,9.5,22.5,9.6,23c0.4-0.2,0.8-0.3,1.3-0.3c0.6,0,1.2,0.2,1.7,0.6c0.3-0.4,0.5-0.8,0.5-1.2c0-0.1,0-0.2,0-0.3l0-0.1
			c-0.1-0.4-0.2-0.7-0.5-1c-0.4-0.4-0.9-0.6-1.4-0.6s-1,0.2-1.4,0.6c-0.2,0.2-0.5,0.2-0.7,0l0,0l0,0c-0.2-0.2-0.2-0.5,0-0.7
			c0.4-0.4,0.6-0.9,0.6-1.4s-0.2-1-0.6-1.4c-0.4-0.4-0.9-0.6-1.4-0.6s-1,0.2-1.4,0.6l-0.1,0.1c-0.1,0.1-0.2,0.2-0.3,0.3
			c-0.2,0.2-0.5,0.2-0.7,0s-0.2-0.5,0-0.7c0.3-0.3,0.5-0.7,0.5-1.2S5.6,15,5.3,14.7c-0.2-0.2-0.2-0.5,0-0.7s0.5-0.2,0.7,0
			c0.2,0.2,0.3,0.4,0.4,0.6l0.1,0c0.4,0.4,0.9,0.6,1.4,0.6c0.5,0,1-0.2,1.4-0.6c0.4-0.4,0.6-0.9,0.6-1.4s-0.2-1-0.6-1.4
			c-0.2-0.2-0.2-0.5,0-0.7s0.5-0.2,0.7,0c0.3,0.3,0.5,0.7,0.7,1.1c0.5-0.4,1.2-0.6,1.8-0.6c0.7,0,1.5,0.3,2.1,0.9
			c0.2,0.2,0.4,0.5,0.6,0.8c0.5-0.6,1.3-1,2.2-1h0c1.1,0,1.9-0.9,1.9-1.9c0-1.1-0.9-1.9-1.9-1.9l0,0l0,0c-0.3,0-0.5-0.2-0.5-0.5
			s0.2-0.5,0.5-0.5c1.1,0,1.9-0.9,1.9-1.9c0-1.1-0.9-1.9-1.9-1.9c-0.3,0-0.5-0.2-0.5-0.5s0.2-0.5,0.5-0.5c1.6,0,2.9,1.3,2.9,2.9
			c0,1-0.5,1.9-1.3,2.4c0.8,0.5,1.3,1.4,1.3,2.4c0,1.6-1.3,2.9-2.9,2.9h0c-1.1,0-1.9,0.9-1.9,1.9c0,1,0.8,1.9,1.9,1.9l0,0
			c0.3,0,0.5,0.2,0.5,0.5l0,0v0c0,0.3-0.2,0.5-0.5,0.5l0,0c-1,0-1.9,0.9-1.9,1.9c0,1.1,0.9,1.9,1.9,1.9c0.3,0,0.5,0.2,0.5,0.5l0,0.1
			c0,0.2-0.2,0.4-0.5,0.4l-0.1,0L17,22.9c-0.8,0-1.5,0.7-1.5,1.5c0,0.8,0.7,1.5,1.5,1.5c0.3,0,0.5,0.2,0.5,0.5S17.3,27,17,27
			c-1.4,0-2.5-1.1-2.5-2.5c0-0.9,0.5-1.7,1.2-2.1c-0.7-0.5-1.2-1.4-1.2-2.3c-0.3,0.4-0.4,0.8-0.4,1.2c0,0.1,0,0.2,0,0.3l0,0.1
			c0,0.2,0,0.3,0,0.5c0,0.4-0.1,0.8-0.2,1.2c-0.1,0.3-0.3,0.6-0.5,0.8c0.3,0.5,0.5,1,0.5,1.6c0,0.3-0.1,0.5-0.1,0.8
			c0.1,0,0.2,0,0.3,0c1.6,0,2.9,1.3,2.9,2.9l0,0l0,0c0,1.2,1,2.2,2.2,2.2c1.2,0,2.1-0.9,2.2-2.1v-0.1v-0.6v-1.3
			c-0.4,1-1.4,1.7-2.6,1.7c-0.3,0-0.5-0.2-0.5-0.5s0.2-0.5,0.5-0.5c1,0,1.8-0.8,1.8-1.8c0-1-0.8-1.8-1.8-1.8c-0.3,0-0.5-0.2-0.5-0.5
			s0.2-0.5,0.5-0.5c1.2,0,2.2,0.7,2.6,1.7v-0.4v-4.3v-0.9c-0.6,0.6-1.4,1-2.3,1l0,0h0v0c-0.3,0-0.5-0.2-0.5-0.5
			c0-0.3,0.2-0.5,0.5-0.5h0c1.2,0,2.2-1,2.2-2.2c0-1.2-1-2.2-2.2-2.2v0c-0.3,0-0.5-0.2-0.5-0.5c0-0.2,0.1-0.4,0.3-0.5l0.2-0.1h0
			c1.2,0,2.2-1,2.2-2.2v0l0-0.1V5.8c0-1.3-0.5-2.5-1.4-3.4c-0.7-0.7-1.5-1.1-2.4-1.3l0,0c-1.1,0-1.9,0.9-1.9,1.9
			c0,1.1,0.9,1.9,1.9,1.9c0.3,0,0.5,0.2,0.5,0.5s-0.2,0.5-0.5,0.5c-1.1,0-1.9,0.9-1.9,1.9c0,1.1,0.9,1.9,1.9,1.9
			c0.3,0,0.5,0.2,0.5,0.5s-0.2,0.5-0.5,0.5c-0.7,0-1.2-0.2-1.7-0.6c-0.1,0.4-0.3,0.8-0.6,1.1c-0.2,0.2-0.5,0.2-0.7,0
			c-0.2-0.2-0.2-0.5,0-0.7c0.3-0.3,0.4-0.6,0.4-1c0-0.4-0.1-0.7-0.4-1c-0.3-0.3-0.6-0.4-1-0.4c-0.4,0-0.7,0.1-1,0.4
			c-0.2,0.2-0.5,0.2-0.7,0s-0.2-0.5,0-0.7c0.3-0.3,0.8-0.6,1.2-0.6l0.2,0c1,0,1.8-0.8,1.8-1.8c0-1-0.8-1.8-1.8-1.8
			c-0.3,0-0.5-0.2-0.5-0.5s0.2-0.5,0.5-0.5c0.5,0,1,0.1,1.4,0.4v0c0-0.7,0.3-1.3,0.7-1.8c-0.6,0.2-1.1,0.4-1.6,0.8l0,0L13.4,2
			c-0.1,0.1-0.2,0.2-0.4,0.3c-0.3,0.3-0.8,0.8-1.4,1.4c-0.5,0.5-1,1.1-1.6,1.8C10.5,5.2,11,5,11.6,5c0.3,0,0.5,0.2,0.5,0.5
			S11.9,6,11.6,6c-1.1,0-1.9,0.9-1.9,1.9c0,1.1,0.9,1.9,1.9,1.9c0.3,0,0.5,0.2,0.5,0.5s-0.2,0.5-0.5,0.5c-0.7,0-1.4-0.3-1.9-0.7
			L9.5,10C9.1,9.6,8.6,9.5,8.1,9.5s-1,0.2-1.4,0.6c-0.1,0.1-0.2,0.2-0.2,0.3l0,0.1c-0.2,0.3-0.3,0.6-0.3,1c0,0.5,0.2,1,0.6,1.4
			c0.2,0.2,0.2,0.5,0,0.7s-0.5,0.2-0.7,0c-0.3-0.3-0.5-0.7-0.7-1.1C4.5,14,3.7,15.8,3,17.8l0,0C3.5,17.8,3.9,17.9,4.3,18.1z"/>
		<path d="M10.7,39.1c0.2,0.3,0.3,0.6,0.3,1c0,0.5-0.2,1-0.6,1.4c-0.2,0.2-0.2,0.5,0,0.7s0.5,0.2,0.7,0c0.6-0.6,0.9-1.3,0.9-2.1
			c0-0.5-0.1-1-0.4-1.5l0.3-0.2c0.2-0.2,0.2-0.5,0-0.7s-0.5-0.2-0.7,0l-0.2,0.2c-0.3,0.3-0.7,0.4-1.2,0.4l-0.2,0l-0.2,0
			c-0.3-0.1-0.6-0.2-0.9-0.5c-0.1-0.1-0.2-0.2-0.3-0.4c-0.2-0.3-0.3-0.6-0.3-1c0-0.5,0.2-1,0.5-1.3l0,0c0.2-0.2,0.2-0.5,0-0.7l0,0
			l0,0c-0.2-0.2-0.5-0.2-0.7,0l0,0c-0.4,0.4-0.8,0.5-1.3,0.5c-0.5,0-1-0.2-1.4-0.6c-0.4-0.4-0.6-0.9-0.6-1.4c0-0.5,0.2-1,0.6-1.4
			c0.2-0.2,0.2-0.5,0-0.7s-0.5-0.2-0.7,0c-0.6,0.6-0.9,1.3-0.9,2.1c0,0.7,0.3,1.5,0.9,2.1c0.6,0.6,1.3,0.9,2.1,0.9
			c0.2,0,0.4,0,0.5-0.1c0,0.2-0.1,0.4-0.1,0.5c0,0.5,0.1,1,0.4,1.5c0.1,0.2,0.3,0.4,0.4,0.6l0.2,0.2c0.5,0.5,1.2,0.7,1.9,0.7
			C10.1,39.2,10.4,39.2,10.7,39.1z"/>
		<path d="M38.5,30.8c-0.2,0.2-0.2,0.5,0,0.7c0.4,0.4,0.6,0.9,0.6,1.4c0,0.5-0.2,1-0.6,1.4c-0.4,0.4-0.9,0.6-1.4,0.6
			c-0.5,0-1-0.2-1.3-0.5l0,0c-0.2-0.2-0.5-0.2-0.7,0l0,0l0,0c-0.2,0.2-0.2,0.5,0,0.7l0,0c0.4,0.4,0.5,0.8,0.5,1.3
			c0,0.3-0.1,0.7-0.3,1c-0.1,0.1-0.2,0.3-0.3,0.4c-0.3,0.3-0.6,0.4-0.9,0.5l-0.2,0l-0.2,0c-0.4,0-0.8-0.1-1.2-0.4l-0.2-0.2
			c-0.2-0.2-0.5-0.2-0.7,0s-0.2,0.5,0,0.7l0.3,0.2c-0.3,0.5-0.4,1-0.4,1.5c0,0.7,0.3,1.5,0.9,2.1c0.2,0.2,0.5,0.2,0.7,0
			s0.2-0.5,0-0.7c-0.4-0.4-0.6-0.9-0.6-1.4c0-0.3,0.1-0.7,0.3-1c0.3,0.1,0.6,0.2,0.9,0.2c0.7,0,1.3-0.2,1.9-0.7l0.2-0.2
			c0.2-0.2,0.3-0.4,0.4-0.6c0.3-0.5,0.4-1,0.4-1.5c0-0.2,0-0.4-0.1-0.5c0.2,0,0.4,0.1,0.5,0.1c0.7,0,1.5-0.3,2.1-0.9
			s0.9-1.3,0.9-2.1c0-0.7-0.3-1.5-0.9-2.1C39.1,30.6,38.7,30.6,38.5,30.8z"/>
		<path d="M43.5,30.3c0-0.8,0-1.6-0.1-2.4c0-0.1,0-0.2,0-0.3c0-0.5-0.1-1-0.1-1.5c0-0.5-0.1-0.9-0.2-1.4c-0.3-1.9-0.6-3.6-1.1-5.3
			c-0.1-0.5-0.3-1-0.4-1.4c-1-3.2-2.4-5.9-3.8-8.2l0-0.1c-0.3-0.4-0.5-0.8-0.8-1.2c-3.2-4.9-6.5-7.4-6.5-7.4l0,0
			c-1-0.7-2.2-1.1-3.5-1.1c-2.4,0-4.4,1.4-5.3,3.5c-0.9-2.1-3-3.5-5.3-3.5c-1.3,0-2.5,0.4-3.5,1.1l0,0c0,0-3.3,2.5-6.5,7.4
			C6.2,8.9,5.9,9.3,5.7,9.8l0,0.1c-1.4,2.3-2.7,5-3.8,8.2c-0.2,0.5-0.3,0.9-0.4,1.4c-0.5,1.6-0.8,3.4-1.1,5.3
			c-0.1,0.5-0.1,0.9-0.2,1.4c0,0.5-0.1,1-0.1,1.5c0,0.1,0,0.2,0,0.3C0,28.7,0,29.5,0,30.3c0,0.7,0,1.5,0.1,2.3l0,0l0,0.1
			c0,0.4,0,0.7,0.1,1.1l0,0c0.4,2.6,1.5,6.9,4.3,10.7c0.9,1.2,2,2.4,3.3,3.4C8,47.9,8.1,48,8.3,48.2C8.2,48.1,8.1,48,8,47.9
			c0.1,0.1,0.2,0.2,0.4,0.3l0,0l0.1,0.1l0,0l0,0l0.1,0l0.1,0l-0.1,0c0.1,0.1,0.2,0.1,0.3,0.2l-0.1,0l-0.1-0.1
			c0.1,0.1,0.2,0.2,0.3,0.2c2.5,1.6,5.8,2.7,9.8,2.7c1,0,1.9-0.4,2.5-1c0.2-0.2,0.4-0.4,0.5-0.7c0.1,0.2,0.3,0.5,0.5,0.7
			c0.6,0.6,1.5,1,2.5,1c4.1,0,7.3-1,9.8-2.7c0.1-0.1,0.2-0.2,0.3-0.2l-0.1,0.1l-0.1,0c0.1,0,0.2-0.1,0.3-0.2l-0.1,0l0.1,0l0.1,0l0,0
			l0,0l0.1-0.1l0,0c0.1-0.1,0.3-0.2,0.4-0.3c-0.1,0.1-0.2,0.2-0.3,0.3c0.2-0.1,0.4-0.2,0.5-0.4c1.3-1,2.4-2.1,3.3-3.4
			c2.8-3.7,3.9-8,4.3-10.7l0,0c0-0.4,0-0.7,0.1-1.1l0-0.1l0,0C43.5,31.8,43.5,31,43.5,30.3z M41.9,23.4C41.5,23.1,41,23,40.5,23
			c-1.6,0-2.9,1.3-2.9,2.9c0,0.3,0.2,0.5,0.5,0.5c0.3,0,0.5-0.2,0.5-0.5c0-1.1,0.9-1.9,1.9-1.9c0.8,0,1.4,0.4,1.7,1.1
			c0.1,0.7,0.2,1.5,0.2,2.3c-0.9,0.2-1.7,0.8-2.1,1.6c-0.3-0.2-0.7-0.4-1.1-0.4c0.3-0.5,0.5-1,0.5-1.6c0-0.3-0.2-0.5-0.5-0.5
			c-0.3,0-0.5,0.2-0.5,0.5c0,1.1-0.9,1.9-1.9,1.9c-1.1,0-1.9-0.9-1.9-1.9c0-0.3-0.2-0.5-0.5-0.5c-0.3,0-0.5,0.2-0.5,0.5
			c0,1.4,1,2.6,2.4,2.9c-0.2,0.8-1,1.5-1.9,1.5c-1.1,0-1.9-0.9-1.9-1.9c0-0.9-0.4-1.7-1.1-2.3L31.3,27c-0.4-0.4-0.6-0.9-0.6-1.4
			s0.2-1,0.6-1.4c0.4-0.4,0.9-0.6,1.4-0.6c0.5,0,0.9,0.2,1.3,0.5c0.1,0.6,0.4,1.1,0.8,1.5c0.2,0.2,0.5,0.2,0.7,0s0.2-0.5,0-0.7
			c-0.4-0.4-0.6-0.9-0.6-1.4s0.2-1,0.6-1.4c0.4-0.4,0.9-0.6,1.4-0.6c0.4,0,0.9,0.2,1.2,0.4c0.1,0.2,0.3,0.4,0.4,0.6
			c0.2,0.2,0.5,0.2,0.7,0s0.2-0.5,0-0.7l-0.2-0.2c0-0.1-0.1-0.2-0.1-0.3l-0.1-0.1c-0.1-0.3-0.2-0.6-0.2-0.8c0-0.5,0.2-1,0.6-1.4
			c0.4-0.4,0.9-0.6,1.4-0.6c0.1,0,0.2,0,0.4,0C41.3,20.3,41.6,21.8,41.9,23.4z M35.9,31.9l-0.1,0L35.9,31.9L35.9,31.9z M32.7,36
			c-0.3,0.1-0.5,0.2-0.8,0.2c-0.5,0-1-0.2-1.4-0.6S30,34.8,30,34.3c0-0.2,0-0.3,0.1-0.4c0.1-0.1,0.1-0.2,0.1-0.4
			c0.1-0.2,0.2-0.4,0.4-0.6l0.1-0.2c0.6-0.3,1-0.9,1-1.6c0-0.3-0.2-0.5-0.5-0.5c-0.3,0-0.5,0.2-0.5,0.5c0,0.4-0.4,0.8-0.8,0.8
			c-0.4,0-0.8-0.4-0.8-0.8c0-0.3-0.2-0.5-0.5-0.5c-0.3,0-0.5,0.2-0.5,0.5c0,0.8,0.5,1.5,1.2,1.7c0,0.1,0,0.2-0.1,0.3
			c0,0.1-0.1,0.2-0.1,0.3C28.8,34.3,28,34.9,27,35c-0.6-0.6-1.4-0.9-2.2-0.9c-0.8,0-1.7,0.3-2.3,0.9l-0.7,0.6L21,35
			c-0.6-0.6-1.5-0.9-2.3-0.9c-0.8,0-1.6,0.3-2.2,0.9c-1-0.1-1.8-0.6-2.2-1.5c0-0.1-0.1-0.2-0.1-0.3c0-0.1,0-0.2-0.1-0.3
			c0.7-0.2,1.2-0.9,1.2-1.7c0-0.3-0.2-0.5-0.5-0.5s-0.5,0.2-0.5,0.5c0,0.4-0.4,0.8-0.8,0.8c-0.4,0-0.8-0.4-0.8-0.8
			c0-0.3-0.2-0.5-0.5-0.5s-0.5,0.2-0.5,0.5c0,0.7,0.4,1.3,1,1.6L13,33c0.2,0.2,0.3,0.4,0.4,0.6c0,0.1,0.1,0.2,0.1,0.4
			c0,0.1,0.1,0.3,0.1,0.4c0,0.5-0.2,1-0.6,1.4s-0.9,0.6-1.4,0.6c-0.3,0-0.6-0.1-0.8-0.2c0.2-0.4,0.3-0.8,0.3-1.3
			c0-0.7-0.3-1.5-0.9-2.1c-0.2-0.2-0.4-0.4-0.7-0.5c1.4-0.2,2.5-1.4,2.5-2.9c0-1.1,0.9-1.9,1.9-1.9c1.1,0,1.9,0.9,1.9,1.9l0,0l0,0
			c0,1.7,1.4,3.2,3.2,3.2c0.8,0,1.6-0.3,2.2-0.9h0l0.5-0.7l0.5,0.7h0c0.6,0.5,1.3,0.9,2.2,0.9c1.7,0,3.2-1.4,3.2-3.2l0,0l0,0
			c0-1.1,0.9-1.9,1.9-1.9c1.1,0,1.9,0.9,1.9,1.9c0,1.5,1.1,2.7,2.5,2.9c-0.2,0.1-0.5,0.3-0.7,0.5c-0.6,0.6-0.9,1.3-0.9,2.1
			C32.4,35.2,32.5,35.6,32.7,36z M26.6,39.2c0.2,0.1,0.5,0.1,0.7,0.1c0.7,0,1.3-0.2,1.9-0.7c0.2,0.3,0.3,0.6,0.3,1
			c0,0.5-0.2,1-0.6,1.4c-0.4,0.4-0.9,0.6-1.4,0.6c-0.5,0-0.9-0.2-1.3-0.5c0.2-0.4,0.4-0.9,0.4-1.4C26.6,39.4,26.6,39.3,26.6,39.2z
			 M26.6,42.3c0.3,0.1,0.6,0.2,0.9,0.2c0.6,0,1.2-0.2,1.7-0.6c0.2,0.3,0.3,0.6,0.3,1c0,0.5-0.2,1-0.6,1.4c-0.4,0.4-0.9,0.6-1.4,0.6
			c-0.5,0-0.9-0.2-1.3-0.5c0.2-0.4,0.4-0.9,0.4-1.4C26.7,42.7,26.6,42.5,26.6,42.3z M17.3,41c-0.4,0.3-0.8,0.5-1.3,0.5
			c-0.5,0-1-0.2-1.4-0.6c-0.4-0.4-0.6-0.9-0.6-1.4c0-0.3,0.1-0.7,0.3-1c0.5,0.5,1.2,0.7,1.9,0.7c0.2,0,0.5,0,0.7-0.1
			c0,0.1,0,0.3,0,0.4C16.9,40.1,17.1,40.5,17.3,41z M17.2,44.3c-0.4,0.3-0.8,0.5-1.3,0.5c-0.5,0-1-0.2-1.4-0.6S14,43.4,14,42.9
			c0-0.3,0.1-0.7,0.3-1c0.5,0.4,1.1,0.6,1.7,0.6c0.3,0,0.6-0.1,0.9-0.2c0,0.2-0.1,0.4-0.1,0.6C16.9,43.4,17,43.9,17.2,44.3z
			 M9.8,16.6C9.6,16.4,9.3,16.2,9,16c0.4-0.1,0.8-0.4,1.1-0.7c0.6-0.6,0.9-1.4,0.9-2.2l0,0l0.2-0.1c0.4-0.4,0.9-0.6,1.4-0.6
			s1,0.2,1.4,0.6c0.4,0.4,0.6,0.9,0.6,1.4c0,0.3-0.1,0.7-0.3,1c-0.5-0.4-1.1-0.6-1.7-0.5c-0.7,0-1.5,0.3-2.1,0.9
			c-0.2,0.2-0.2,0.5,0,0.7s0.5,0.2,0.7,0c0.4-0.4,0.9-0.6,1.4-0.6s1,0.2,1.4,0.6c0.4,0.4,0.6,0.9,0.6,1.4c0,0.5-0.2,1-0.5,1.3l0,0
			c-0.3,0.3-0.5,0.6-0.6,0.9l0,0c-0.6-0.6-1.3-0.9-2.1-0.9c-0.2,0-0.4,0-0.6,0.1c0-0.2,0.1-0.4,0.1-0.6
			C10.7,17.9,10.4,17.2,9.8,16.6z M33.1,15.7c-0.6-0.6-1.3-0.9-2.1-0.9c-0.6,0-1.2,0.2-1.7,0.5c-0.2-0.3-0.3-0.6-0.3-1
			c0-0.5,0.2-1,0.6-1.4c0.4-0.4,0.9-0.6,1.4-0.6s1,0.2,1.4,0.6l0.2,0.1l0,0c0,0.8,0.3,1.6,0.9,2.2c0.3,0.3,0.7,0.5,1.1,0.7
			c-0.3,0.1-0.6,0.3-0.8,0.6c-0.6,0.6-0.9,1.3-0.9,2.1c0,0.2,0,0.4,0.1,0.6c-0.2,0-0.4-0.1-0.6-0.1c-0.7,0-1.5,0.3-2.1,0.9l0,0
			c-0.1-0.3-0.3-0.6-0.6-0.9l0,0c-0.4-0.4-0.6-0.9-0.6-1.3c0-0.5,0.2-1,0.6-1.4c0.4-0.4,0.9-0.6,1.4-0.6c0.5,0,1,0.2,1.4,0.6
			c0.2,0.2,0.5,0.2,0.7,0S33.2,15.9,33.1,15.7z M35.8,8.5c-0.1,0-0.3,0-0.4,0c-0.2,0-0.4,0-0.6,0.1c0-0.2,0.1-0.4,0.1-0.6
			c0-0.4-0.1-0.7-0.2-1C35,7.4,35.4,7.9,35.8,8.5z M22.3,5.8c0-1.3,0.5-2.5,1.4-3.4c0.7-0.7,1.5-1.1,2.4-1.3l0,0
			c1.1,0,1.9,0.9,1.9,1.9c0,1.1-0.9,1.9-1.9,1.9c-0.3,0-0.5,0.2-0.5,0.5s0.2,0.5,0.5,0.5c1.1,0,1.9,0.9,1.9,1.9
			c0,1.1-0.9,1.9-1.9,1.9c-0.3,0-0.5,0.2-0.5,0.5s0.2,0.5,0.5,0.5c0.7,0,1.3-0.2,1.7-0.6c0.1,0.4,0.3,0.8,0.6,1.1
			c0.2,0.2,0.5,0.2,0.7,0s0.2-0.5,0-0.7c-0.3-0.3-0.4-0.6-0.4-1s0.1-0.7,0.4-1s0.6-0.4,1-0.4c0.4,0,0.7,0.1,1,0.4
			c0.2,0.2,0.5,0.2,0.7,0c0.2-0.2,0.2-0.5,0-0.7c-0.3-0.3-0.8-0.6-1.2-0.6l-0.2,0c-1,0-1.8-0.8-1.8-1.8c0-1,0.8-1.8,1.8-1.8
			c0.3,0,0.5-0.2,0.5-0.5s-0.2-0.5-0.5-0.5c-0.5,0-1,0.1-1.4,0.4v0c0-0.7-0.3-1.3-0.7-1.8C29,1.3,29.5,1.6,30,1.9l0,0L30.1,2
			c0.1,0.1,0.2,0.2,0.4,0.3c0.3,0.3,0.8,0.8,1.4,1.4c0.5,0.5,1,1.1,1.6,1.8C33,5.2,32.5,5,31.9,5c-0.3,0-0.5,0.2-0.5,0.5
			S31.7,6,31.9,6c1.1,0,1.9,0.9,1.9,1.9c0,1.1-0.9,1.9-1.9,1.9c-0.3,0-0.5,0.2-0.5,0.5s0.2,0.5,0.5,0.5c0.7,0,1.4-0.3,1.9-0.7L34,10
			c0.4-0.4,0.9-0.6,1.4-0.6c0.5,0,1,0.2,1.4,0.6c0.1,0.1,0.2,0.2,0.2,0.3l0,0.1c0.2,0.3,0.3,0.6,0.3,1c0,0.5-0.2,1-0.6,1.4
			c-0.2,0.2-0.2,0.5,0,0.7s0.5,0.2,0.7,0c0.3-0.3,0.5-0.7,0.7-1.1c0.9,1.6,1.7,3.5,2.3,5.5l0,0c-0.4,0-0.9,0.1-1.3,0.3
			c-0.1,0-0.3,0-0.4,0.1c-0.4,0.4-0.8,0.5-1.3,0.5c-0.5,0-0.9-0.2-1.3-0.5c-0.2-0.2-0.5-0.2-0.7,0s-0.2,0.5,0,0.7
			c0.5,0.5,1.3,0.8,2,0.8l0.2,0c-0.1,0.3-0.2,0.6-0.2,1l0,0.2c-0.3-0.1-0.5-0.1-0.8-0.1c-0.7,0-1.5,0.3-2.1,0.9
			C34.3,22,34,22.5,33.9,23c-0.4-0.2-0.8-0.3-1.3-0.3c-0.6,0-1.2,0.2-1.7,0.6c-0.3-0.4-0.5-0.8-0.5-1.2c0-0.1,0-0.2,0-0.3l0-0.1
			c0.1-0.4,0.2-0.7,0.5-1c0.4-0.4,0.9-0.6,1.4-0.6c0.5,0,1,0.2,1.4,0.6c0.2,0.2,0.5,0.2,0.7,0l0,0l0,0c0.2-0.2,0.2-0.5,0-0.7
			c-0.4-0.4-0.6-0.9-0.6-1.4s0.2-1,0.6-1.4c0.4-0.4,0.9-0.6,1.4-0.6c0.5,0,1,0.2,1.4,0.6l0.1,0.1c0.1,0.1,0.2,0.2,0.3,0.3
			c0.2,0.2,0.5,0.2,0.7,0s0.2-0.5,0-0.7c-0.3-0.3-0.5-0.7-0.5-1.2s0.2-0.8,0.5-1.2c0.2-0.2,0.2-0.5,0-0.7s-0.5-0.2-0.7,0
			c-0.2,0.2-0.3,0.4-0.4,0.6l-0.1,0c-0.4,0.4-0.9,0.6-1.4,0.6c-0.5,0-1-0.2-1.4-0.6c-0.4-0.4-0.6-0.9-0.6-1.4c0-0.5,0.2-1,0.6-1.4
			c0.2-0.2,0.2-0.5,0-0.7s-0.5-0.2-0.7,0c-0.3,0.3-0.5,0.7-0.7,1.1c-0.5-0.4-1.2-0.6-1.8-0.6c-0.7,0-1.5,0.3-2.1,0.9
			c-0.2,0.2-0.4,0.5-0.6,0.8c-0.5-0.6-1.3-1-2.2-1h0c-1.1,0-1.9-0.9-1.9-1.9c0-1.1,0.9-1.9,1.9-1.9l0,0c0.3,0,0.5-0.2,0.5-0.5
			s-0.2-0.5-0.5-0.5c-1.1,0-1.9-0.9-1.9-1.9c0-1.1,0.9-1.9,1.9-1.9c0.3,0,0.5-0.2,0.5-0.5s-0.2-0.5-0.5-0.5c-1.6,0-2.9,1.3-2.9,2.9
			c0,1,0.5,1.9,1.3,2.4c-0.8,0.5-1.3,1.4-1.3,2.4c0,1.6,1.3,2.9,2.9,2.9h0c1.1,0,1.9,0.9,1.9,1.9c0,1-0.8,1.9-1.9,1.9l0,0
			c-0.3,0-0.5,0.2-0.5,0.5l0,0v0c0,0.3,0.2,0.5,0.5,0.5l0,0c1,0,1.9,0.9,1.9,1.9c0,1.1-0.9,1.9-1.9,1.9c-0.3,0-0.5,0.2-0.5,0.5
			l0,0.1c0,0.2,0.2,0.4,0.5,0.4l0.1,0l0.2,0.1c0.8,0,1.5,0.7,1.5,1.5c0,0.8-0.7,1.5-1.5,1.5c-0.3,0-0.5,0.2-0.5,0.5s0.2,0.5,0.5,0.5
			c1.4,0,2.5-1.1,2.5-2.5c0-0.9-0.5-1.7-1.2-2.1c0.7-0.5,1.2-1.4,1.2-2.3c0.3,0.4,0.4,0.8,0.4,1.2c0,0.1,0,0.2,0,0.3l0,0.1
			c0,0.2,0,0.3,0,0.5c0,0.4,0.1,0.8,0.2,1.2c0.1,0.3,0.3,0.6,0.5,0.8c-0.3,0.5-0.5,1-0.5,1.6c0,0.3,0.1,0.5,0.1,0.8
			c-0.1,0-0.2,0-0.3,0c-1.6,0-2.9,1.3-2.9,2.9l0,0l0,0c0,1.2-1,2.2-2.2,2.2c-1.2,0-2.1-0.9-2.2-2.1v-0.1v-0.6v-1.3
			c0.4,1,1.4,1.7,2.6,1.7c0.3,0,0.5-0.2,0.5-0.5s-0.2-0.5-0.5-0.5c-1,0-1.8-0.8-1.8-1.8c0-1,0.8-1.8,1.8-1.8c0.3,0,0.5-0.2,0.5-0.5
			s-0.2-0.5-0.5-0.5c-1.2,0-2.2,0.7-2.6,1.7v-0.4v-4.3v-0.9c0.6,0.6,1.4,1,2.3,1l0,0h0v0c0.3,0,0.5-0.2,0.5-0.5
			c0-0.3-0.2-0.5-0.5-0.5h0c-1.2,0-2.2-1-2.2-2.2c0-1.2,1-2.2,2.2-2.2v0c0.3,0,0.5-0.2,0.5-0.5c0-0.2-0.1-0.4-0.3-0.5l-0.2-0.1h0
			c-1.2,0-2.2-1-2.2-2.2v0l0-0.1L22.3,5.8L22.3,5.8z M28.1,17.2c0,0.2,0,0.3,0,0.5v0c-0.1-0.1-0.2-0.2-0.3-0.2
			C27.9,17.4,28,17.3,28.1,17.2z M22.3,14.4c0.2,0.2,0.4,0.3,0.6,0.4c-0.2,0.1-0.4,0.3-0.6,0.5v0l-0.5,0.5l-0.5-0.5
			c-0.2-0.2-0.4-0.3-0.6-0.5c0.2-0.1,0.4-0.3,0.5-0.4l0.5-0.5L22.3,14.4z M8.9,6.9c-0.1,0.3-0.2,0.7-0.2,1c0,0.2,0,0.4,0.1,0.6
			c-0.2,0-0.4-0.1-0.6-0.1c-0.1,0-0.3,0-0.4,0C8.1,7.9,8.5,7.4,8.9,6.9z M5.4,12.3c0.1,0.4,0.4,0.8,0.7,1.1c0.2,0.2,0.5,0.2,0.7,0
			s0.2-0.5,0-0.7c-0.4-0.4-0.6-0.9-0.6-1.4c0-0.3,0.1-0.7,0.3-1l0-0.1c0.1-0.1,0.1-0.2,0.2-0.3c0.4-0.4,0.9-0.6,1.4-0.6
			c0.5,0,1,0.2,1.4,0.6l0.2,0.1c0.5,0.4,1.2,0.7,1.9,0.7c0.3,0,0.5-0.2,0.5-0.5s-0.2-0.5-0.5-0.5C10.5,9.9,9.7,9,9.7,8
			c0-1.1,0.9-1.9,1.9-1.9c0.3,0,0.5-0.2,0.5-0.5S11.9,5,11.6,5C11,5,10.5,5.2,10,5.5c0.6-0.7,1.1-1.3,1.6-1.8
			c0.6-0.6,1.1-1.1,1.4-1.4c0.2-0.1,0.3-0.3,0.4-0.3L13.5,2l0,0c0.5-0.3,1-0.6,1.6-0.8c-0.4,0.5-0.7,1.1-0.7,1.8v0
			c-0.4-0.2-0.9-0.4-1.4-0.4c-0.3,0-0.5,0.2-0.5,0.5s0.2,0.5,0.5,0.5c1,0,1.8,0.8,1.8,1.8c0,1-0.8,1.8-1.8,1.8l-0.2,0
			c-0.4,0.1-0.9,0.3-1.2,0.6c-0.2,0.2-0.2,0.5,0,0.7s0.5,0.2,0.7,0c0.3-0.3,0.6-0.4,1-0.4s0.7,0.1,1,0.4c0.3,0.3,0.4,0.6,0.4,1
			s-0.1,0.7-0.4,1c-0.2,0.2-0.2,0.5,0,0.7c0.2,0.2,0.5,0.2,0.7,0c0.3-0.3,0.5-0.7,0.6-1.1c0.5,0.4,1.1,0.6,1.7,0.6
			c0.3,0,0.5-0.2,0.5-0.5s-0.2-0.5-0.5-0.5c-1.1,0-1.9-0.9-1.9-1.9c0-1.1,0.9-1.9,1.9-1.9c0.3,0,0.5-0.2,0.5-0.5s-0.2-0.5-0.5-0.5
			c-1.1,0-1.9-0.9-1.9-1.9c0-1.1,0.9-1.9,1.9-1.9l0,0c0.9,0.2,1.8,0.7,2.4,1.3c0.9,0.9,1.4,2.1,1.4,3.4V12l0,0.1v0
			c0,1.2-1,2.2-2.2,2.2h0l-0.2,0.1c-0.2,0.1-0.3,0.3-0.3,0.5c0,0.3,0.2,0.5,0.5,0.5v0c1.2,0,2.2,1,2.2,2.2c0,1.2-1,2.2-2.2,2.2h0
			c-0.3,0-0.5,0.2-0.5,0.5c0,0.3,0.2,0.5,0.5,0.5v0h0l0,0c0.9,0,1.7-0.4,2.3-1v0.9v4.3v0.4c-0.4-1-1.4-1.7-2.6-1.7
			c-0.3,0-0.5,0.2-0.5,0.5s0.2,0.5,0.5,0.5c1,0,1.8,0.8,1.8,1.8c0,1-0.8,1.8-1.8,1.8c-0.3,0-0.5,0.2-0.5,0.5s0.2,0.5,0.5,0.5
			c1.2,0,2.2-0.7,2.6-1.7v1.3v0.6v0.1c-0.1,1.1-1,2.1-2.2,2.1c-1.2,0-2.2-1-2.2-2.2l0,0l0,0c0-1.6-1.3-2.9-2.9-2.9
			c-0.1,0-0.2,0-0.3,0c0.1-0.3,0.1-0.5,0.1-0.8c0-0.6-0.2-1.1-0.5-1.6c0.2-0.2,0.4-0.5,0.5-0.8c0.2-0.4,0.2-0.8,0.2-1.2
			c0-0.2,0-0.3,0-0.5l0-0.1c0-0.1,0-0.2,0-0.3c0-0.4,0.2-0.9,0.4-1.2c0,1,0.5,1.8,1.2,2.3c-0.7,0.5-1.2,1.2-1.2,2.1
			c0,1.4,1.1,2.5,2.5,2.5c0.3,0,0.5-0.2,0.5-0.5S17.3,26,17,26c-0.8,0-1.5-0.7-1.5-1.5c0-0.8,0.7-1.5,1.5-1.5l0.2-0.1l0.1,0
			c0.2,0,0.4-0.2,0.5-0.4l0-0.1c0-0.3-0.2-0.5-0.5-0.5c-1.1,0-1.9-0.9-1.9-1.9c0-1,0.8-1.9,1.9-1.9l0,0c0.3,0,0.5-0.2,0.5-0.5v0l0,0
			c0-0.3-0.2-0.5-0.5-0.5l0,0c-1,0-1.9-0.9-1.9-1.9c0-1.1,0.9-1.9,1.9-1.9h0c1.6,0,2.9-1.3,2.9-2.9c0-1-0.5-1.9-1.3-2.4
			c0.8-0.5,1.3-1.4,1.3-2.4c0-1.6-1.3-2.9-2.9-2.9c-0.3,0-0.5,0.2-0.5,0.5s0.2,0.5,0.5,0.5c1.1,0,1.9,0.9,1.9,1.9
			c0,1.1-0.9,1.9-1.9,1.9c-0.3,0-0.5,0.2-0.5,0.5c0,0.3,0.2,0.5,0.5,0.5l0,0l0,0c1.1,0,1.9,0.9,1.9,1.9c0,1.1-0.9,1.9-1.9,1.9h0
			c-0.9,0-1.6,0.4-2.2,1c-0.1-0.3-0.3-0.6-0.6-0.8c-0.6-0.6-1.3-0.9-2.1-0.9c-0.6,0-1.3,0.2-1.8,0.6c-0.1-0.4-0.4-0.8-0.7-1.1
			c-0.2-0.2-0.5-0.2-0.7,0s-0.2,0.5,0,0.7c0.4,0.4,0.6,0.9,0.6,1.4s-0.2,1-0.6,1.4C9,15,8.5,15.2,7.9,15.2c-0.5,0-1-0.2-1.4-0.6
			l-0.1,0C6.3,14.4,6.2,14.2,6,14c-0.2-0.2-0.5-0.2-0.7,0s-0.2,0.5,0,0.7c0.3,0.3,0.5,0.7,0.5,1.2S5.6,16.7,5.3,17
			c-0.2,0.2-0.2,0.5,0,0.7s0.5,0.2,0.7,0c0.1-0.1,0.2-0.2,0.3-0.3l0.1-0.1c0.4-0.4,0.9-0.6,1.4-0.6s1,0.2,1.4,0.6
			c0.4,0.4,0.6,0.9,0.6,1.4c0,0.5-0.2,1-0.6,1.4c-0.2,0.2-0.2,0.5,0,0.7l0,0l0,0c0.2,0.2,0.5,0.2,0.7,0c0.4-0.4,0.9-0.6,1.4-0.6
			s1,0.2,1.4,0.6c0.3,0.3,0.4,0.6,0.5,1l0,0.1c0,0.1,0,0.2,0,0.3c0,0.4-0.2,0.9-0.5,1.2c-0.5-0.4-1.1-0.6-1.7-0.6
			c-0.4,0-0.9,0.1-1.3,0.3c-0.1-0.5-0.4-1-0.8-1.4c-0.6-0.6-1.3-0.9-2.1-0.9c-0.3,0-0.5,0.1-0.8,0.1l0-0.2c0-0.3-0.1-0.7-0.2-1
			l0.2,0c0.7,0,1.4-0.3,2-0.8c0.2-0.2,0.2-0.5,0-0.7s-0.5-0.2-0.7,0c-0.4,0.4-0.8,0.5-1.3,0.5s-0.9-0.2-1.3-0.5
			c-0.1-0.1-0.3-0.2-0.4-0.1c-0.4-0.2-0.8-0.3-1.3-0.3l0,0C3.7,15.8,4.5,14,5.4,12.3z M15.4,17.2c0.1,0.1,0.2,0.2,0.3,0.3
			c-0.1,0.1-0.2,0.2-0.3,0.2v0C15.4,17.6,15.4,17.4,15.4,17.2z M1.3,25.1c0.3-0.6,1-1.1,1.7-1.1C4.1,24,5,24.8,5,25.9
			c0,0.3,0.2,0.5,0.5,0.5S6,26.2,6,25.9C6,24.3,4.7,23,3.1,23c-0.5,0-1,0.2-1.5,0.4c0.3-1.6,0.7-3.1,1.1-4.5c0.1,0,0.2,0,0.4,0
			c0.5,0,1,0.2,1.4,0.6S5,20.2,5,20.7c0,0.3-0.1,0.6-0.2,0.8l-0.1,0.1c-0.1,0.1-0.1,0.2-0.1,0.3l-0.2,0.2c-0.2,0.2-0.2,0.5,0,0.7
			s0.5,0.2,0.7,0c0.2-0.2,0.3-0.4,0.4-0.6c0.4-0.3,0.8-0.4,1.2-0.4c0.5,0,1,0.2,1.4,0.6c0.4,0.4,0.6,0.9,0.6,1.4
			c0,0.5-0.2,1-0.6,1.4c-0.2,0.2-0.2,0.5,0,0.7s0.5,0.2,0.7,0c0.4-0.4,0.7-1,0.8-1.5c0.4-0.3,0.8-0.5,1.3-0.5c0.5,0,1,0.2,1.4,0.6
			c0.4,0.4,0.6,0.9,0.6,1.4c0,0.5-0.2,1-0.6,1.4l-0.1,0.1c-0.7,0.5-1.1,1.3-1.1,2.3c0,1.1-0.9,1.9-1.9,1.9c-0.9,0-1.7-0.6-1.9-1.5
			c1.3-0.3,2.4-1.4,2.4-2.9c0-0.3-0.2-0.5-0.5-0.5s-0.5,0.2-0.5,0.5c0,1.1-0.9,1.9-1.9,1.9c-1.1,0-1.9-0.9-1.9-1.9
			c0-0.3-0.2-0.5-0.5-0.5s-0.5,0.2-0.5,0.5c0,0.6,0.2,1.1,0.5,1.6c-0.4,0.1-0.8,0.2-1.1,0.4c-0.4-0.8-1.1-1.4-2.1-1.6
			C1.2,26.6,1.2,25.8,1.3,25.1z M7.8,31.9l-0.1,0l0-0.1L7.8,31.9z M1,30.3c0-0.7,0-1.3,0-1.9c0.8,0.2,1.4,1,1.4,1.8
			c0,0.9-0.6,1.6-1.4,1.8C1,31.4,1,30.9,1,30.3z M7.2,42.5c0,0.6,0.2,1.2,0.5,1.6c-0.4,0.5-0.6,1.1-0.6,1.7l0,0.1
			c-0.7-0.7-1.3-1.4-1.9-2.1c-1-1.3-1.8-2.7-2.4-4.1c0.4-0.3,0.8-0.5,1.3-0.5c0.5,0,1,0.2,1.4,0.6c0.4,0.4,0.6,0.9,0.6,1.4
			c0,0.5-0.2,1-0.6,1.4c-0.2,0.2-0.2,0.5,0,0.7s0.5,0.2,0.7,0c0.6-0.6,0.9-1.3,0.9-2.1c0-0.7-0.3-1.5-0.9-2.1
			c-0.6-0.6-1.3-0.9-2.1-0.9c-0.6,0-1.2,0.2-1.7,0.6c-0.2-0.5-0.3-0.9-0.5-1.4c0.4,0.2,0.8,0.3,1.2,0.3c0.7,0,1.5-0.3,2.1-0.9
			c0.2-0.2,0.2-0.5,0-0.7s-0.5-0.2-0.7,0c-0.4,0.4-0.9,0.6-1.4,0.6c-0.5,0-1-0.2-1.4-0.6c-0.1-0.1-0.3-0.3-0.4-0.5
			c-0.1-0.3-0.1-0.6-0.2-0.9c-0.1-0.4-0.1-0.7-0.2-1c0-0.2,0-0.4,0-0.6c0.3,0,0.5-0.1,0.7-0.3L2,32.7c0.9-0.5,1.4-1.4,1.4-2.5l0-0.2
			c0.4-0.4,0.8-0.5,1.3-0.5c0.5,0,1,0.2,1.4,0.6s0.6,0.9,0.6,1.4c0,0.5-0.2,1-0.5,1.3l0,0c-0.2,0.2-0.2,0.5,0,0.7l0,0l0,0
			c0.2,0.2,0.5,0.2,0.7,0l0,0c0.4-0.4,0.8-0.5,1.3-0.5c0.5,0,1,0.2,1.4,0.6c0.4,0.4,0.6,0.9,0.6,1.4c0,0.3-0.1,0.5-0.2,0.8
			c-0.1,0.2-0.2,0.4-0.4,0.6l-0.1,0.1c-0.1,0.2-0.1,0.4,0.1,0.6c0.2,0.2,0.5,0.2,0.7,0c0.4,0.2,0.9,0.4,1.4,0.4
			c0.6,0,1.2-0.2,1.7-0.6c0,0.4,0.2,0.8,0.4,1.2c-0.4,0.5-0.6,1.1-0.6,1.8c0,0.6,0.2,1.2,0.5,1.6c-0.4,0.5-0.6,1.1-0.6,1.7
			c0,0.3,0.1,0.6,0.2,0.9c-0.3-0.1-0.7-0.2-1-0.2c-0.7,0-1.4,0.3-1.9,0.8l-0.1,0c-0.5,0-1-0.2-1.4-0.6c-0.4-0.4-0.6-0.9-0.6-1.4
			c0-0.5,0.2-1,0.6-1.4c0.2-0.2,0.2-0.5,0-0.7s-0.5-0.2-0.7,0C7.5,41,7.2,41.7,7.2,42.5z M11,48.6c0.1-0.1,0.3-0.1,0.4-0.2
			c0.1,0.2,0.1,0.3,0.2,0.5C11.4,48.8,11.2,48.7,11,48.6z M14.2,49.4c-1.1,0-1.9-0.9-1.9-1.9c0-0.3-0.2-0.5-0.5-0.5
			c-0.2,0-0.3,0.1-0.4,0.2c-0.4,0.3-0.8,0.5-1.3,0.5c-0.4,0-0.7-0.1-1-0.3l-0.1,0c-0.1-0.1-0.2-0.1-0.3-0.2
			c-0.4-0.4-0.6-0.9-0.6-1.4c0-0.3,0.1-0.7,0.3-1c0.5,0.4,1.1,0.6,1.7,0.6c0.7,0,1.4-0.3,1.9-0.8l0.1,0c0.5,0,1,0.2,1.4,0.6
			c0.4,0.4,0.6,0.9,0.6,1.4c0,0.5-0.2,1-0.6,1.4c-0.2,0.2-0.2,0.5,0,0.7s0.5,0.2,0.7,0c0.6-0.6,0.9-1.3,0.9-2.1
			c0-0.3-0.1-0.6-0.2-0.9c0.3,0.1,0.7,0.2,1,0.2c0.7,0,1.4-0.3,1.9-0.7c0.5,0.4,1,0.6,1.6,0.7c0,0.2,0.1,0.3,0.1,0.5
			c0,0.5-0.2,1-0.6,1.4c-0.4,0.4-0.9,0.6-1.4,0.6c-0.2,0-0.4,0-0.6-0.1c0-0.2,0.1-0.4,0.1-0.6c0-0.3-0.2-0.5-0.5-0.5
			s-0.5,0.2-0.5,0.5l0,0.1c0,0.4-0.1,0.7-0.3,1C15.4,49.1,14.8,49.4,14.2,49.4z M21.3,44.2v1.2v2.3c0,0.7-0.3,1.3-0.7,1.8
			c-0.4,0.5-1.1,0.7-1.8,0.7c-1.1,0-2.1-0.1-3-0.2c0.4-0.2,0.7-0.6,1-1c0.3,0.1,0.6,0.2,0.9,0.2c0.7,0,1.5-0.3,2.1-0.9
			s0.9-1.3,0.9-2.1c0-0.2,0-0.4-0.1-0.5c-0.1-0.3-0.2-0.6-0.4-0.9c-0.1,0-0.2,0-0.3,0c-0.3,0-0.7-0.1-1-0.3
			c-0.1-0.1-0.3-0.2-0.4-0.3c-0.4-0.4-0.6-0.9-0.6-1.4c0-0.3,0.1-0.7,0.3-1c0.5,0.4,1.1,0.6,1.7,0.6c0.5,0,1-0.1,1.4-0.4L21.3,44.2
			L21.3,44.2z M21.8,40.2l-0.5,0.8l0,0c-0.4,0.4-0.9,0.6-1.4,0.6s-1-0.2-1.4-0.6c-0.4-0.4-0.6-0.9-0.6-1.4c0-0.5,0.2-1,0.6-1.4
			c0.2-0.2,0.2-0.5,0-0.7s-0.5-0.2-0.7,0l-0.2,0.2l0,0c-0.4,0.4-0.9,0.6-1.4,0.6s-1-0.2-1.4-0.6c-0.4-0.4-0.6-0.9-0.6-1.4
			c0-0.4,0.1-0.7,0.3-1.1c0.6,0.4,1.3,0.6,2,0.6c0.1,0,0.3-0.1,0.4-0.2l0.2-0.1c0.4-0.4,1-0.7,1.6-0.7s1.1,0.2,1.6,0.7
			c0.4,0.4,0.7,1,0.7,1.6c0,0.6-0.2,1.1-0.7,1.6c-0.2,0.2-0.2,0.5,0,0.7s0.5,0.2,0.7,0l0.2-0.3h0l0.5-0.7l0.5,0.7h0l0.2,0.3
			c0.2,0.2,0.5,0.2,0.7,0c0.2-0.2,0.2-0.5,0-0.7c-0.4-0.4-0.7-1-0.7-1.6c0-0.6,0.2-1.1,0.7-1.6c0.4-0.4,1-0.7,1.6-0.7
			s1.1,0.2,1.6,0.7l0.1,0.1c0.1,0.1,0.2,0.2,0.4,0.2c0.8,0,1.5-0.2,2-0.6c0.2,0.3,0.3,0.7,0.3,1.1c0,0.5-0.2,1-0.6,1.4
			c-0.4,0.4-0.9,0.6-1.4,0.6c-0.5,0-1-0.2-1.4-0.6l0,0l-0.2-0.2c-0.2-0.2-0.5-0.2-0.7,0s-0.2,0.5,0,0.7c0.4,0.4,0.6,0.9,0.6,1.4
			c0,0.5-0.2,1-0.6,1.4c-0.4,0.4-0.9,0.6-1.4,0.6s-1-0.2-1.4-0.6l0,0L21.8,40.2z M24.8,50.2c-0.8,0-1.4-0.3-1.8-0.7
			c-0.4-0.5-0.7-1.1-0.7-1.8v-2.3v-1.2v-2.1c0.4,0.2,0.9,0.4,1.4,0.4c0.6,0,1.2-0.2,1.7-0.6c0.2,0.3,0.3,0.6,0.3,1
			c0,0.5-0.2,1-0.6,1.4c-0.1,0.1-0.2,0.2-0.4,0.3c-0.3,0.2-0.6,0.3-1,0.3c-0.1,0-0.2,0-0.3,0c-0.2,0.3-0.3,0.6-0.4,0.9
			c0,0.2-0.1,0.4-0.1,0.5c0,0.7,0.3,1.5,0.9,2.1s1.3,0.9,2.1,0.9c0.3,0,0.6-0.1,0.9-0.2c0.2,0.4,0.6,0.7,1,1
			C26.9,50.1,25.9,50.2,24.8,50.2z M31.9,48.9c0.1-0.2,0.1-0.3,0.2-0.5c0.1,0.1,0.3,0.1,0.4,0.2C32.3,48.7,32.1,48.8,31.9,48.9z
			 M34.8,47.2c-0.1,0.1-0.2,0.2-0.3,0.2l-0.1,0c-0.3,0.2-0.7,0.3-1,0.3c-0.5,0-0.9-0.2-1.3-0.5c-0.1-0.1-0.2-0.2-0.4-0.2
			c-0.3,0-0.5,0.2-0.5,0.5c0,1.1-0.9,1.9-1.9,1.9c-0.7,0-1.3-0.3-1.6-0.9c-0.2-0.3-0.3-0.6-0.3-1l0-0.1c0-0.3-0.2-0.5-0.5-0.5
			c-0.3,0-0.5,0.2-0.5,0.5c0,0.2,0,0.4,0.1,0.6c-0.2,0.1-0.4,0.1-0.6,0.1c-0.5,0-1-0.2-1.4-0.6c-0.4-0.4-0.6-0.9-0.6-1.4
			c0-0.2,0-0.3,0.1-0.5c0.6-0.1,1.1-0.3,1.6-0.7c0.5,0.5,1.2,0.7,1.9,0.7c0.3,0,0.7-0.1,1-0.2c-0.1,0.3-0.2,0.6-0.2,0.9
			c0,0.7,0.3,1.5,0.9,2.1c0.2,0.2,0.5,0.2,0.7,0s0.2-0.5,0-0.7c-0.4-0.4-0.6-0.9-0.6-1.4s0.2-1,0.6-1.4c0.4-0.4,0.9-0.6,1.4-0.6
			l0.1,0c0.6,0.5,1.2,0.8,1.9,0.8c0.6,0,1.2-0.2,1.7-0.6c0.2,0.3,0.3,0.6,0.3,1C35.4,46.3,35.2,46.8,34.8,47.2z M42.4,33.7
			c0,0.3-0.1,0.7-0.2,1.1c-0.1,0.3-0.1,0.6-0.2,0.9c-0.1,0.2-0.2,0.3-0.3,0.5c-0.4,0.4-0.9,0.6-1.4,0.6c-0.5,0-1-0.2-1.4-0.6
			c-0.2-0.2-0.5-0.2-0.7,0s-0.2,0.5,0,0.7c0.6,0.6,1.3,0.9,2.1,0.9c0.4,0,0.8-0.1,1.2-0.3c-0.1,0.5-0.3,0.9-0.5,1.4
			c-0.5-0.4-1.1-0.6-1.7-0.6c-0.7,0-1.5,0.3-2.1,0.9c-0.6,0.6-0.9,1.3-0.9,2.1c0,0.7,0.3,1.5,0.9,2.1c0.2,0.2,0.5,0.2,0.7,0
			s0.2-0.5,0-0.7c-0.4-0.4-0.6-0.9-0.6-1.4s0.2-1,0.6-1.4c0.4-0.4,0.9-0.6,1.4-0.6c0.5,0,0.9,0.2,1.3,0.5c-0.6,1.4-1.4,2.8-2.4,4.1
			c-0.6,0.7-1.2,1.4-1.9,2.1l0-0.1c0-0.6-0.2-1.2-0.6-1.7c0.3-0.5,0.5-1.1,0.5-1.6c0-0.7-0.3-1.5-0.9-2.1c-0.2-0.2-0.5-0.2-0.7,0
			s-0.2,0.5,0,0.7c0.4,0.4,0.6,0.9,0.6,1.4c0,0.5-0.2,1-0.6,1.4c-0.4,0.4-0.9,0.6-1.4,0.6l-0.1,0c-0.6-0.5-1.2-0.8-1.9-0.8
			c-0.3,0-0.7,0.1-1,0.2c0.1-0.3,0.2-0.6,0.2-0.9c0-0.6-0.2-1.2-0.6-1.7c0.3-0.5,0.5-1.1,0.5-1.6c0-0.6-0.2-1.2-0.6-1.8
			c0.2-0.4,0.3-0.8,0.4-1.2c0.5,0.4,1.1,0.6,1.7,0.6c0.5,0,1-0.1,1.4-0.4c0.2,0.1,0.5,0.1,0.7,0c0.2-0.2,0.2-0.4,0.1-0.6L34,36.1
			c-0.2-0.2-0.3-0.4-0.4-0.6c-0.1-0.2-0.2-0.5-0.2-0.8c0-0.5,0.2-1,0.6-1.4c0.4-0.4,0.9-0.6,1.4-0.6c0.5,0,1,0.2,1.3,0.5l0,0
			c0.2,0.2,0.5,0.2,0.7,0l0,0l0,0c0.2-0.2,0.2-0.5,0-0.7l0,0c-0.4-0.4-0.5-0.8-0.5-1.3c0-0.5,0.2-1,0.6-1.4s0.9-0.6,1.4-0.6
			c0.5,0,0.9,0.2,1.3,0.5l0,0.2c0,1.1,0.6,2,1.4,2.5l0.2,0.1c0.2,0.1,0.5,0.2,0.7,0.3C42.4,33.3,42.4,33.5,42.4,33.7z M42.5,32
			c-0.8-0.2-1.4-1-1.4-1.8c0-0.9,0.6-1.6,1.4-1.8c0,0.6,0,1.3,0,1.9C42.5,30.9,42.5,31.4,42.5,32z"/>
		<polygon points="20.8,14.9 21.2,15.3 21.8,15.8 22.3,15.3 22.7,14.9 22.3,14.4 21.8,13.9 21.2,14.4 		"/>
	</g>
</g>
</svg>
